<?xml version="1.0" ?><svg style="enable-background:new 0 0 512 512;" version="1.1" viewBox="0 0 512 512" xml:space="preserve" xmlns="http://www.w3.org/2000/svg" xmlns:xlink="http://www.w3.org/1999/xlink"><g id="_x32_7_x2C__date_x2C__event_x2C__quarantine_x2C__schedule"><g id="XMLID_4175_"><g id="XMLID_4176_"><circle cx="453.5" cy="58.5" id="XMLID_779_" r="30" style="fill:#D94556;"/><path d="M48.5,43.5c11.05,0,20,8.95,20,20s-8.95,20-20,20s-20-8.95-20-20     S37.45,43.5,48.5,43.5z" id="XMLID_778_" style="fill:#D94556;"/><path d="M458.5,163.5v60h-420v-60C55.428,163.5,429.211,163.5,458.5,163.5z" id="XMLID_777_" style="fill:#FAA71A;"/><polygon id="XMLID_776_" points="458.5,378.5 458.5,488.5 38.5,488.5 38.5,453.5 398.5,453.5    " style="fill:#33383F;"/><polygon id="XMLID_775_" points="458.5,378.5 398.5,453.5 398.5,378.5    " style="fill:#A0B5C5;"/><path d="M458.5,223.5v155h-60v75h-360v-230H458.5z" id="XMLID_4310_" style="fill:#D0DCE7;"/><rect height="40" id="XMLID_773_" style="fill:#94D4FF;" width="40" x="248.5" y="308.5"/><rect height="40" id="XMLID_772_" style="fill:#94D4FF;" width="40" x="168.5" y="308.5"/><rect height="40" id="XMLID_771_" style="fill:#94D4FF;" width="40" x="88.5" y="308.5"/><rect height="40" id="XMLID_770_" style="fill:#BCE4FF;" width="40" x="288.5" y="308.5"/><rect height="40" id="XMLID_769_" style="fill:#BCE4FF;" width="40" x="208.5" y="308.5"/><rect height="40" id="XMLID_768_" style="fill:#BCE4FF;" width="40" x="128.5" y="308.5"/><circle cx="466" cy="131" id="XMLID_767_" r="7.5" style="fill:#5CBEFF;"/><rect height="40" id="XMLID_766_" style="fill:#BCE4FF;" width="40" x="368.5" y="268.5"/><circle cx="381" cy="41" id="XMLID_765_" r="7.5" style="fill:#5CBEFF;"/><path d="M369.95,406.49c0.6,1.359,0.9,2.979,0.9,4.88c0,2.32-0.44,4.29-1.31,5.89     c-0.87,1.61-2.02,2.9-3.45,3.891c-1.43,0.989-3.08,1.699-4.94,2.149c-1.85,0.44-3.77,0.66-5.74,0.66c-1.51,0-3.06-0.11-4.65-0.34     c-1.58-0.24-3.13-0.57-4.64-1.02c-1.51-0.439-2.97-0.98-4.38-1.6c-1.41-0.61-2.72-1.33-3.92-2.14l4.18-8.301     c0.16,0.19,0.66,0.56,1.51,1.101c0.85,0.54,1.91,1.08,3.16,1.63c1.26,0.54,2.66,1.02,4.21,1.45c1.55,0.42,3.12,0.63,4.7,0.63     c3.37,0,5.05-1.02,5.05-3.07c0-0.78-0.25-1.41-0.75-1.92c-0.51-0.5-1.2-0.95-2.09-1.36c-0.89-0.409-1.95-0.779-3.17-1.13     c-1.21-0.35-2.54-0.739-3.97-1.159c-1.9-0.58-3.54-1.211-4.93-1.891c-1.4-0.68-2.55-1.46-3.46-2.35     c-0.91-0.891-1.59-1.92-2.03-3.08c-0.44-1.16-0.67-2.51-0.67-4.061c0-2.17,0.41-4.08,1.22-5.75c0.81-1.659,1.92-3.06,3.31-4.199     c1.39-1.141,3.01-2.011,4.85-2.591c1.83-0.579,3.78-0.869,5.83-0.869c1.43,0,2.84,0.14,4.24,0.409c1.39,0.27,2.72,0.62,4,1.04     c1.28,0.431,2.47,0.91,3.57,1.46c1.1,0.54,2.12,1.08,3.05,1.62l-4.18,7.891c-0.12-0.15-0.52-0.441-1.22-0.87     c-0.7-0.42-1.57-0.87-2.61-1.33c-1.05-0.47-2.19-0.87-3.43-1.22c-1.23-0.351-2.47-0.521-3.71-0.521c-3.41,0-5.11,1.14-5.11,3.42     c0,0.7,0.18,1.28,0.55,1.74c0.37,0.47,0.91,0.88,1.63,1.25c0.71,0.37,1.61,0.71,2.7,1.02c1.08,0.311,2.34,0.65,3.77,1.04     c1.97,0.54,3.75,1.13,5.34,1.771c1.59,0.64,2.93,1.43,4.03,2.38C368.5,403.99,369.35,405.14,369.95,406.49z" id="XMLID_764_" style="fill:#3F4751;"/><polygon id="XMLID_763_" points="368.5,268.5 368.5,308.5 328.5,308.5    " style="fill:#19AB5C;"/><polygon id="XMLID_762_" points="368.5,268.5 328.5,308.5 328.5,268.5    " style="fill:#07CC66;"/><polygon id="XMLID_761_" points="333.93,382.29 319.25,409.45 319.25,423.5 309.79,423.5 309.79,409.34      295.34,382.29 305.67,382.29 314.55,401.21 323.54,382.29    " style="fill:#3F4751;"/><polygon id="XMLID_760_" points="328.5,268.5 328.5,308.5 288.5,308.5    " style="fill:#19AB5C;"/><polygon id="XMLID_759_" points="328.5,268.5 288.5,308.5 288.5,268.5    " style="fill:#07CC66;"/><path d="M280.94,382.29l15.04,41.21h-9.76l-3.19-9.23h-12.82l-3.14,9.23h-9.75     l15.03-41.21H280.94z M281.46,407.71l-4.81-14.56l-4.94,14.56H281.46z" id="XMLID_4257_" style="fill:#3F4751;"/><polygon id="XMLID_756_" points="288.5,268.5 288.5,308.5 248.5,308.5    " style="fill:#19AB5C;"/><polygon id="XMLID_755_" points="288.5,268.5 248.5,308.5 248.5,268.5    " style="fill:#07CC66;"/><circle cx="266" cy="31" id="XMLID_754_" r="7.5" style="fill:#5CBEFF;"/><path d="M251.6,394.86c0.87,2.489,1.31,5.149,1.31,7.979c0,3.13-0.48,5.97-1.45,8.5     c-0.97,2.54-2.35,4.7-4.15,6.5c-1.8,1.8-3.97,3.19-6.5,4.18c-2.54,0.99-5.35,1.48-8.45,1.48h-15.38v-41.21h15.38     c3.41,0,6.39,0.54,8.94,1.63c2.56,1.08,4.69,2.55,6.42,4.41C249.44,390.19,250.73,392.36,251.6,394.86z M243.22,402.84     c0-1.82-0.24-3.47-0.73-4.96c-0.48-1.49-1.19-2.78-2.12-3.86c-0.93-1.09-2.07-1.92-3.42-2.5c-1.36-0.579-2.88-0.869-4.59-0.869     h-5.86v24.489h5.86c1.74,0,3.29-0.309,4.65-0.93c1.35-0.62,2.48-1.479,3.39-2.58c0.91-1.1,1.61-2.399,2.09-3.89     C242.98,406.25,243.22,404.62,243.22,402.84z" id="XMLID_4240_" style="fill:#3F4751;"/><polygon id="XMLID_751_" points="248.5,268.5 248.5,308.5 208.5,308.5    " style="fill:#19AB5C;"/><polygon id="XMLID_750_" points="248.5,268.5 208.5,308.5 208.5,268.5    " style="fill:#07CC66;"/><rect height="40" id="XMLID_749_" style="fill:#BCE4FF;" width="40" x="168.5" y="268.5"/><path d="M189.24,414.56v8.36h-5.11v7.95h-9.28v-7.95h-15.96v-8.3l18.92-24.26h6.32     v24.199H189.24z M175.95,414.56v-10.27l-7.89,10.27H175.95z" id="XMLID_4195_" style="fill:#3F4751;"/><path d="M152.39,415.14v8.36h-25.08v-8.36h8.25v-14.8c-0.35,0.47-0.89,0.94-1.63,1.42     c-0.73,0.49-1.56,0.931-2.47,1.34c-0.91,0.4-1.83,0.73-2.78,0.99c-0.95,0.25-1.79,0.37-2.53,0.37v-8.59     c0.62,0,1.43-0.21,2.41-0.64c0.99-0.421,1.97-0.931,2.93-1.53c0.97-0.601,1.84-1.21,2.61-1.83c0.78-0.62,1.26-1.12,1.46-1.51     h9.46v24.779H152.39z" id="XMLID_746_" style="fill:#3F4751;"/><circle cx="146" cy="51" id="XMLID_745_" r="7.5" style="fill:#5CBEFF;"/><circle cx="36" cy="126" id="XMLID_744_" r="7.5" style="fill:#5CBEFF;"/><polygon id="XMLID_743_" points="153.5,108.5 213.5,108.5 273.5,108.5 333.5,108.5 393.5,108.5      423.5,108.5 423.5,163.5 73.5,163.5 73.5,108.5 93.5,108.5    " style="fill:#FFD400;"/><path d="M363.5,73.5c-12.718,0-23.871,6.821-30,16.994     c-6.129-10.173-17.282-16.994-30-16.994s-23.871,6.821-30,16.994c-6.129-10.173-17.282-16.994-30-16.994s-23.871,6.821-30,16.994     c-6.129-10.173-17.282-16.994-30-16.994s-23.871,6.821-30,16.994c-6.129-10.173-17.282-16.994-30-16.994     c-19.299,0-35,15.701-35,35h5h5c0-13.785,11.215-25,25-25s25,11.215,25,25s-11.215,25-25,25c-2.761,0-5,2.239-5,5s2.239,5,5,5     c19.299,0,35-15.701,35-35c0-13.785,11.215-25,25-25s25,11.215,25,25s-11.215,25-25,25c-2.761,0-5,2.239-5,5s2.239,5,5,5     c19.299,0,35-15.701,35-35c0-13.785,11.215-25,25-25c13.785,0,25,11.215,25,25s-11.215,25-25,25c-2.761,0-5,2.239-5,5     s2.239,5,5,5c19.299,0,35-15.701,35-35c0-13.785,11.215-25,25-25s25,11.215,25,25s-11.215,25-25,25c-2.761,0-5,2.239-5,5     s2.239,5,5,5c19.299,0,35-15.701,35-35c0-13.785,11.215-25,25-25s25,11.215,25,25s-11.215,25-25,25c-2.761,0-5,2.239-5,5     s2.239,5,5,5c19.299,0,35-15.701,35-35S382.799,73.5,363.5,73.5z" id="XMLID_742_" style="fill:#33383F;"/></g></g></g><g id="Layer_1"/></svg>