<?xml version="1.0" ?><svg viewBox="0 0 64 64" xmlns="http://www.w3.org/2000/svg"><g id="flat"><path d="M53,55H11a58.459,58.459,0,0,0,3-18.487V32A18,18,0,0,1,32,14h0A18,18,0,0,1,50,32v4.513A58.459,58.459,0,0,0,53,55Z" style="fill:#fdb62f"/><path d="M50,36.513V32A17.957,17.957,0,0,0,28,14.461,18,18,0,0,1,42,32v4.513A58.459,58.459,0,0,0,45,55h8A58.459,58.459,0,0,1,50,36.513Z" style="fill:#fdab26"/><path d="M22.911,22.715l-1.4-1.43A15.342,15.342,0,0,1,23.427,19.7l1.146,1.639A13.235,13.235,0,0,0,22.911,22.715Z" style="fill:#ffce80"/><path d="M19.033,31.071l-2-.142a14.909,14.909,0,0,1,3.176-8.2l1.572,1.239A12.911,12.911,0,0,0,19.033,31.071Z" style="fill:#ffce80"/><path d="M43.425,3.772,36,6H28L20.575,3.772A2,2,0,0,0,18,5.688v8.624a2,2,0,0,0,2.575,1.916L28,14h8l7.425,2.228A2,2,0,0,0,46,14.312V5.688A2,2,0,0,0,43.425,3.772Z" style="fill:#d13e37"/><rect height="10" rx="2" ry="2" style="fill:#dd4a43" width="8" x="28" y="5"/><rect height="2" style="fill:#b3352f" width="5" x="23" y="9"/><rect height="2" style="fill:#b3352f" width="5" x="36" y="9"/><path d="M32.03,14.485,30.03,6a1,1,0,0,1,.728-1.213h0a1,1,0,0,1,1.212.728l2,8.485a1,1,0,0,1-.728,1.213h0A1,1,0,0,1,32.03,14.485Z" style="fill:#d13e37"/><path d="M27,55H37a0,0,0,0,1,0,0v1a5,5,0,0,1-5,5h0a5,5,0,0,1-5-5V55A0,0,0,0,1,27,55Z" style="fill:#fd9a30"/><path d="M12.857,48c-.134.669-.284,1.335-.442,2h39.17c-.158-.665-.308-1.331-.442-2Z" style="fill:#fd9a30"/><path d="M50.37,43H13.63c-.074.668-.163,1.335-.26,2H50.63C50.533,44.335,50.444,43.668,50.37,43Z" style="fill:#fd9a30"/></g></svg>