<?xml version="1.0" encoding="UTF-8" standalone="no"?>
<!-- Created with Inkscape (http://www.inkscape.org/) -->

<svg
   width="64pt"
   height="64pt"
   viewBox="0 0 22.577778 22.577778"
   version="1.1"
   id="svg831"
   inkscape:version="1.1.2 (0a00cf5339, 2022-02-04)"
   sodipodi:docname="23 - Bathroom.svg"
   inkscape:export-filename="/media/taufikramadhan/Data/Tr Design Studio/Project Design/TR Creative Design/Icon Design/Project Hiring/Icon Icons/024 - Real Estate And Building/5 - Send/3 - Bathroom.png"
   inkscape:export-xdpi="576"
   inkscape:export-ydpi="576"
   xmlns:inkscape="http://www.inkscape.org/namespaces/inkscape"
   xmlns:sodipodi="http://sodipodi.sourceforge.net/DTD/sodipodi-0.dtd"
   xmlns="http://www.w3.org/2000/svg"
   xmlns:svg="http://www.w3.org/2000/svg"
   xmlns:rdf="http://www.w3.org/1999/02/22-rdf-syntax-ns#"
   xmlns:cc="http://creativecommons.org/ns#"
   xmlns:dc="http://purl.org/dc/elements/1.1/">
  <defs
     id="defs825">
    <pattern
       id="EMFhbasepattern"
       patternUnits="userSpaceOnUse"
       width="6"
       height="6"
       x="0"
       y="0" />
    <pattern
       id="EMFhbasepattern-9"
       patternUnits="userSpaceOnUse"
       width="6"
       height="6"
       x="0"
       y="0" />
    <pattern
       id="EMFhbasepattern-0"
       patternUnits="userSpaceOnUse"
       width="6"
       height="6"
       x="0"
       y="0" />
    <pattern
       id="EMFhbasepattern-7"
       patternUnits="userSpaceOnUse"
       width="6"
       height="6"
       x="0"
       y="0" />
    <pattern
       id="EMFhbasepattern-2"
       patternUnits="userSpaceOnUse"
       width="6"
       height="6"
       x="0"
       y="0" />
    <pattern
       id="EMFhbasepattern-98"
       patternUnits="userSpaceOnUse"
       width="6"
       height="6"
       x="0"
       y="0" />
    <pattern
       id="EMFhbasepattern-6"
       patternUnits="userSpaceOnUse"
       width="6"
       height="6"
       x="0"
       y="0" />
    <pattern
       id="EMFhbasepattern-01"
       patternUnits="userSpaceOnUse"
       width="6"
       height="6"
       x="0"
       y="0" />
    <pattern
       id="EMFhbasepattern-07"
       patternUnits="userSpaceOnUse"
       width="6"
       height="6"
       x="0"
       y="0" />
    <pattern
       id="EMFhbasepattern-8"
       patternUnits="userSpaceOnUse"
       width="6"
       height="6"
       x="0"
       y="0" />
    <pattern
       id="EMFhbasepattern-4"
       patternUnits="userSpaceOnUse"
       width="6"
       height="6"
       x="0"
       y="0" />
    <pattern
       id="EMFhbasepattern-40"
       patternUnits="userSpaceOnUse"
       width="6"
       height="6"
       x="0"
       y="0" />
    <pattern
       id="EMFhbasepattern-08"
       patternUnits="userSpaceOnUse"
       width="6"
       height="6"
       x="0"
       y="0" />
    <pattern
       id="EMFhbasepattern-04"
       patternUnits="userSpaceOnUse"
       width="6"
       height="6"
       x="0"
       y="0" />
    <pattern
       id="EMFhbasepattern-014"
       patternUnits="userSpaceOnUse"
       width="6"
       height="6"
       x="0"
       y="0" />
    <pattern
       id="EMFhbasepattern-27"
       patternUnits="userSpaceOnUse"
       width="6"
       height="6"
       x="0"
       y="0" />
    <pattern
       id="EMFhbasepattern-09"
       patternUnits="userSpaceOnUse"
       width="6"
       height="6"
       x="0"
       y="0" />
    <pattern
       id="EMFhbasepattern-5"
       patternUnits="userSpaceOnUse"
       width="6"
       height="6"
       x="0"
       y="0" />
    <pattern
       id="EMFhbasepattern-018"
       patternUnits="userSpaceOnUse"
       width="6"
       height="6"
       x="0"
       y="0" />
  </defs>
  <sodipodi:namedview
     id="base"
     pagecolor="#ffffff"
     bordercolor="#666666"
     borderopacity="1.0"
     inkscape:pageopacity="0.0"
     inkscape:pageshadow="2"
     inkscape:zoom="3.0256409"
     inkscape:cx="42.635595"
     inkscape:cy="42.800849"
     inkscape:document-units="pt"
     inkscape:current-layer="layer1"
     showgrid="false"
     units="pt"
     inkscape:window-width="996"
     inkscape:window-height="713"
     inkscape:window-x="362"
     inkscape:window-y="26"
     inkscape:window-maximized="0"
     inkscape:pagecheckerboard="true"
     inkscape:showpageshadow="false"
     inkscape:object-paths="true"
     inkscape:snap-intersection-paths="true"
     inkscape:snap-smooth-nodes="true"
     inkscape:snap-midpoints="true"
     showguides="true"
     inkscape:snap-bbox="true"
     inkscape:bbox-nodes="true"
     inkscape:snap-nodes="false"
     inkscape:snap-global="true"
     inkscape:snap-others="false">
    <inkscape:grid
       type="xygrid"
       id="grid1378" />
    <sodipodi:guide
       position="0.97013831,21.607643"
       orientation="78.000048,0"
       id="guide1380"
       inkscape:locked="false" />
    <sodipodi:guide
       position="0.97013831,0.97013129"
       orientation="0,78.000005"
       id="guide1382"
       inkscape:locked="false" />
    <sodipodi:guide
       position="21.607639,0.97013129"
       orientation="-78.000048,0"
       id="guide1384"
       inkscape:locked="false" />
    <sodipodi:guide
       position="21.607639,21.607643"
       orientation="0,-78.000005"
       id="guide1386"
       inkscape:locked="false" />
  </sodipodi:namedview>
  <metadata
     id="metadata828">
    <rdf:RDF>
      <cc:Work
         rdf:about="">
        <dc:format>image/svg+xml</dc:format>
        <dc:type
           rdf:resource="http://purl.org/dc/dcmitype/StillImage" />
      </cc:Work>
    </rdf:RDF>
  </metadata>
  <g
     inkscape:label="Icon"
     inkscape:groupmode="layer"
     id="layer1"
     transform="translate(0,-274.42223)">
    <g
       id="g1351"
       style="display:inline;stroke-width:0.796152"
       transform="matrix(1.2560423,0,0,1.2560423,-75.986982,-153.32487)">
      <g
         id="g230569"
         style="display:inline;stroke-width:0.796152">
        <path
           style="color:#000000;fill:#e2f0fa;stroke-width:3.00908;stroke-linecap:round;stroke-linejoin:round;stroke-miterlimit:1.5;-inkscape-stroke:none"
           d="m 262.58789,254.57227 c -1.18269,-0.003 -2.3426,0.41515 -3.26172,1.20117 -0.59382,0.50743 -1.05361,1.13829 -1.35351,1.83594 -1.5048,0.18255 -2.86318,1.04183 -3.66602,2.35742 -0.93539,1.53282 -0.98078,3.45619 -0.11133,5.02734 a 1.0001006,1.0001006 0 0 0 0.73828,0.50977 l 8.50391,1.1582 a 1.0000006,1.0000006 0 0 0 1.12891,-0.85547 1.0000006,1.0000006 0 0 0 0.008,-0.15625 v -0.0176 a 1.0000006,1.0000006 0 0 0 0,-0.002 l -0.0449,-9.94531 c -0.002,-0.45854 -0.31461,-0.85689 -0.75977,-0.9668 -0.39124,-0.0968 -0.78741,-0.14542 -1.18164,-0.14648 z"
           transform="matrix(0.26458334,0,0,0.26458334,0,280.06666)"
           id="path13879" />
        <path
           style="color:#000000;fill:#4895ef;fill-opacity:1;stroke-width:0.796152;stroke-linecap:round;stroke-linejoin:round;stroke-miterlimit:1.5;-inkscape-stroke:none"
           d="m 67.682529,349.80664 c -0.21178,-0.0361 -0.426191,0.0186 -0.582031,0.14844 -0.155841,0.12978 -0.248047,0.33259 -0.248047,0.54883 v 0.88671 c 0,1.89649 1.542959,3.43946 3.439453,3.43946 h 3.96875 c 1.896493,0 3.439453,-1.54297 3.439453,-3.43946 v -0.88671 c 0,-0.21632 -0.09207,-0.41911 -0.248047,-0.54883 -0.15598,-0.12972 -0.368218,-0.1845 -0.580078,-0.14844 l -7.091797,0.28711 c -0.874421,-0.0917 -1.628372,-0.20721 -2.097656,-0.28711 z"
           id="path10328" />
        <path
           style="color:#000000;fill:#fda35d;stroke-width:3.00908;stroke-linecap:round;stroke-linejoin:round;stroke-miterlimit:1.5;-inkscape-stroke:none"
           d="m 266.46289,245.58008 a 1.0001006,1.0001006 0 0 0 -0.59766,0.28711 l -2.99609,2.99804 a 1.0001006,1.0001006 0 0 0 -0.29492,0.70899 v 23.00195 a 1.0000006,1.0000006 0 0 0 0.99609,0.9961 1.0000006,1.0000006 0 0 0 0.54102,-0.16407 l 0.006,0.008 c 0.12536,-0.0767 1.57546,-0.83985 2.45703,-0.83985 0.44683,0 1.05412,0.16505 1.54297,0.36914 0.24442,0.10205 0.46305,0.21026 0.62109,0.29492 0.15802,0.0847 0.3024,0.18787 0.23633,0.14063 l 0.006,-0.008 a 1.0000006,1.0000006 0 0 0 0.5918,0.19922 1.0000006,1.0000006 0 0 0 1.0039,-0.9961 v -23.00195 a 1.0001006,1.0001006 0 0 0 -0.29492,-0.70899 l -2.99805,-2.99804 a 1.0001006,1.0001006 0 0 0 -0.82031,-0.28711 z"
           transform="matrix(0.26458334,0,0,0.26458334,0,280.06666)"
           id="path10354" />
        <path
           style="color:#000000;fill:#fda35d;stroke-width:3.00908;stroke-linecap:round;stroke-linejoin:round;stroke-miterlimit:1.5;-inkscape-stroke:none"
           d="m 278.46289,245.58398 a 1.0001006,1.0001006 0 0 0 -0.59375,0.28321 l -3.00391,2.99804 a 1.0001006,1.0001006 0 0 0 -0.29492,0.70899 v 23.00195 a 1.0000006,1.0000006 0 0 0 1.00391,0.9961 1.0000006,1.0000006 0 0 0 0.52734,-0.16016 l 0.004,0.004 c 0.0465,-0.0302 1.55471,-0.83985 2.46484,-0.83985 0.88193,0 2.33258,0.76255 2.45899,0.83985 l 0.006,-0.008 a 1.0000006,1.0000006 0 0 0 0.53906,0.16407 1.0000006,1.0000006 0 0 0 0.99805,-0.9961 v -23.00195 a 1.0001006,1.0001006 0 0 0 -0.28907,-0.70899 l -3.0039,-2.99804 a 1.0001006,1.0001006 0 0 0 -0.81641,-0.28321 z"
           transform="matrix(0.26458334,0,0,0.26458334,0,280.06666)"
           id="path10366" />
        <path
           style="color:#000000;fill:#fd8c35;stroke-width:3.00908;stroke-linecap:round;stroke-linejoin:round;stroke-miterlimit:1.5;-inkscape-stroke:none"
           d="m 272.46094,245.58398 a 1.0001006,1.0001006 0 0 0 -0.59375,0.28321 l -3.00391,2.99804 a 1.0001006,1.0001006 0 0 0 -0.28711,0.70899 v 23.00195 a 1.0000006,1.0000006 0 0 0 0.9961,0.9961 1.0000006,1.0000006 0 0 0 0.53515,-0.16211 l 0.004,0.006 c 0.0904,-0.0556 1.56994,-0.83985 2.46484,-0.83985 0.90582,0 2.40925,0.80538 2.46485,0.83985 l 0.002,-0.002 a 1.0000006,1.0000006 0 0 0 0.53125,0.15821 1.0000006,1.0000006 0 0 0 0.99609,-0.9961 v -23.00195 a 1.0001006,1.0001006 0 0 0 -0.28906,-0.70899 l -3.00391,-2.99804 a 1.0001006,1.0001006 0 0 0 -0.8164,-0.28321 z"
           transform="matrix(0.26458334,0,0,0.26458334,0,280.06666)"
           id="path10378" />
        <path
           style="color:#000000;fill:#fd8c35;stroke-width:3.00908;stroke-linecap:round;stroke-linejoin:round;stroke-miterlimit:1.5;-inkscape-stroke:none"
           d="m 284.45898,245.57227 a 1.0001006,1.0001006 0 0 0 -0.5957,0.28711 l -2.99805,3.00585 a 1.0001006,1.0001006 0 0 0 -0.29492,0.70899 v 22.99414 a 1.0000006,1.0000006 0 0 0 1.00391,1.00391 1.0000006,1.0000006 0 0 0 0.53711,-0.16016 l 0.002,0.004 c 0.11683,-0.0714 1.57295,-0.83985 2.45899,-0.83985 0.94281,0 2.46484,0.83985 2.46484,0.83985 l 0.0137,-0.0195 a 1.0000006,1.0000006 0 0 0 0.52539,0.15235 1.0000006,1.0000006 0 0 0 0.9961,-0.9961 v -22.97851 a 1.0001006,1.0001006 0 0 0 -0.29493,-0.70899 l -2.99609,-3.00585 a 1.0001006,1.0001006 0 0 0 -0.82227,-0.28711 z"
           transform="matrix(0.26458334,0,0,0.26458334,0,280.06666)"
           id="path10390" />
        <path
           style="color:#000000;fill:#8ed1f7;fill-opacity:1;stroke-width:0.796152;stroke-linecap:round;stroke-linejoin:round;stroke-miterlimit:1.5;-inkscape-stroke:none"
           d="m 63.652344,344.51172 h 0.529297 c 1.026011,0 1.851564,0.82555 1.851562,1.85156 v 2.38281 h -4.234375 v -2.38281 c -10e-7,-1.02601 0.827505,-1.85156 1.853516,-1.85156 z"
           id="path10546" />
        <path
           style="color:#000000;fill:#e2f0fa;stroke-width:0.796152;stroke-linecap:round;stroke-linejoin:round;stroke-miterlimit:1.5;-inkscape-stroke:none"
           d="m 62.990234,351.39062 a 0.26460996,0.26460996 0 0 0 -0.263672,0.27735 c 0,0 0.03075,0.65059 -0.01758,1.35937 -0.02416,0.3544 -0.06816,0.72185 -0.142578,1.01953 -0.07442,0.29769 -0.193466,0.51572 -0.271484,0.57813 a 0.26460996,0.26460996 0 0 0 0.166015,0.4707 h 2.910157 a 0.26460996,0.26460996 0 0 0 0.166015,-0.4707 c -0.07802,-0.0624 -0.197063,-0.28044 -0.271484,-0.57813 -0.07442,-0.29768 -0.118415,-0.66513 -0.142578,-1.01953 -0.04833,-0.70878 -0.01758,-1.35937 -0.01758,-1.35937 a 0.26460996,0.26460996 0 0 0 -0.263672,-0.27735 z"
           id="path10434" />
        <path
           style="color:#000000;fill:#e2f0fa;stroke-width:0.796152;stroke-linecap:round;stroke-linejoin:round;stroke-miterlimit:1.5;-inkscape-stroke:none"
           d="m 61.535156,349.80273 a 0.26460996,0.26460996 0 0 0 -0.265625,0.26563 v 0.26367 c -2e-6,0.87362 0.714272,1.58789 1.587891,1.58789 h 2.117187 c 0.873619,0 1.587893,-0.71427 1.587891,-1.58789 v -0.26367 a 0.26460996,0.26460996 0 0 0 -0.265625,-0.26563 z"
           id="path10428" />
      </g>
      <path
         id="path1678"
         style="color:#000000;fill:#000000;stroke-width:3.00908;stroke-linecap:round;stroke-linejoin:round;stroke-miterlimit:1.5;-inkscape-stroke:none"
         d="m 240.57617,241.57227 c -4.95872,0 -9.00587,4.03934 -9.00586,8.99804 v 10.00196 c -0.002,0.55532 0.44859,1.00602 1.00391,1.0039 h 17.99609 c 0.55532,0.002 1.00602,-0.44858 1.00391,-1.0039 v -10.00196 c 1e-5,-4.9587 -4.03933,-8.99804 -8.99805,-8.99804 z m 13,0 c -0.55533,-0.002 -1.00607,0.44857 -1.0039,1.0039 v 2 c 0.002,0.55229 0.45161,0.99826 1.0039,0.9961 0.54924,-0.002 0.99396,-0.44686 0.9961,-0.9961 h 10.99804 v 1.58594 l -2.70117,2.70312 c -0.23858,0.23954 -0.33998,0.58341 -0.26953,0.91407 h -0.0254 v 4.79297 c -1.17796,6e-5 -2.33243,0.41816 -3.24805,1.20117 -0.59281,0.50656 -1.05081,1.13825 -1.34961,1.83594 -1.54481,0.18357 -2.92847,1.0832 -3.72265,2.44531 -0.69573,1.19326 -0.85946,2.60682 -0.48633,3.90429 -0.0897,0.057 -0.17603,0.11741 -0.25781,0.18555 -0.58901,0.49051 -0.9375,1.25693 -0.9375,2.07422 v 3.35156 c 0,4.16395 1.96873,7.877 5.02343,10.25781 l -0.69922,1.7461 h -0.32421 c -0.5496,0.002 -0.9942,0.44651 -0.9961,0.99609 -0.002,0.55246 0.44362,1.00202 0.9961,1.00391 h 1.0039 c 0.40651,-0.002 0.7704,-0.24972 0.92188,-0.62695 l 0.79687,-1.99415 c 1.86164,1.03057 4.00113,1.61719 6.27539,1.61719 h 15 c 2.28121,0 4.42735,-0.59052 6.29297,-1.62695 l 0.80078,2.00391 c 0.15284,0.38006 0.522,0.62849 0.93164,0.62695 h 0.9961 c 0.55534,0.002 1.00608,-0.44857 1.0039,-1.00391 -0.002,-0.55228 -0.45162,-0.99825 -1.0039,-0.99609 h -0.31836 l -0.70508,-1.76172 c 3.04275,-2.38144 5.00195,-6.08777 5.00195,-10.24219 v -3.35156 c 0,-0.81759 -0.34798,-1.58394 -0.9375,-2.07422 -0.58953,-0.49028 -1.39067,-0.69684 -2.1914,-0.56055 -0.54748,0.0919 -0.91622,0.61142 -0.82032,1.15821 0.0956,0.54107 0.6106,0.90415 1.15235,0.8125 0.28815,-0.0491 0.45983,0.0222 0.58203,0.125 0.12219,0.10167 0.21484,0.25189 0.21484,0.53906 v 3.35156 c 0,3.7735 -1.88826,7.09611 -4.77343,9.07617 -0.007,0.005 -0.0144,0.0103 -0.0215,0.0156 -1.76462,1.20476 -3.90118,1.9082 -6.20508,1.9082 h -15 c -6.08696,0 -10.99804,-4.91303 -10.99804,-11 v -3.35156 c 0,-0.28724 0.091,-0.43754 0.21289,-0.53906 0.12192,-0.10167 0.29679,-0.17376 0.58398,-0.125 1.65093,0.28095 4.21005,0.68153 7.20508,1.01758 v 6.0039 h 0.002 c -1.3e-4,0.18788 0.0527,0.37199 0.15235,0.53125 0.29592,0.46678 0.91438,0.60499 1.38086,0.3086 0,0 1.52202,-0.83985 2.46484,-0.83985 0.94281,0 2.4668,0.83985 2.4668,0.83985 0.33275,0.21011 0.75779,0.20553 1.08593,-0.0117 0.12116,-0.0657 1.54658,-0.82813 2.44922,-0.82813 0.94281,0 2.46485,0.83985 2.46485,0.83985 0.32534,0.20453 0.73911,0.20453 1.06445,0 0,0 1.52203,-0.83985 2.46484,-0.83985 0.94281,0 2.46485,0.83985 2.46485,0.83985 0.32667,0.20556 0.74247,0.20478 1.06836,-0.002 l 0.002,0.002 c 0,0 1.52398,-0.83985 2.4668,-0.83985 0.94281,0 2.46484,0.83985 2.46484,0.83985 0.1558,0.0989 0.34084,0.15703 0.53906,0.15625 0.54959,-0.002 0.9942,-0.44652 0.9961,-0.9961 V 249.7793 h -0.0215 c 0.0694,-0.33133 -0.0335,-0.67531 -0.27344,-0.91407 l -2.70117,-2.70312 v -1.58594 h 2 c 0.002,0.54924 0.44686,0.99396 0.9961,0.9961 0.55,-0.001 0.9959,-0.4461 0.99804,-0.9961 v -2 c 0.002,-0.55304 -0.44499,-1.00282 -0.99804,-1.0039 -0.55229,0.002 -0.99826,0.45161 -0.9961,1.0039 h -33.0039 c 0.002,-0.55229 -0.44381,-1.00175 -0.9961,-1.0039 z m -13,2 h 2 c 3.87784,0 6.99806,3.12021 6.99805,6.99804 v 9.00586 h -16.00391 v -9.00586 c 0,-3.87783 3.12803,-6.99804 7.00586,-6.99804 z m 26.9961,1.0039 h 4 v 1.58594 l -2,1.99414 -2,-2 z m 6,0 h 4.00195 v 1.58594 l -2.00195,1.99609 -2,-1.99609 z m 6.00195,0 h 4.00195 v 1.57813 l -2.00195,2.00195 -2,-1.99414 z m -36.99805,2.9961 c -0.26616,4e-5 -0.52132,0.10618 -0.70898,0.29492 l -4,4.00195 c -0.38783,0.39006 -0.38783,1.0201 0,1.41016 0.39006,0.38782 1.02009,0.38782 1.41015,0 l 4,-4.00196 c 0.38782,-0.39006 0.38782,-1.02009 0,-1.41015 -0.18575,-0.18683 -0.43772,-0.29282 -0.70117,-0.29492 z m -5.05078,0.002 c -0.24955,0.0115 -0.48575,0.11604 -0.66211,0.29297 l -0.99805,0.99804 c -0.39173,0.39073 -0.39173,1.02529 0,1.41602 0.39095,0.39303 1.02702,0.39303 1.41797,0 l 0.9961,-1.00391 c 0.38782,-0.39006 0.38782,-1.02009 0,-1.41015 -0.19883,-0.19947 -0.47256,-0.30584 -0.75391,-0.29297 z m 35.05073,0.41211 1.99414,2 v 20.9707 c -0.57498,-0.21069 -1.26633,-0.38281 -1.99414,-0.38281 -0.72954,0 -1.42285,0.17339 -2,0.38476 v -16.38867 c -0.002,-0.55249 -0.45143,-0.99828 -1.0039,-0.99609 -0.5496,0.002 -0.9942,0.44651 -0.9961,0.99609 v 16.39063 c -0.5766,-0.21206 -1.27068,-0.38672 -2.00195,-0.38672 -0.72954,0 -1.42285,0.17339 -2,0.38476 v -20.97265 l 2.00005,-2 2.28906,2.29492 c 0.39095,0.39303 1.02702,0.39303 1.41797,0 z m 5.99419,0 2,2 v 17.58398 c -0.002,0.55537 0.44855,1.0061 1.00391,1.00391 0.55247,-0.002 1.00022,-0.45145 0.99805,-1.00391 v -17.57812 l 2,-2.00586 2,2 v 20.97265 c -0.57715,-0.21137 -1.27046,-0.38476 -2,-0.38476 -1.23269,0 -2.36572,0.49315 -3.00196,0.83398 -0.63626,-0.34082 -1.76739,-0.83398 -3,-0.83398 -0.73027,0 -1.42386,0.1731 -2,0.38476 v -20.96679 z m -32,6.58398 c -0.26345,0.002 -0.51542,0.10809 -0.70117,0.29492 l -1.00391,0.99805 c -0.39173,0.39073 -0.39173,1.02529 0,1.41602 0.39073,0.39173 1.02529,0.39173 1.41602,0 l 0.99805,-0.9961 c 0.39303,-0.39095 0.39303,-1.02702 0,-1.41797 -0.18766,-0.18874 -0.44283,-0.29488 -0.70899,-0.29492 z m 16.00391,9.98633 c -2.83081,-0.32223 -5.24381,-0.69789 -6.82617,-0.9668 -0.29741,-0.82838 -0.21735,-1.75669 0.23437,-2.53125 0.36437,-0.62492 0.93248,-1.08321 1.59375,-1.31445 0.003,0.0864 0.008,0.17308 0.0156,0.25977 0.0486,0.55052 0.5335,0.95741 1.08398,0.9082 0.55052,-0.0488 0.95741,-0.53545 0.9082,-1.08594 -0.0831,-0.96521 0.3045,-1.90188 1.04102,-2.53125 0.55085,-0.47071 1.24215,-0.72291 1.94922,-0.72265 z m -30,-0.98633 c -0.55532,-0.002 -1.00603,0.44859 -1.00391,1.00391 v 0.99609 c 0,3.14447 2.44796,5.74381 5.53321,5.98438 -0.0294,2.80189 0.0136,5.40612 -0.63277,8.05469 -0.22324,0.89301 -0.55228,1.59471 -0.82617,1.96484 h -1.07031 c -0.55229,-0.002 -1.00175,0.4438 -1.00391,0.99609 -0.002,0.55534 0.44857,1.00609 1.00391,1.00391 h 13.99609 c 0.55534,0.002 1.00609,-0.44857 1.00391,-1.00391 -0.002,-0.55229 -0.45162,-0.99825 -1.00391,-0.99609 h -1.07226 c -0.27359,-0.37066 -0.60138,-1.07345 -0.82422,-1.96484 -0.57278,-2.72856 -0.68201,-5.22644 -0.63276,-8.05469 3.08524,-0.24057 5.53321,-2.83991 5.5332,-5.98438 v -0.99609 c 0.002,-0.55532 -0.44859,-1.00603 -1.00391,-1.00391 z m 0.99609,2 h 16.00391 c 1e-5,2.221 -1.77901,4.00004 -4,4 h -8.00195 c -2.22099,0 -4.00196,-1.779 -4.00196,-4 z m 10.47071,6.00196 c 0.0108,2.95565 0.0187,5.77348 0.69135,8.52539 0.1298,0.51919 0.27511,1.01656 0.46289,1.47656 h -7.24609 c 0.18778,-0.46 0.33309,-0.95737 0.46289,-1.47656 0.62339,-2.89107 0.74876,-5.54945 0.69141,-8.52539 z m 22.5332,5.0039 c -0.55229,-0.002 -1.00176,0.44381 -1.00391,0.9961 10e-4,0.55305 0.45086,1.0002 1.00391,0.99804 h 13 c 0.54999,-0.002 0.99502,-0.44804 0.99609,-0.99804 -0.002,-0.54924 -0.44685,-0.99396 -0.99609,-0.9961 z"
         transform="matrix(0.26458334,0,0,0.26458334,0,280.06666)"
         sodipodi:nodetypes="ssccccssssccscccccccccsccssccccccccssccccscccsssccccssccsssscccccccsccsccscccscccccccccccccccsssssccssccccccccccccccccccccccccsccccccccccccscccccscccccccccccccccscscccccccccccccsccccsccccsccccsccsccccsccccccsccccccccccccccc" />
    </g>
  </g>
</svg>
