<?xml version="1.0" encoding="utf-8"?>
<!-- Generator: Adobe Illustrator 19.1.1, SVG Export Plug-In . SVG Version: 6.00 Build 0)  -->
<svg version="1.1" id="Layer_1" xmlns="http://www.w3.org/2000/svg" xmlns:xlink="http://www.w3.org/1999/xlink" x="0px" y="0px"
	 viewBox="0 0 1200 1200" enable-background="new 0 0 1200 1200" xml:space="preserve">
<g>
	<g>
		<g>
			<polyline fill="#DEE4E6" points="826.409,972.046 863.666,1023.292 900.923,1074.538 			"/>
			<path fill="#2E4C59" d="M900.932,1087.843c-2.057,0-4.098-0.475-5.951-1.399c-1.853-0.923-3.517-2.294-4.819-4.084
				l-37.256-51.245L815.65,979.87c-2.161-2.971-2.912-6.537-2.381-9.901c0.531-3.363,2.346-6.523,5.317-8.683
				c2.974-2.161,6.541-2.911,9.904-2.38c3.363,0.532,6.522,2.346,8.68,5.316l37.256,51.248l37.256,51.248
				c2.161,2.97,2.912,6.535,2.381,9.898c-0.531,3.363-2.346,6.524-5.317,8.686c-1.181,0.857-2.456,1.493-3.775,1.914
				S902.289,1087.843,900.932,1087.843z"/>
		</g>
		<g>
			<polyline fill="#DEE4E6" points="362.544,972.046 325.288,1023.292 288.031,1074.538 			"/>
			<path fill="#2E4C59" d="M288.02,1087.843c-1.356,0-2.719-0.207-4.038-0.627s-2.594-1.056-3.775-1.914
				c-2.971-2.162-4.785-5.323-5.317-8.686c-0.531-3.363,0.22-6.928,2.381-9.898l37.257-51.248l37.257-51.248
				c2.162-2.97,5.323-4.784,8.686-5.316c3.363-0.532,6.928,0.219,9.897,2.38c2.971,2.16,4.785,5.321,5.317,8.684
				c0.531,3.363-0.22,6.928-2.381,9.9l-37.257,51.245l-37.257,51.245c-1.302,1.79-2.967,3.161-4.82,4.084
				C292.117,1087.368,290.075,1087.843,288.02,1087.843z"/>
		</g>
	</g>
	<g>
		<g>
			<polyline fill="#DEE4E6" points="336.113,404.605 278.733,341.285 221.352,277.965 			"/>
			<path fill="#2E4C59" d="M336.117,417.908c-1.814,0-3.623-0.368-5.307-1.099c-1.684-0.73-3.243-1.823-4.556-3.272l-57.38-63.32
				l-57.38-63.32c-2.467-2.722-3.597-6.186-3.429-9.586s1.632-6.737,4.354-9.205c2.723-2.467,6.187-3.597,9.587-3.429
				c3.4,0.168,6.736,1.632,9.204,4.354l57.38,63.32l57.38,63.32c2.467,2.722,3.597,6.186,3.429,9.587
				c-0.168,3.401-1.632,6.737-4.354,9.205c-1.273,1.154-2.709,2.015-4.224,2.588C339.306,417.624,337.71,417.908,336.117,417.908z"
				/>
		</g>
		<g>
			<polyline fill="#DEE4E6" points="863.886,404.605 921.267,341.285 978.647,277.965 			"/>
			<path fill="#2E4C59" d="M863.88,417.908c-1.593,0-3.188-0.285-4.704-0.857c-1.515-0.573-2.951-1.434-4.224-2.588
				c-2.722-2.467-4.187-5.804-4.354-9.205c-0.168-3.401,0.962-6.865,3.429-9.587l57.381-63.32l57.381-63.32
				c2.467-2.723,5.804-4.187,9.205-4.354c3.401-0.167,6.865,0.963,9.586,3.429c2.722,2.467,4.187,5.804,4.354,9.205
				c0.168,3.401-0.962,6.865-3.429,9.586l-57.381,63.32l-57.381,63.32c-1.313,1.449-2.873,2.541-4.557,3.272
				C867.502,417.54,865.693,417.908,863.88,417.908z"/>
		</g>
	</g>
	<g>
		<path fill="#ABE1ED" d="M600,260.411c-112.408,0-214.173,45.562-287.837,119.226s-119.226,175.43-119.226,287.837
			c0,112.407,45.562,214.173,119.226,287.837S487.592,1074.538,600,1074.538s214.173-45.562,287.837-119.226
			s119.226-175.43,119.226-287.837c0-112.408-45.562-214.173-119.226-287.837S712.407,260.411,600,260.411z M600,997.586
			c-91.158,0-173.686-36.949-233.424-96.687c-59.738-59.738-96.687-142.266-96.687-233.424c0-91.158,36.949-173.686,96.687-233.424
			S508.842,337.363,600,337.363s173.686,36.949,233.424,96.687s96.688,142.266,96.688,233.424
			c0,91.158-36.949,173.686-96.688,233.424C773.685,960.637,691.157,997.586,600,997.586z"/>
		<path fill="#2E4C59" d="M600,1087.843c-115.895,0-220.987-47.144-297.105-123.262s-123.262-181.21-123.262-297.107
			c0-115.895,47.144-220.987,123.262-297.105S484.105,247.108,600,247.108s220.987,47.144,297.105,123.262
			s123.262,181.209,123.262,297.105c0,115.897-47.144,220.989-123.262,297.107S715.896,1087.843,600,1087.843z M600,273.714
			c-108.56,0-207,44.16-278.3,115.46s-115.46,169.74-115.46,278.3S250.4,874.475,321.7,945.776s169.74,115.461,278.3,115.461
			s207-44.16,278.3-115.461s115.46-169.741,115.46-278.301s-44.16-207-115.46-278.3S708.561,273.714,600,273.714z M600,1010.889
			c-94.68,0-180.534-38.514-242.717-100.697S256.586,762.154,256.586,667.474s38.514-180.534,100.697-242.717
			S505.32,324.059,600,324.059s180.534,38.514,242.717,100.697s100.697,148.037,100.697,242.717s-38.514,180.534-100.697,242.717
			S694.68,1010.889,600,1010.889z M600,350.666c-87.344,0-166.546,35.53-223.912,92.896s-92.896,136.568-92.896,223.912
			s35.53,166.546,92.896,223.912c57.366,57.366,136.568,92.896,223.912,92.896s166.546-35.53,223.912-92.896
			c57.366-57.366,92.896-136.568,92.896-223.912s-35.53-166.546-92.896-223.912S687.344,350.666,600,350.666z"/>
	</g>
	<g opacity="0.2">
		<path fill="#2E4C59" d="M876.329,847.994c-29.476,45.027-69.641,82.425-116.895,108.566
			C712.179,982.701,657.834,997.586,600,997.586c-57.835,0-112.179-14.884-159.434-41.026
			c-47.255-26.141-87.42-63.539-116.895-108.566h-44.262h-44.262c33.271,67.113,84.492,123.749,147.392,163.606
			c62.9,39.858,137.477,62.937,217.461,62.937s154.562-23.079,217.461-62.937c62.9-39.858,114.121-96.494,147.392-163.606h-44.262
			H876.329z"/>
		<path fill="#2E4C59" d="M600,1087.843c-80.434,0-156.743-22.41-221.886-62.857s-119.119-98.932-154.886-171.082
			c-1.022-2.062-1.476-4.315-1.37-6.541c0.106-2.226,0.77-4.426,1.983-6.381c1.213-1.955,2.889-3.528,4.837-4.612
			c1.948-1.084,4.167-1.679,6.468-1.679h44.262h44.262c2.244,0,4.412,0.566,6.327,1.601s3.576,2.54,4.805,4.417
			c29.426,44.95,68.924,80.843,114.466,105.499S546.397,984.282,600,984.282c53.603,0,105.19-13.418,150.732-38.074
			c45.542-24.656,85.04-60.549,114.466-105.499c1.229-1.877,2.89-3.382,4.805-4.417c1.915-1.035,4.083-1.601,6.327-1.601h44.262
			h44.262c2.301,0,4.52,0.595,6.468,1.679c1.948,1.084,3.624,2.656,4.837,4.612c1.213,1.955,1.878,4.155,1.984,6.381
			c0.106,2.226-0.348,4.479-1.37,6.541c-35.768,72.15-89.745,130.635-154.888,171.082S680.432,1087.843,600,1087.843z
			 M257.24,861.298c34.966,61.936,84.803,111.921,143.826,146.421s127.23,53.517,198.934,53.517
			c71.703,0,139.91-19.016,198.932-53.517c59.022-34.5,108.861-84.485,143.828-146.421h-29.665H883.43
			c-32.11,46.905-74.517,84.302-123.122,109.974c-48.605,25.671-103.407,39.617-160.308,39.617
			c-56.901,0-111.703-13.945-160.308-39.617c-48.605-25.671-91.012-63.069-123.122-109.974h-29.665H257.24z"/>
	</g>
	<g>
		<path fill="#DEE4E6" d="M600,313.09c-97.861,0-186.457,39.666-250.588,103.797S245.615,569.614,245.615,667.474
			c0,97.86,39.666,186.457,103.797,250.588S502.139,1021.859,600,1021.859s186.457-39.666,250.588-103.797
			s103.797-152.727,103.797-250.588c0-97.861-39.666-186.457-103.797-250.588S697.86,313.09,600,313.09z"/>
		<path fill="#2E4C59" d="M600,1035.162c-101.372,0-193.294-41.236-259.873-107.815S232.312,768.846,232.312,667.474
			s41.236-193.294,107.815-259.873S498.628,299.786,600,299.786s193.294,41.236,259.873,107.815s107.815,158.501,107.815,259.873
			s-41.236,193.294-107.815,259.873S701.372,1035.162,600,1035.162z M600,326.393c-94.037,0-179.307,38.252-241.068,100.013
			S258.919,573.437,258.919,667.474s38.252,179.307,100.013,241.068S505.963,1008.555,600,1008.555s179.307-38.252,241.068-100.013
			s100.013-147.031,100.013-241.068S902.83,488.167,841.069,426.406S694.037,326.393,600,326.393z"/>
	</g>
	<g>
		<path fill="#FFFFFF" d="M600,972.046c-84.105,0-160.248-34.09-215.365-89.207s-89.207-131.259-89.207-215.365
			c0-84.105,34.09-160.248,89.207-215.365S515.895,362.903,600,362.903s160.248,34.09,215.365,89.207s89.207,131.259,89.207,215.365
			c0,84.105-34.09,160.248-89.207,215.365S684.105,972.046,600,972.046z"/>
		<path fill="#2E4C59" d="M600,985.35c-87.639,0-167.108-35.65-224.667-93.209s-93.209-137.028-93.209-224.667
			s35.65-167.108,93.209-224.667S512.361,349.598,600,349.598s167.108,35.65,224.667,93.209s93.209,137.028,93.209,224.667
			s-35.65,167.108-93.209,224.667S687.639,985.35,600,985.35z M600,376.205c-80.304,0-153.121,32.665-205.862,85.407
			s-85.407,125.559-85.407,205.862s32.665,153.121,85.407,205.862S519.697,958.743,600,958.743s153.121-32.665,205.862-85.407
			s85.407-125.559,85.407-205.862s-32.665-153.121-85.407-205.862S680.304,376.205,600,376.205z"/>
	</g>
	<g>
		<g>
			<g>
				<polyline fill="#DEE4E6" points="857.948,667.474 850.104,667.474 842.26,667.474 				"/>
				<path fill="#2E4C59" d="M857.948,680.778h-7.844h-7.844c-3.674,0-7-1.489-9.407-3.896s-3.896-5.733-3.896-9.407
					s1.489-7,3.896-9.407s5.733-3.896,9.407-3.896h7.844h7.844c3.674,0,7,1.489,9.407,3.896c2.407,2.407,3.896,5.733,3.896,9.407
					s-1.489,7-3.896,9.407C864.948,679.289,861.622,680.778,857.948,680.778z"/>
			</g>
			<g>
				<polyline fill="#DEE4E6" points="357.739,667.474 349.896,667.474 342.052,667.474 				"/>
				<path fill="#2E4C59" d="M357.738,680.778h-7.843h-7.843c-3.674,0-7-1.489-9.407-3.896c-2.407-2.407-3.896-5.733-3.896-9.407
					s1.489-7,3.896-9.407c2.407-2.407,5.733-3.896,9.407-3.896h7.843h7.843c3.674,0,7,1.489,9.407,3.896
					c2.407,2.407,3.896,5.733,3.896,9.407s-1.489,7-3.896,9.407C364.738,679.289,361.412,680.778,357.738,680.778z"/>
			</g>
		</g>
		<g>
			<g>
				<polyline fill="#DEE4E6" points="600,409.526 600,417.37 600,425.214 				"/>
				<path fill="#2E4C59" d="M600,438.518c-3.674,0-7-1.489-9.407-3.896s-3.896-5.733-3.896-9.407v-7.844v-7.844
					c0-3.674,1.489-7,3.896-9.407c2.407-2.407,5.733-3.896,9.407-3.896c3.674,0,7,1.489,9.407,3.896
					c2.407,2.407,3.896,5.733,3.896,9.407v7.844v7.844c0,3.674-1.489,7-3.896,9.407C607,437.029,603.674,438.518,600,438.518z"/>
			</g>
			<g>
				<polyline fill="#DEE4E6" points="600,909.735 600,917.578 600,925.422 				"/>
				<path fill="#2E4C59" d="M600,938.726c-3.674,0-7-1.489-9.407-3.896s-3.896-5.733-3.896-9.407v-7.844v-7.844
					c0-3.674,1.489-7,3.896-9.407c2.407-2.407,5.733-3.896,9.407-3.896c3.674,0,7,1.489,9.407,3.896
					c2.407,2.407,3.896,5.733,3.896,9.407v7.844v7.844c0,3.674-1.489,7-3.896,9.407C607,937.237,603.674,938.726,600,938.726z"/>
			</g>
		</g>
		<g>
			<path fill="#9AA1A7" d="M782.397,863.174c-1.702,0-3.404-0.325-5.006-0.974c-1.602-0.65-3.102-1.624-4.4-2.923l-5.546-5.546
				l-5.546-5.546c-2.598-2.597-3.897-6.001-3.897-9.406c0-3.404,1.299-6.809,3.897-9.406c2.596-2.598,6.001-3.898,9.406-3.898
				s6.81,1.299,9.406,3.898l5.546,5.546l5.546,5.546c2.598,2.597,3.898,6.001,3.898,9.406c0,3.404-1.299,6.809-3.898,9.406
				c-1.298,1.299-2.798,2.273-4.4,2.923S784.099,863.174,782.397,863.174z"/>
			<path fill="#9AA1A7" d="M428.696,509.473c-1.702,0-3.404-0.325-5.006-0.974c-1.602-0.65-3.102-1.624-4.4-2.923l-5.546-5.546
				l-5.546-5.546c-2.598-2.597-3.897-6.001-3.897-9.406s1.299-6.809,3.897-9.406c2.596-2.598,6.001-3.897,9.406-3.897
				s6.81,1.299,9.406,3.897l5.546,5.546l5.546,5.546c2.598,2.597,3.897,6.001,3.897,9.406s-1.299,6.809-3.897,9.406
				c-1.298,1.299-2.798,2.274-4.4,2.923C432.1,509.148,430.397,509.473,428.696,509.473z"/>
		</g>
		<g>
			<path fill="#9AA1A7" d="M771.305,509.473c-1.702,0-3.404-0.325-5.006-0.974c-1.602-0.65-3.102-1.624-4.4-2.923
				c-2.598-2.597-3.897-6.001-3.897-9.406s1.299-6.809,3.897-9.406l5.546-5.546l5.546-5.546c2.596-2.598,6.001-3.897,9.406-3.897
				s6.81,1.299,9.406,3.897c2.598,2.597,3.898,6.001,3.898,9.406s-1.299,6.809-3.898,9.406l-5.546,5.546l-5.546,5.546
				c-1.298,1.299-2.798,2.274-4.4,2.923C774.709,509.148,773.007,509.473,771.305,509.473z"/>
			<path fill="#9AA1A7" d="M417.603,863.174c-1.702,0-3.404-0.325-5.006-0.974s-3.102-1.624-4.4-2.923
				c-2.598-2.597-3.897-6.001-3.897-9.406c0-3.404,1.299-6.809,3.897-9.406l5.546-5.546l5.546-5.546
				c2.596-2.598,6.001-3.898,9.406-3.898s6.81,1.299,9.406,3.898c2.598,2.597,3.897,6.001,3.897,9.406
				c0,3.404-1.299,6.809-3.897,9.406l-5.546,5.546l-5.546,5.546c-1.298,1.299-2.798,2.273-4.4,2.923
				S419.305,863.174,417.603,863.174z"/>
		</g>
		<path fill="#ABE1ED" d="M745.639,686.099h-73.745h-73.745c-3.674,0-7-1.489-9.407-3.896s-3.896-5.733-3.896-9.407V567.939V463.083
			c0-3.674,1.489-7,3.896-9.407c2.407-2.407,5.733-3.896,9.407-3.896c3.674,0,7,1.489,9.407,3.896
			c2.407,2.407,3.896,5.733,3.896,9.407v98.205v98.205h67.094h67.094c3.674,0,7,1.489,9.407,3.896s3.896,5.733,3.896,9.407
			s-1.489,7-3.896,9.407S749.313,686.099,745.639,686.099z"/>
	</g>
	<g>
		<g>
			<g>
				<path fill="#ABE1ED" d="M784.642,203.176c2.693-3.555,5.511-7.045,8.467-10.457c2.956-3.412,6.049-6.745,9.292-9.988
					c38.249-38.249,88.379-57.373,138.51-57.373c50.131,0,100.262,19.124,138.51,57.373s57.373,88.379,57.373,138.51
					s-19.124,100.262-57.373,138.51c-3.242,3.242-6.576,6.336-9.988,9.292s-6.902,5.774-10.457,8.467L921.809,340.343
					L784.642,203.176z"/>
				<path fill="#2E4C59" d="M1058.98,490.814c-1.712,0-3.42-0.329-5.022-0.981c-1.602-0.652-3.098-1.626-4.387-2.916
					L912.404,349.749L775.236,212.581c-2.349-2.349-3.651-5.384-3.865-8.495s0.66-6.295,2.665-8.943
					c2.962-3.912,6.038-7.703,9.205-11.348c3.167-3.645,6.426-7.143,9.755-10.471c40.783-40.781,94.352-61.17,147.92-61.169
					c53.568,0.001,107.134,20.391,147.912,61.169c40.782,40.781,61.173,94.348,61.173,147.916s-20.391,107.135-61.173,147.916
					c-3.322,3.322-6.818,6.578-10.463,9.745c-3.644,3.167-7.437,6.245-11.353,9.213c-1.194,0.906-2.498,1.58-3.855,2.029
					C1061.799,490.592,1060.389,490.814,1058.98,490.814z M802.492,202.211l128.723,128.725l128.723,128.725
					c1.764-1.512,3.488-3.047,5.169-4.6c1.681-1.553,3.318-3.126,4.908-4.715c35.593-35.594,53.39-82.349,53.39-129.104
					s-17.797-93.51-53.39-129.104c-35.596-35.593-82.351-53.388-129.106-53.388c-46.755,0.001-93.509,17.797-129.102,53.388
					c-1.59,1.591-3.164,3.229-4.718,4.909C805.536,198.727,804.002,200.45,802.492,202.211z"/>
			</g>
			<g>
				<path fill="#EAEEEF" d="M1105.422,482.675l1.722-1.722l1.722-1.722c5.676-5.676,8.514-13.158,8.514-20.641
					s-2.838-14.965-8.514-20.641L966.534,295.619L824.202,153.287c-5.676-5.676-13.159-8.514-20.641-8.514
					c-7.482,0-14.965,2.838-20.641,8.514l-1.722,1.722l-1.722,1.722c-5.676,5.676-8.514,13.158-8.514,20.641
					c0,7.482,2.838,14.965,8.514,20.641l142.332,142.332l142.332,142.332c5.676,5.676,13.158,8.514,20.641,8.514
					S1099.746,488.351,1105.422,482.675z"/>
				<path fill="#2E4C59" d="M1084.781,503.497c-5.753,0-11.505-1.095-16.913-3.284c-5.409-2.189-10.474-5.474-14.854-9.853
					L912.404,349.749L771.793,209.138c-4.231-4.229-7.512-9.164-9.734-14.546c-2.223-5.381-3.387-11.209-3.387-17.221
					s1.165-11.84,3.387-17.222c2.223-5.382,5.503-10.318,9.734-14.548c8.756-8.759,20.261-13.138,31.766-13.138
					s23.011,4.379,31.77,13.135l140.611,140.612l140.611,140.612c8.758,8.759,13.136,20.264,13.137,31.768
					c0,11.505-4.378,23.009-13.134,31.768l-0.001,0.001l-0.001,0.001c-4.379,4.378-9.446,7.662-14.856,9.851
					C1096.286,502.402,1090.533,503.497,1084.781,503.497z M803.56,159.058c-2.345,0-4.691,0.446-6.897,1.339
					c-2.206,0.893-4.272,2.231-6.059,4.016c-1.717,1.719-3.049,3.729-3.951,5.924c-0.902,2.195-1.375,4.575-1.375,7.034
					s0.473,4.839,1.375,7.033c0.902,2.194,2.234,4.202,3.951,5.92l140.611,140.612l140.611,140.612
					c3.574,3.571,8.267,5.356,12.958,5.355s9.383-1.786,12.955-5.355c3.57-3.573,5.355-8.265,5.355-12.957
					c0-4.692-1.786-9.384-5.357-12.956L957.127,305.024L816.518,164.414c-1.786-1.785-3.853-3.124-6.059-4.016
					S805.907,159.058,803.56,159.058z"/>
			</g>
		</g>
		<g>
			<g>
				<path fill="#ABE1ED" d="M415.358,203.176c-2.693-3.555-5.511-7.045-8.467-10.457s-6.049-6.745-9.292-9.988
					c-38.249-38.249-88.379-57.373-138.51-57.373s-100.262,19.124-138.51,57.373s-57.373,88.379-57.373,138.51
					s19.124,100.262,57.373,138.51c3.242,3.242,6.576,6.336,9.988,9.292c3.412,2.956,6.902,5.774,10.457,8.467L278.19,340.343
					L415.358,203.176z"/>
				<path fill="#2E4C59" d="M141.02,490.814c-1.408,0-2.819-0.222-4.176-0.671c-1.357-0.449-2.661-1.123-3.856-2.029
					c-3.922-2.971-7.718-6.051-11.363-9.219s-7.138-6.421-10.455-9.739C70.39,428.377,50,374.809,50,321.242
					s20.391-107.135,61.173-147.916c40.781-40.778,94.348-61.168,147.916-61.169c53.568-0.001,107.135,20.388,147.916,61.169
					c3.322,3.322,6.578,6.818,9.745,10.462c3.167,3.644,6.245,7.437,9.213,11.353c2.006,2.648,2.882,5.833,2.668,8.944
					c-0.213,3.111-1.516,6.147-3.866,8.496L287.596,349.749L150.429,486.917c-1.289,1.29-2.785,2.264-4.387,2.916
					S142.732,490.814,141.02,490.814z M259.088,138.747c-23.377,0-46.754,4.45-68.736,13.348
					c-21.982,8.899-42.569,22.246-60.366,40.042c-35.593,35.594-53.39,82.349-53.39,129.104s17.797,93.51,53.39,129.104
					c1.588,1.588,3.224,3.16,4.905,4.713s3.406,3.088,5.172,4.602l128.723-128.723l128.723-128.723
					c-1.512-1.764-3.047-3.488-4.6-5.169s-3.126-3.317-4.715-4.908c-17.797-17.796-38.384-31.143-60.367-40.042
					C305.844,143.197,282.466,138.747,259.088,138.747z"/>
			</g>
			<g>
				<path fill="#EAEEEF" d="M94.577,482.675l-1.722-1.722l-1.722-1.722c-5.676-5.676-8.514-13.158-8.514-20.641
					c0-7.482,2.838-14.965,8.514-20.641l142.332-142.332l142.332-142.332c5.676-5.676,13.158-8.514,20.641-8.514
					c7.482,0,14.965,2.838,20.641,8.514l1.722,1.722l1.722,1.722c5.676,5.676,8.514,13.158,8.514,20.641
					c0,7.482-2.838,14.965-8.514,20.641L278.19,340.343L135.858,482.675c-5.676,5.676-13.158,8.514-20.641,8.514
					S100.253,488.351,94.577,482.675z"/>
				<path fill="#2E4C59" d="M115.216,503.497c-5.753,0-11.505-1.095-16.913-3.284c-5.409-2.189-10.474-5.473-14.854-9.851
					l-0.001-0.001l-0.001-0.001c-8.756-8.759-13.135-20.264-13.135-31.768c0-11.505,4.378-23.009,13.135-31.768l140.612-140.611
					L364.67,145.602c8.756-8.759,20.261-13.138,31.766-13.138c11.505,0,23.011,4.379,31.77,13.135
					c8.759,8.76,13.138,20.266,13.138,31.772s-4.379,23.01-13.138,31.768L287.596,349.749L146.986,490.36
					c-4.379,4.379-9.446,7.664-14.855,9.853C126.722,502.402,120.969,503.497,115.216,503.497z M102.261,471.548
					c3.571,3.569,8.263,5.355,12.955,5.356c4.692,0.001,9.384-1.784,12.958-5.358l140.611-140.609l140.611-140.609
					c3.571-3.571,5.357-8.263,5.357-12.956c0-4.692-1.787-9.385-5.359-12.957c-3.57-3.57-8.261-5.355-12.953-5.355
					c-4.692,0-9.384,1.785-12.957,5.355L242.872,305.024L102.261,445.635c-3.57,3.571-5.355,8.263-5.355,12.956
					C96.906,463.283,98.691,467.975,102.261,471.548z"/>
			</g>
		</g>
	</g>
	<g>
		<polyline fill="#DEE4E6" points="656.061,172.182 600,172.182 543.938,172.182 		"/>
		<path fill="#2E4C59" d="M656.062,185.486H600h-56.061c-3.674,0-7-1.489-9.407-3.896c-2.407-2.407-3.896-5.733-3.896-9.407
			s1.489-7,3.896-9.407s5.733-3.896,9.407-3.896H600h56.061c3.674,0,7,1.489,9.407,3.896s3.896,5.733,3.896,9.407
			s-1.489,7-3.896,9.407C663.061,183.997,659.736,185.486,656.062,185.486z"/>
	</g>
	<g>
		<polyline fill="#DEE4E6" points="600,172.182 600,216.296 600,260.411 		"/>
		<path fill="#2E4C59" d="M600,273.714c-3.674,0-7-1.489-9.407-3.896c-2.407-2.407-3.896-5.733-3.896-9.407v-44.114v-44.114
			c0-3.674,1.489-7,3.896-9.407s5.733-3.896,9.407-3.896c3.674,0,7,1.489,9.407,3.896c2.407,2.407,3.896,5.733,3.896,9.407v44.114
			v44.114c0,3.674-1.489,7-3.896,9.407C607,272.226,603.674,273.714,600,273.714z"/>
	</g>
</g>
</svg>
