<?xml version="1.0" ?><!DOCTYPE svg  PUBLIC '-//W3C//DTD SVG 1.1//EN'  'http://www.w3.org/Graphics/SVG/1.1/DTD/svg11.dtd'><svg enable-background="new 0 0 128 128" id="Слой_1" version="1.1" viewBox="0 0 128 128" xml:space="preserve" xmlns="http://www.w3.org/2000/svg" xmlns:xlink="http://www.w3.org/1999/xlink"><g><g><path d="M46.1,14.4L44.7,13c-1.6-1.6-3.8-2.5-6.1-2.5h-26c-4.8,0-8.6,3.9-8.6,8.6l0,89.7c0,4.8,3.9,8.6,8.6,8.6    h102.7c4.8,0,8.6-3.9,8.6-8.6V25.5c0-4.8-3.9-8.6-8.6-8.6H52.2C49.9,16.9,47.7,16,46.1,14.4z" fill="#F9E373"/></g><g><path d="M115.4,118.7H12.6c-5.4,0-9.9-4.4-9.9-9.9V19.1c0-5.4,4.4-9.9,9.9-9.9h26c2.6,0,5.1,1,7,2.9l1.3,1.3    c1.4,1.4,3.2,2.2,5.2,2.2h63.2c5.4,0,9.9,4.4,9.9,9.9v83.3C125.2,114.3,120.8,118.7,115.4,118.7z M12.6,11.8    c-4.1,0-7.4,3.3-7.4,7.4v89.7c0,4.1,3.3,7.4,7.4,7.4h102.7c4.1,0,7.4-3.3,7.4-7.4V25.5c0-4.1-3.3-7.4-7.4-7.4H52.2    c-2.6,0-5.1-1-7-2.9l-1.3-1.3c-1.4-1.4-3.2-2.2-5.2-2.2H12.6z" fill="#502D4B"/></g><g><path d="M22,89.3c-6.2,0-11.3-5-11.3-11.3V36c0-6.2,5-11.3,11.3-11.3h84c6.2,0,11.3,5,11.3,11.3v42.1    c0,6.2-5,11.3-11.3,11.3H22z" fill="#FFFFFF"/></g><path d="M22,89.3c-6.2,0-11.3-5-11.3-11.3V36c0-6.2,5-11.3,11.3-11.3h84c6.2,0,11.3,5,11.3,11.3v42.1   c0,6.2-5,11.3-11.3,11.3H22z" fill="#502D4B" opacity="0.2"/><g><path d="M106,90.6H22c-6.9,0-12.5-5.6-12.5-12.5V36c0-6.9,5.6-12.5,12.5-12.5h84c6.9,0,12.5,5.6,12.5,12.5v42.1    C118.5,85,112.9,90.6,106,90.6z M22,26c-5.5,0-10,4.5-10,10v42.1c0,5.5,4.5,10,10,10h84c5.5,0,10-4.5,10-10V36c0-5.5-4.5-10-10-10    H22z" fill="#502D4B"/></g><g><path d="M22,96.1c-6.2,0-11.3-5-11.3-11.3V42.8c0-6.2,5-11.3,11.3-11.3h84c6.2,0,11.3,5,11.3,11.3v42.1    c0,6.2-5,11.3-11.3,11.3H22z" fill="#FFFFFF"/></g><g><path d="M106,97.3H22c-6.9,0-12.5-5.6-12.5-12.5V42.8c0-6.9,5.6-12.5,12.5-12.5h84c6.9,0,12.5,5.6,12.5,12.5v42.1    C118.5,91.7,112.9,97.3,106,97.3z M22,32.8c-5.5,0-10,4.5-10,10v42.1c0,5.5,4.5,10,10,10h84c5.5,0,10-4.5,10-10V42.8    c0-5.5-4.5-10-10-10H22z" fill="#502D4B"/></g><g><path d="M4,50.7v58.2c0,4.8,3.9,8.6,8.6,8.6h102.7c4.8,0,8.6-3.9,8.6-8.6V48c0-4.8-3.9-8.6-8.6-8.6H15.3    C9,39.4,4,44.4,4,50.7z" fill="#F9E373"/></g><g><circle cx="64" cy="78.5" fill="#FFFFFF" r="27.5"/></g><g><path d="M64,107.2c-15.9,0-28.8-12.9-28.8-28.8S48.1,49.8,64,49.8s28.8,12.9,28.8,28.8S79.9,107.2,64,107.2z     M64,52.2c-14.5,0-26.2,11.8-26.2,26.2s11.8,26.2,26.2,26.2S90.2,93,90.2,78.5S78.5,52.2,64,52.2z" fill="#502D4B"/></g><g><path d="M83.2,72.1H71.5c-0.4,0-0.8-0.4-0.8-0.8V59.6c0-0.4-0.4-0.8-0.8-0.8H58.1c-0.4,0-0.8,0.4-0.8,0.8v11.7    c0,0.4-0.4,0.8-0.8,0.8H44.8c-0.4,0-0.8,0.4-0.8,0.8v11.7c0,0.4,0.4,0.8,0.8,0.8h11.7c0.4,0,0.8,0.4,0.8,0.8V98    c0,0.4,0.4,0.8,0.8,0.8h11.7c0.4,0,0.8-0.4,0.8-0.8V86.3c0-0.4,0.4-0.8,0.8-0.8h11.7c0.4,0,0.8-0.4,0.8-0.8V72.9    C84,72.5,83.6,72.1,83.2,72.1z" fill="#E074A3"/></g><g><path d="M69.9,100H58.1c-1.1,0-2-0.9-2-2.1V86.7H44.8c-1.1,0-2-0.9-2-2V72.9c0-1.1,0.9-2.1,2-2.1h11.3V59.6    c0-1.1,0.9-2,2-2h11.7c1.1,0,2,0.9,2,2v11.3h11.3c1.1,0,2,0.9,2,2.1v11.7c0,1.1-0.9,2-2,2H71.9V98C71.9,99.1,71,100,69.9,100z     M58.6,97.5h10.8V86.3c0-1.1,0.9-2.1,2.1-2.1h11.3V73.4H71.5c-1.1,0-2.1-0.9-2.1-2V60H58.6v11.3c0,1.1-0.9,2-2.1,2H45.2v10.8h11.3    c1.1,0,2.1,0.9,2.1,2.1V97.5z" fill="#502D4B"/></g><g><path d="M115.4,118.7H12.6c-5.4,0-9.9-4.4-9.9-9.9V50.7c0-6.9,5.6-12.5,12.5-12.5h100.1c5.4,0,9.9,4.4,9.9,9.9    v60.8C125.2,114.3,120.8,118.7,115.4,118.7z M15.3,40.7c-5.5,0-10,4.5-10,10v58.2c0,4.1,3.3,7.4,7.4,7.4h102.7    c4.1,0,7.4-3.3,7.4-7.4V48c0-4.1-3.3-7.4-7.4-7.4H15.3z" fill="#502D4B"/></g></g></svg>