<?xml version="1.0" encoding="UTF-8" standalone="no"?>
<svg
   xmlns:dc="http://purl.org/dc/elements/1.1/"
   xmlns:cc="http://creativecommons.org/ns#"
   xmlns:rdf="http://www.w3.org/1999/02/22-rdf-syntax-ns#"
   xmlns:svg="http://www.w3.org/2000/svg"
   xmlns="http://www.w3.org/2000/svg"
   id="svg6131"
   version="1.1"
   viewBox="0 0 41.978336 46.025364"
   height="46.025364mm"
   width="41.978336mm">
  <defs
     id="defs6125">
    <clipPath
       id="clipPath68"
       clipPathUnits="userSpaceOnUse">
      <path
         id="path66"
         d="m 76.863,433.597 -10.934,-5.377 3.399,-8.258 0.392,-0.951 10.294,0.902 -6.141,-1.985 1.273,-3.353 2.159,-5.677 0.424,-0.407 8.784,-8.44 -6.14,3.971 -2.527,-4.695 6.682,-5.776 c 0,0 0.04,0.007 0.119,0.024 v 0 c 0.756,0.152 4.937,0.945 8.819,0.972 v 0 c 1.861,0.017 3.654,-0.143 4.965,-0.637 v 0 l 4.876,21.669 -15.35,17.153 -11.013,0.905 z" />
    </clipPath>
    <linearGradient
       id="linearGradient80"
       spreadMethod="pad"
       gradientTransform="matrix(36.5816,7.6799507,7.6799507,-36.5816,101.80688,382.58735)"
       gradientUnits="userSpaceOnUse"
       y2="0"
       x2="1"
       y1="0"
       x1="0">
      <stop
         id="stop74"
         offset="0"
         style="stop-opacity:1;stop-color:#f68e3d" />
      <stop
         id="stop76"
         offset="0.6461618"
         style="stop-opacity:1;stop-color:#faaf40" />
      <stop
         id="stop78"
         offset="1"
         style="stop-opacity:1;stop-color:#faaf40" />
    </linearGradient>
    <clipPath
       id="clipPath90"
       clipPathUnits="userSpaceOnUse">
      <path
         id="path88"
         d="m 69.856,396.891 2.979,-2.574 c -1.516,-0.248 -3.031,-0.715 -4.477,-1.302 v 0 c -5.647,-2.294 -10.284,-6.417 -10.284,-6.417 v 0 c 1.536,-1.024 3.987,-5.33 5.587,-8.376 v 0 c 0.943,-1.784 1.591,-3.136 1.591,-3.136 v 0 l 15.931,6.275 -1.929,6.066 4.535,-6.108 10.174,-12.463 c 1.569,0.066 2.991,0.272 4.27,0.564 v 0 c 2.766,0.634 4.87,1.693 6.382,2.706 v 0 c 2.072,1.389 3.025,2.69 3.025,2.69 v 0 c -6.094,5.417 -7.448,15.844 -7.448,15.844 v 0 l -1.897,2.709 c -1.43,0.217 -2.867,0.32 -4.257,0.343 v 0 c -5.59,0.109 -10.046,-1.484 -10.046,-1.484 v 0 l -5.287,4.901 -1.4,1.251 z" />
    </clipPath>
    <linearGradient
       id="linearGradient102"
       spreadMethod="pad"
       gradientTransform="matrix(1.1693712,-50.679634,-50.679634,-1.1693712,110.50122,385.76851)"
       gradientUnits="userSpaceOnUse"
       y2="0"
       x2="1"
       y1="0"
       x1="0">
      <stop
         id="stop96"
         offset="0"
         style="stop-opacity:1;stop-color:#1b75bb" />
      <stop
         id="stop98"
         offset="0.18826557"
         style="stop-opacity:1;stop-color:#1b75bb" />
      <stop
         id="stop100"
         offset="1"
         style="stop-opacity:1;stop-color:#0f5184" />
    </linearGradient>
    <clipPath
       id="clipPath112"
       clipPathUnits="userSpaceOnUse">
      <path
         id="path110"
         d="m 74.667,455.585 c -1.541,-0.072 -3.157,-0.38 -4.758,-1.049 v 0 c 0,0 -0.678,-1.581 -0.754,-3.803 v 0 c 0.693,0.559 1.734,1.238 3.19,1.834 v 0 c 0.783,0.317 1.684,0.612 2.717,0.848 v 0 c 2.126,0.49 4.81,0.739 8.149,0.463 v 0 c -1.438,0.631 -3.859,1.494 -6.673,1.685 v 0 c -0.368,0.026 -0.742,0.04 -1.122,0.04 v 0 c -0.248,0 -0.498,-0.006 -0.749,-0.018" />
    </clipPath>
    <linearGradient
       id="linearGradient124"
       spreadMethod="pad"
       gradientTransform="matrix(14.056641,0,0,-14.056641,97.566155,424.98091)"
       gradientUnits="userSpaceOnUse"
       y2="0"
       x2="1"
       y1="0"
       x1="0">
      <stop
         id="stop118"
         offset="0"
         style="stop-opacity:1;stop-color:#0f5184" />
      <stop
         id="stop120"
         offset="0.81173443"
         style="stop-opacity:1;stop-color:#1b75bb" />
      <stop
         id="stop122"
         offset="1"
         style="stop-opacity:1;stop-color:#1b75bb" />
    </linearGradient>
    <clipPath
       id="clipPath134"
       clipPathUnits="userSpaceOnUse">
      <path
         id="path132"
         d="m 74.271,452.497 c -1.135,-0.345 -2.297,-0.78 -3.456,-1.328 v 0 c -0.556,-0.263 -1.114,-0.55 -1.666,-0.867 v 0 c 0,-0.154 0.006,-0.308 0.012,-0.468 v 0 c 0.018,-0.439 0.064,-0.899 0.145,-1.368 v 0 c 0.003,-0.013 0.006,-0.027 0.008,-0.04 v 0 c 0,0 9.735,2.974 15.033,-0.813 v 0 l 0.271,5.571 c 0,0 -0.38,0.222 -1.055,0.534 v 0 c -0.25,0.007 -0.514,0.011 -0.791,0.011 v 0 c -2.203,-10e-4 -5.246,-0.245 -8.501,-1.232" />
    </clipPath>
    <linearGradient
       id="linearGradient146"
       spreadMethod="pad"
       gradientTransform="matrix(15.46875,0,0,-15.46875,97.560295,422.48384)"
       gradientUnits="userSpaceOnUse"
       y2="0"
       x2="1"
       y1="0"
       x1="0">
      <stop
         id="stop140"
         offset="0"
         style="stop-opacity:1;stop-color:#0f5184" />
      <stop
         id="stop142"
         offset="0.81173443"
         style="stop-opacity:1;stop-color:#1b75bb" />
      <stop
         id="stop144"
         offset="1"
         style="stop-opacity:1;stop-color:#1b75bb" />
    </linearGradient>
    <clipPath
       id="clipPath156"
       clipPathUnits="userSpaceOnUse">
      <path
         id="path154"
         d="M 0,500 H 500 V 0 H 0 Z" />
    </clipPath>
    <clipPath
       id="clipPath168"
       clipPathUnits="userSpaceOnUse">
      <path
         id="path166"
         d="m 98.532,368.905 c -1.702,-0.443 -2.899,-0.579 -2.899,-0.579 v 0 l 9.275,-9.275 14.761,-0.966 c 0.376,0.341 0.747,0.904 1.089,1.565 v 0 c 1.124,2.16 1.974,5.371 1.974,5.371 v 0 l -6.421,3.706 -7.934,-2.335 -1.453,6.855 c -2.472,-2.424 -5.953,-3.699 -8.392,-4.342" />
    </clipPath>
    <linearGradient
       id="linearGradient180"
       spreadMethod="pad"
       gradientTransform="matrix(19.249741,19.074026,19.074026,-19.249741,124.63745,323.6938)"
       gradientUnits="userSpaceOnUse"
       y2="0"
       x2="1"
       y1="0"
       x1="0">
      <stop
         id="stop174"
         offset="0"
         style="stop-opacity:1;stop-color:#c2886c" />
      <stop
         id="stop176"
         offset="0.47806175"
         style="stop-opacity:1;stop-color:#deb18a" />
      <stop
         id="stop178"
         offset="1"
         style="stop-opacity:1;stop-color:#deb18a" />
    </linearGradient>
    <clipPath
       id="clipPath190"
       clipPathUnits="userSpaceOnUse">
      <path
         id="path188"
         d="M 0,500 H 500 V 0 H 0 Z" />
    </clipPath>
    <clipPath
       id="clipPath202"
       clipPathUnits="userSpaceOnUse">
      <path
         id="path200"
         d="m 84.715,448.828 1.126,0.45 v 1.426 l -1.05,1.05 z" />
    </clipPath>
    <linearGradient
       id="linearGradient214"
       spreadMethod="pad"
       gradientTransform="matrix(0.1143286,-4.9549112,-4.9549112,-0.1143286,113.60913,425.08833)"
       gradientUnits="userSpaceOnUse"
       y2="0"
       x2="1"
       y1="0"
       x1="0">
      <stop
         id="stop208"
         offset="0"
         style="stop-opacity:1;stop-color:#1b75bb" />
      <stop
         id="stop210"
         offset="0.18826557"
         style="stop-opacity:1;stop-color:#1b75bb" />
      <stop
         id="stop212"
         offset="1"
         style="stop-opacity:1;stop-color:#0f5184" />
    </linearGradient>
    <clipPath
       id="clipPath224"
       clipPathUnits="userSpaceOnUse">
      <path
         id="path222"
         d="m 85.467,451.83 0.9,-0.826 3.827,1.652 0.826,2.926 c 0,0 -3.302,-1.276 -5.553,-3.752" />
    </clipPath>
    <linearGradient
       id="linearGradient236"
       spreadMethod="pad"
       gradientTransform="matrix(0.1747679,-7.5743027,-7.5743027,-0.1747679,116.55932,429.6396)"
       gradientUnits="userSpaceOnUse"
       y2="0"
       x2="1"
       y1="0"
       x1="0">
      <stop
         id="stop230"
         offset="0"
         style="stop-opacity:1;stop-color:#1b75bb" />
      <stop
         id="stop232"
         offset="0.18826557"
         style="stop-opacity:1;stop-color:#1b75bb" />
      <stop
         id="stop234"
         offset="1"
         style="stop-opacity:1;stop-color:#0f5184" />
    </linearGradient>
    <clipPath
       id="clipPath246"
       clipPathUnits="userSpaceOnUse">
      <path
         id="path244"
         d="m 86.142,449.354 c 2.401,-2.102 5.327,-2.627 5.327,-2.627 v 0 c -1.35,2.927 -5.253,3.752 -5.253,3.752 v 0 z" />
    </clipPath>
    <linearGradient
       id="linearGradient258"
       spreadMethod="pad"
       gradientTransform="matrix(0.1514515,-6.5637889,-6.5637889,-0.1514515,117.11303,424.352)"
       gradientUnits="userSpaceOnUse"
       y2="0"
       x2="1"
       y1="0"
       x1="0">
      <stop
         id="stop252"
         offset="0"
         style="stop-opacity:1;stop-color:#1b75bb" />
      <stop
         id="stop254"
         offset="0.18826557"
         style="stop-opacity:1;stop-color:#1b75bb" />
      <stop
         id="stop256"
         offset="1"
         style="stop-opacity:1;stop-color:#0f5184" />
    </linearGradient>
    <clipPath
       id="clipPath268"
       clipPathUnits="userSpaceOnUse">
      <path
         id="path266"
         d="M 0,500 H 500 V 0 H 0 Z" />
    </clipPath>
    <clipPath
       id="clipPath292"
       clipPathUnits="userSpaceOnUse">
      <path
         id="path290"
         d="m 53.555,383.737 -4.696,-21.711 3.359,-0.969 2.069,-0.596 6.471,10.438 -0.731,4.279 3.339,0.835 c -0.281,0.897 -0.764,1.968 -1.333,3.077 v 0 c -1.747,3.407 -4.303,7.15 -4.303,7.15 v 0 z" />
    </clipPath>
    <linearGradient
       id="linearGradient304"
       spreadMethod="pad"
       gradientTransform="matrix(14.506836,0,0,-14.506836,77.270743,345.16353)"
       gradientUnits="userSpaceOnUse"
       y2="0"
       x2="1"
       y1="0"
       x1="0">
      <stop
         id="stop298"
         offset="0"
         style="stop-opacity:1;stop-color:#c2886c" />
      <stop
         id="stop300"
         offset="0.47806175"
         style="stop-opacity:1;stop-color:#deb18a" />
      <stop
         id="stop302"
         offset="1"
         style="stop-opacity:1;stop-color:#deb18a" />
    </linearGradient>
    <clipPath
       id="clipPath314"
       clipPathUnits="userSpaceOnUse">
      <path
         id="path312"
         d="M 0,500 H 500 V 0 H 0 Z" />
    </clipPath>
    <clipPath
       id="clipPath330"
       clipPathUnits="userSpaceOnUse">
      <path
         id="path328"
         d="m 69.582,448.233 0.252,-1.094 0.447,-1.931 1.571,-1.108 -0.699,-1.98 0.992,-3.957 3.063,-4.686 0.021,-0.033 c 7.162,0.933 9.258,8.27 9.258,8.27 v 0 c 0,0 1.748,1.281 2.214,2.562 v 0 c 0.466,1.281 -0.466,3.145 -0.466,3.145 v 0 l -1.921,-1.281 -0.06,0.988 c -1.887,1.351 -4.935,1.731 -7.765,1.731 v 0 c -3.633,0 -6.907,-0.626 -6.907,-0.626" />
    </clipPath>
    <linearGradient
       id="linearGradient342"
       spreadMethod="pad"
       gradientTransform="matrix(17.249023,0,0,-17.249023,97.993395,412.96431)"
       gradientUnits="userSpaceOnUse"
       y2="0"
       x2="1"
       y1="0"
       x1="0">
      <stop
         id="stop336"
         offset="0"
         style="stop-opacity:1;stop-color:#c2886c" />
      <stop
         id="stop338"
         offset="0.47806175"
         style="stop-opacity:1;stop-color:#deb18a" />
      <stop
         id="stop340"
         offset="1"
         style="stop-opacity:1;stop-color:#deb18a" />
    </linearGradient>
    <clipPath
       id="clipPath352"
       clipPathUnits="userSpaceOnUse">
      <path
         id="path350"
         d="M 0,500 H 500 V 0 H 0 Z" />
    </clipPath>
    <clipPath
       id="clipPath368"
       clipPathUnits="userSpaceOnUse">
      <path
         id="path366"
         d="M 76.8628,433.637 H 103.307 V 393.911 H 76.8628 Z" />
    </clipPath>
    <clipPath
       id="clipPath404"
       clipPathUnits="userSpaceOnUse">
      <path
         id="path402"
         d="M 91.1968,393.712 H 107.64 V 372.126 H 91.1968 Z" />
    </clipPath>
    <clipPath
       id="clipPath420"
       clipPathUnits="userSpaceOnUse">
      <path
         id="path418"
         d="m 136.169,363.7 c 0.567,-1.547 1.783,-4.301 3.882,-6.658 v 0 c -0.171,0.136 -2.964,2.234 -4.6,6.622 v 0 c -0.909,-0.119 -1.839,-0.56 -3.179,-1.779 v 0 c 0,0 2.339,-4.545 0.4,-7.086 v 0 l 4.514,-3.201 2.238,-5.756 c 0,0 1.082,-0.721 2.245,-1.145 v 0 l 0.877,-0.247 c 0.821,-0.152 1.556,-0.018 1.825,0.788 v 0 c 0.736,2.208 -0.802,9.561 -0.802,9.561 v 0 c 0,0 -5.883,7.354 -6.084,8.692 v 0 c 0,0 -0.449,0.21 -1.207,0.21 v 0 c -0.036,0 -0.072,0 -0.109,-0.001" />
    </clipPath>
    <linearGradient
       id="linearGradient432"
       spreadMethod="pad"
       gradientTransform="matrix(12.29834,0,0,-12.29834,160.68334,325.86128)"
       gradientUnits="userSpaceOnUse"
       y2="0"
       x2="1"
       y1="0"
       x1="0">
      <stop
         id="stop426"
         offset="0"
         style="stop-opacity:1;stop-color:#0f5184" />
      <stop
         id="stop428"
         offset="0.81173443"
         style="stop-opacity:1;stop-color:#1b75bb" />
      <stop
         id="stop430"
         offset="1"
         style="stop-opacity:1;stop-color:#1b75bb" />
    </linearGradient>
    <clipPath
       id="clipPath442"
       clipPathUnits="userSpaceOnUse">
      <path
         id="path440"
         d="M 0,500 H 500 V 0 H 0 Z" />
    </clipPath>
    <clipPath
       id="clipPath462"
       clipPathUnits="userSpaceOnUse">
      <path
         id="path460"
         d="m 49.669,435.275 0.111,-0.189 3.076,-6.423 c 1.2,0.842 3.858,2.902 7.61,2.77 v 0 l -3.297,5.126 -0.56,0.306 c -0.507,0.123 -1.228,0.234 -2.047,0.234 v 0 c -1.534,0 -3.416,-0.39 -4.893,-1.824" />
    </clipPath>
    <linearGradient
       id="linearGradient474"
       spreadMethod="pad"
       gradientTransform="matrix(10.795898,0,0,-10.795898,78.080802,404.69429)"
       gradientUnits="userSpaceOnUse"
       y2="0"
       x2="1"
       y1="0"
       x1="0">
      <stop
         id="stop468"
         offset="0"
         style="stop-opacity:1;stop-color:#f68e3d" />
      <stop
         id="stop470"
         offset="0.6461618"
         style="stop-opacity:1;stop-color:#faaf40" />
      <stop
         id="stop472"
         offset="1"
         style="stop-opacity:1;stop-color:#faaf40" />
    </linearGradient>
    <clipPath
       id="clipPath484"
       clipPathUnits="userSpaceOnUse">
      <path
         id="path482"
         d="m 53.516,428.163 3.883,-8.111 0.878,-1.832 10.292,1.219 -2.505,7.449 -0.265,-0.063 -3.256,-0.751 -0.903,2.396 -1.099,2.312 c -1.698,-0.198 -4.965,-0.799 -7.025,-2.619" />
    </clipPath>
    <linearGradient
       id="linearGradient496"
       spreadMethod="pad"
       gradientTransform="matrix(15.053711,0,0,-15.053711,81.926993,396.31392)"
       gradientUnits="userSpaceOnUse"
       y2="0"
       x2="1"
       y1="0"
       x1="0">
      <stop
         id="stop490"
         offset="0"
         style="stop-opacity:1;stop-color:#c2886c" />
      <stop
         id="stop492"
         offset="0.47806175"
         style="stop-opacity:1;stop-color:#deb18a" />
      <stop
         id="stop494"
         offset="1"
         style="stop-opacity:1;stop-color:#deb18a" />
    </linearGradient>
    <clipPath
       id="clipPath506"
       clipPathUnits="userSpaceOnUse">
      <path
         id="path504"
         d="M 0,500 H 500 V 0 H 0 Z" />
    </clipPath>
    <clipPath
       id="clipPath534"
       clipPathUnits="userSpaceOnUse">
      <path
         id="path532"
         d="m 31.254,356.175 c 1.124,-5.972 18.797,-11.993 18.797,-11.993 v 0 c 0.203,0.409 0.477,1.07 0.772,1.842 v 0 c -2.554,0.725 -6.541,2.727 -8.179,3.575 v 0 c 2.198,-1.045 6.302,-2.294 8.431,-2.911 v 0 c 0.923,2.48 1.961,5.62 1.961,5.62 v 0 c -5.287,-1.03 -7.931,3.426 -7.931,3.426 v 0 c -8.418,-1.958 -10.915,0.636 -12.481,1.615 v 0 c -0.291,0.182 -0.521,0.256 -0.702,0.256 v 0 c -0.799,-0.001 -0.668,-1.43 -0.668,-1.43" />
    </clipPath>
    <linearGradient
       id="linearGradient546"
       spreadMethod="pad"
       gradientTransform="matrix(21.790039,0,0,-21.790039,59.657463,322.70601)"
       gradientUnits="userSpaceOnUse"
       y2="0"
       x2="1"
       y1="0"
       x1="0">
      <stop
         id="stop540"
         offset="0"
         style="stop-opacity:1;stop-color:#0f5184" />
      <stop
         id="stop542"
         offset="0.81173443"
         style="stop-opacity:1;stop-color:#1b75bb" />
      <stop
         id="stop544"
         offset="1"
         style="stop-opacity:1;stop-color:#1b75bb" />
    </linearGradient>
    <clipPath
       id="clipPath556"
       clipPathUnits="userSpaceOnUse">
      <path
         id="path554"
         d="m 42.602,349.62 c -0.338,0.177 -0.571,0.298 -0.66,0.348 v 0 c 0.19,-0.115 0.415,-0.231 0.66,-0.348" />
    </clipPath>
    <linearGradient
       id="linearGradient568"
       spreadMethod="pad"
       gradientTransform="matrix(0.6606445,0,0,-0.6606445,70.353262,321.60689)"
       gradientUnits="userSpaceOnUse"
       y2="0"
       x2="1"
       y1="0"
       x1="0">
      <stop
         id="stop562"
         offset="0"
         style="stop-opacity:1;stop-color:#0f5184" />
      <stop
         id="stop564"
         offset="0.81173443"
         style="stop-opacity:1;stop-color:#1b75bb" />
      <stop
         id="stop566"
         offset="1"
         style="stop-opacity:1;stop-color:#1b75bb" />
    </linearGradient>
  </defs>
  <metadata
     id="metadata6128">
    <rdf:RDF>
      <cc:Work
         rdf:about="">
        <dc:format>image/svg+xml</dc:format>
        <dc:type
           rdf:resource="http://purl.org/dc/dcmitype/StillImage" />
        <dc:title></dc:title>
      </cc:Work>
    </rdf:RDF>
  </metadata>
  <g
     transform="translate(-56.873926,-89.53494)"
     id="layer1">
    <g
       id="g5840"
       transform="matrix(0.35277777,0,0,-0.35277777,46.851028,255.98006)">
      <g
         id="g38"
         transform="translate(69.1772,437.6357)">
        <path
           d="m 0,0 0.841,6.055 -6.112,5.608 c 0,0 -0.953,-0.897 0.168,-2.131 l -1.682,1.345 c 0,0 -1.121,-0.729 -0.112,-2.13 L -9.028,8.578 c 0,0 0.169,-1.121 1.235,-1.289 0,0 0.56,-6.167 1.85,-8.466 l 1.344,-0.842 c 0,0 3.533,0.897 4.599,2.019"
           style="fill:#c2886c;fill-opacity:1;fill-rule:nonzero;stroke:none"
           id="path40" />
      </g>
      <g
         id="g42"
         transform="translate(68.8516,448.1655)">
        <path
           d="m 0,0 c -1.499,-0.983 -3.031,-1.901 -4.618,-2.741 l -0.402,0.71 c 1.615,1.021 3.213,2.096 4.738,3.248 z"
           style="fill:#231f20;fill-opacity:1;fill-rule:nonzero;stroke:none"
           id="path44" />
      </g>
      <g
         id="g46"
         transform="translate(75.0615,453.4146)">
        <path
           d="m 0,0 c -1.032,-0.236 -1.934,-0.531 -2.717,-0.848 0.424,0.417 0.824,0.851 1.187,1.304 0.157,0.194 0.303,0.389 0.439,0.59 0.14,0.2 0.249,0.392 0.395,0.634 0.097,0.162 0.197,0.327 0.301,0.49 C 0.244,2.203 0.87,2.191 1.477,2.148 1.182,1.725 0.891,1.295 0.604,0.864 0.471,0.659 0.304,0.396 0.133,0.171 0.09,0.114 0.046,0.057 0,0"
           style="fill:#231f20;fill-opacity:1;fill-rule:nonzero;stroke:none"
           id="path48" />
      </g>
      <g
         id="g50"
         transform="translate(69.52,445.2808)">
        <path
           d="m 0,0 c -0.522,-0.1 -1.04,-0.222 -1.552,-0.368 -0.49,-0.143 -0.975,-0.309 -1.441,-0.501 -0.233,-0.098 -0.46,-0.203 -0.68,-0.318 -0.108,-0.059 -0.214,-0.118 -0.317,-0.183 -0.097,-0.057 -0.211,-0.141 -0.268,-0.185 l -0.563,0.586 c 0.141,0.132 0.238,0.205 0.36,0.295 0.116,0.084 0.236,0.163 0.355,0.236 0.238,0.149 0.482,0.281 0.729,0.406 0.495,0.249 1.004,0.45 1.519,0.628 0.53,0.184 1.067,0.344 1.609,0.477 z"
           style="fill:#231f20;fill-opacity:1;fill-rule:nonzero;stroke:none"
           id="path52" />
      </g>
      <g
         id="g54"
         transform="translate(105.3701,456.0391)">
        <path
           d="m 0,0 c -0.625,-2.205 -1.896,-4.155 -3.461,-5.755 -1.574,-1.604 -3.483,-2.841 -5.534,-3.708 -2.05,-0.862 -4.239,-1.368 -6.441,-1.528 -0.755,-0.054 -1.514,-0.068 -2.269,-0.046 l -0.364,1.814 c 0.829,-0.018 1.658,0.009 2.482,0.087 0.235,0.022 0.474,0.046 0.71,0.076 h 0.002 c 0.26,0.033 0.523,0.074 0.78,0.12 h 0.003 c 3.475,0.592 6.755,2.177 9.276,4.561 1.436,1.359 2.603,3.02 3.218,4.864 0.306,0.921 0.463,1.885 0.42,2.842 -0.035,0.953 -0.287,1.887 -0.715,2.738 -0.433,0.847 -1.051,1.603 -1.785,2.242 -0.731,0.639 -1.595,1.16 -2.481,1.579 -1.845,0.848 -3.814,1.322 -5.791,1.309 -1.977,-0.003 -3.924,-0.518 -5.734,-1.357 -1.812,-0.843 -3.494,-2.007 -5.038,-3.345 -1.002,-0.868 -1.945,-1.812 -2.836,-2.809 -0.395,0.197 -1.002,0.412 -1.858,0.49 1.065,1.308 2.224,2.544 3.489,3.684 1.619,1.457 3.435,2.749 5.463,3.676 2.018,0.936 4.275,1.451 6.527,1.402 2.257,-0.04 4.472,-0.664 6.436,-1.635 1.016,-0.496 1.963,-1.097 2.819,-1.856 0.856,-0.75 1.596,-1.66 2.127,-2.695 C -0.016,5.721 0.291,4.57 0.372,3.416 0.453,2.259 0.306,1.1 0,0"
           style="fill:#231f20;fill-opacity:1;fill-rule:nonzero;stroke:none"
           id="path56" />
      </g>
      <g
         id="g58"
         transform="translate(84.7964,440.8921)">
        <path
           d="m 0,0 1.037,-7.576 -6.407,0.384 c 0,0 3.997,1.829 5.37,7.192"
           style="fill:#ce9d77;fill-opacity:1;fill-rule:nonzero;stroke:none"
           id="path60" />
      </g>
      <g
         id="g62">
        <g
           id="g64"
           clip-path="url(#clipPath68)">
          <g
             id="g70">
            <g
               id="g72">
              <path
                 d="m 76.863,433.597 -10.934,-5.377 3.399,-8.258 0.392,-0.951 10.294,0.902 -6.141,-1.985 1.273,-3.353 2.159,-5.677 0.424,-0.407 8.784,-8.44 -6.14,3.971 -2.527,-4.695 6.682,-5.776 c 0,0 0.04,0.007 0.119,0.024 v 0 c 0.756,0.152 4.937,0.945 8.819,0.972 v 0 c 1.861,0.017 3.654,-0.143 4.965,-0.637 v 0 l 4.876,21.669 -15.35,17.153 -11.013,0.905 z"
                 style="fill:url(#linearGradient80);stroke:none"
                 id="path82" />
            </g>
          </g>
        </g>
      </g>
      <g
         id="g84">
        <g
           id="g86"
           clip-path="url(#clipPath90)">
          <g
             id="g92">
            <g
               id="g94">
              <path
                 d="m 69.856,396.891 2.979,-2.574 c -1.516,-0.248 -3.031,-0.715 -4.477,-1.302 v 0 c -5.647,-2.294 -10.284,-6.417 -10.284,-6.417 v 0 c 1.536,-1.024 3.987,-5.33 5.587,-8.376 v 0 c 0.943,-1.784 1.591,-3.136 1.591,-3.136 v 0 l 15.931,6.275 -1.929,6.066 4.535,-6.108 10.174,-12.463 c 1.569,0.066 2.991,0.272 4.27,0.564 v 0 c 2.766,0.634 4.87,1.693 6.382,2.706 v 0 c 2.072,1.389 3.025,2.69 3.025,2.69 v 0 c -6.094,5.417 -7.448,15.844 -7.448,15.844 v 0 l -1.897,2.709 c -1.43,0.217 -2.867,0.32 -4.257,0.343 v 0 c -5.59,0.109 -10.046,-1.484 -10.046,-1.484 v 0 l -5.287,4.901 -1.4,1.251 z"
                 style="fill:url(#linearGradient102);stroke:none"
                 id="path104" />
            </g>
          </g>
        </g>
      </g>
      <g
         id="g106">
        <g
           id="g108"
           clip-path="url(#clipPath112)">
          <g
             id="g114">
            <g
               id="g116">
              <path
                 d="m 74.667,455.585 c -1.541,-0.072 -3.157,-0.38 -4.758,-1.049 v 0 c 0,0 -0.678,-1.581 -0.754,-3.803 v 0 c 0.693,0.559 1.734,1.238 3.19,1.834 v 0 c 0.783,0.317 1.684,0.612 2.717,0.848 v 0 c 2.126,0.49 4.81,0.739 8.149,0.463 v 0 c -1.438,0.631 -3.859,1.494 -6.673,1.685 v 0 c -0.368,0.026 -0.742,0.04 -1.122,0.04 v 0 c -0.248,0 -0.498,-0.006 -0.749,-0.018"
                 style="fill:url(#linearGradient124);stroke:none"
                 id="path126" />
            </g>
          </g>
        </g>
      </g>
      <g
         id="g128">
        <g
           id="g130"
           clip-path="url(#clipPath134)">
          <g
             id="g136">
            <g
               id="g138">
              <path
                 d="m 74.271,452.497 c -1.135,-0.345 -2.297,-0.78 -3.456,-1.328 v 0 c -0.556,-0.263 -1.114,-0.55 -1.666,-0.867 v 0 c 0,-0.154 0.006,-0.308 0.012,-0.468 v 0 c 0.018,-0.439 0.064,-0.899 0.145,-1.368 v 0 c 0.003,-0.013 0.006,-0.027 0.008,-0.04 v 0 c 0,0 9.735,2.974 15.033,-0.813 v 0 l 0.271,5.571 c 0,0 -0.38,0.222 -1.055,0.534 v 0 c -0.25,0.007 -0.514,0.011 -0.791,0.011 v 0 c -2.203,-10e-4 -5.246,-0.245 -8.501,-1.232"
                 style="fill:url(#linearGradient146);stroke:none"
                 id="path148" />
            </g>
          </g>
        </g>
      </g>
      <g
         id="g150">
        <g
           id="g152"
           clip-path="url(#clipPath156)">
          <g
             id="g158"
             transform="translate(75.9951,445.7798)">
            <path
               d="M 0,0 C 0,0 3.025,2.708 3.747,1.76 4.469,0.812 3.747,-2.258 1.806,-2.078 -0.135,-1.897 0,0 0,0"
               style="fill:#ce9d77;fill-opacity:1;fill-rule:nonzero;stroke:none"
               id="path160" />
          </g>
        </g>
      </g>
      <g
         id="g162">
        <g
           id="g164"
           clip-path="url(#clipPath168)">
          <g
             id="g170">
            <g
               id="g172">
              <path
                 d="m 98.532,368.905 c -1.702,-0.443 -2.899,-0.579 -2.899,-0.579 v 0 l 9.275,-9.275 14.761,-0.966 c 0.376,0.341 0.747,0.904 1.089,1.565 v 0 c 1.124,2.16 1.974,5.371 1.974,5.371 v 0 l -6.421,3.706 -7.934,-2.335 -1.453,6.855 c -2.472,-2.424 -5.953,-3.699 -8.392,-4.342"
                 style="fill:url(#linearGradient180);stroke:none"
                 id="path182" />
            </g>
          </g>
        </g>
      </g>
      <g
         id="g184">
        <g
           id="g186"
           clip-path="url(#clipPath190)">
          <g
             id="g192"
             transform="translate(83.8096,454.0513)">
            <path
               d="m 0,0 c -0.105,0.086 -2.385,1.934 -6.86,2.096 -0.609,0.025 -1.26,0.017 -1.95,-0.032 -1.368,-0.098 -2.896,-0.352 -4.583,-0.829 0,0 0.282,0.956 -0.563,0.956 -0.843,0 -1.295,-1.744 -1.295,-1.744 0,0 -1.855,5.29 3.32,4.334 0,0 0.959,-0.114 1.691,-1.127 0,0 1.63,1.268 3.57,1.476 0.647,0.073 1.333,0.024 2.001,-0.23 C -4.187,4.716 -3.713,4.425 -3.263,3.993 -0.427,1.265 -0.021,0.073 0,0"
               style="fill:#7d4921;fill-opacity:1;fill-rule:nonzero;stroke:none"
               id="path194" />
          </g>
        </g>
      </g>
      <g
         id="g196">
        <g
           id="g198"
           clip-path="url(#clipPath202)">
          <g
             id="g204">
            <g
               id="g206">
              <path
                 d="m 84.715,448.828 1.126,0.45 v 1.426 l -1.05,1.05 z"
                 style="fill:url(#linearGradient214);stroke:none"
                 id="path216" />
            </g>
          </g>
        </g>
      </g>
      <g
         id="g218">
        <g
           id="g220"
           clip-path="url(#clipPath224)">
          <g
             id="g226">
            <g
               id="g228">
              <path
                 d="m 85.467,451.83 0.9,-0.826 3.827,1.652 0.826,2.926 c 0,0 -3.302,-1.276 -5.553,-3.752"
                 style="fill:url(#linearGradient236);stroke:none"
                 id="path238" />
            </g>
          </g>
        </g>
      </g>
      <g
         id="g240">
        <g
           id="g242"
           clip-path="url(#clipPath246)">
          <g
             id="g248">
            <g
               id="g250">
              <path
                 d="m 86.142,449.354 c 2.401,-2.102 5.327,-2.627 5.327,-2.627 v 0 c -1.35,2.927 -5.253,3.752 -5.253,3.752 v 0 z"
                 style="fill:url(#linearGradient258);stroke:none"
                 id="path260" />
            </g>
          </g>
        </g>
      </g>
      <g
         id="g262">
        <g
           id="g264"
           clip-path="url(#clipPath268)">
          <g
             id="g270"
             transform="translate(85.0239,441.3105)">
            <path
               d="m 0,0 0.542,-3.183 c 0,0 1.557,-1.151 3.317,1.219 0,0 -0.677,-0.474 -1.557,0.406 0,0 1.084,0 1.557,1.287 0,0 -2.099,-0.745 -2.301,1.963 z"
               style="fill:#7d4921;fill-opacity:1;fill-rule:nonzero;stroke:none"
               id="path272" />
          </g>
          <g
             id="g274"
             transform="translate(132.583,357.021)">
            <path
               d="m 0,0 c -0.259,-1.071 -0.748,-1.661 -0.748,-1.661 l -11.548,2.39 c 0.538,0.492 0.996,1.229 1.378,2.05 1.084,2.337 1.554,5.355 1.554,5.355 L -0.602,4.497 C 0.293,2.597 0.259,1.061 0,0"
               style="fill:#e6e7e8;fill-opacity:1;fill-rule:nonzero;stroke:none"
               id="path276" />
          </g>
          <g
             id="g278"
             transform="translate(84.4355,421.0688)">
            <path
               d="m 0,0 -9.29,-6.494 -1.273,3.352 6.141,1.986 -10.293,-0.902 -0.393,0.951 C -12.467,-0.119 -7.613,0.951 0,0"
               style="fill:#d58019;fill-opacity:1;fill-rule:nonzero;stroke:none"
               id="path280" />
          </g>
          <g
             id="g282"
             transform="translate(87.5205,399.0981)">
            <path
               d="M 0,0 -2.874,-5.523 C -2.952,-5.54 -2.993,-5.547 -2.993,-5.547 l -6.681,5.776 2.527,4.694 6.14,-3.97 -8.784,8.44 C -6.567,7.432 -1.5,3.859 0,0"
               style="fill:#d58019;fill-opacity:1;fill-rule:nonzero;stroke:none"
               id="path284" />
          </g>
        </g>
      </g>
      <g
         id="g286">
        <g
           id="g288"
           clip-path="url(#clipPath292)">
          <g
             id="g294">
            <g
               id="g296">
              <path
                 d="m 53.555,383.737 -4.696,-21.711 3.359,-0.969 2.069,-0.596 6.471,10.438 -0.731,4.279 3.339,0.835 c -0.281,0.897 -0.764,1.968 -1.333,3.077 v 0 c -1.747,3.407 -4.303,7.15 -4.303,7.15 v 0 z"
                 style="fill:url(#linearGradient304);stroke:none"
                 id="path306" />
            </g>
          </g>
        </g>
      </g>
      <g
         id="g308">
        <g
           id="g310"
           clip-path="url(#clipPath314)">
          <g
             id="g316"
             transform="translate(63.6616,378.2227)">
            <path
               d="M 0,0 15.593,9.204 17.521,3.139 1.59,-3.137 c 0,0 -0.648,1.352 -1.59,3.137"
               style="fill:#0c4d7f;fill-opacity:1;fill-rule:nonzero;stroke:none"
               id="path318" />
          </g>
          <g
             id="g320"
             transform="translate(98.2334,369.4199)">
            <path
               d="m 0,0 c -1.279,-0.292 -2.701,-0.499 -4.271,-0.563 l -10.173,12.462 -4.535,6.108 z"
               style="fill:#0c4d7f;fill-opacity:1;fill-rule:nonzero;stroke:none"
               id="path322" />
          </g>
        </g>
      </g>
      <g
         id="g324">
        <g
           id="g326"
           clip-path="url(#clipPath330)">
          <g
             id="g332">
            <g
               id="g334">
              <path
                 d="m 69.582,448.233 0.252,-1.094 0.447,-1.931 1.571,-1.108 -0.699,-1.98 0.992,-3.957 3.063,-4.686 0.021,-0.033 c 7.162,0.933 9.258,8.27 9.258,8.27 v 0 c 0,0 1.748,1.281 2.214,2.562 v 0 c 0.466,1.281 -0.466,3.145 -0.466,3.145 v 0 l -1.921,-1.281 -0.06,0.988 c -1.887,1.351 -4.935,1.731 -7.765,1.731 v 0 c -3.633,0 -6.907,-0.626 -6.907,-0.626"
                 style="fill:url(#linearGradient342);stroke:none"
                 id="path344" />
            </g>
          </g>
        </g>
      </g>
      <g
         clip-path="url(#clipPath352)"
         id="g348">
        <g
           transform="translate(74.1245,438.686)"
           id="g354">
          <path
             id="path356"
             style="fill:#bd886a;fill-opacity:1;fill-rule:nonzero;stroke:none"
             d="m 0,0 1.455,-1.105 c 0,0 -0.376,-2.143 -0.372,-4.104 l -3.062,4.686 -0.993,3.957 0.7,1.98 -1.571,1.108 -0.448,1.931 4.757,-1.525 0.117,-2.679 c 0,0 -1.807,0.35 -1.108,-0.988 C 0.173,1.92 1.048,2.096 2.037,1.92 L 1.514,0.642 C 1.514,0.642 0.466,0.525 0,0" />
        </g>
        <g
           transform="translate(75.9951,445.7798)"
           id="g358">
          <path
             id="path360"
             style="fill:#bd886a;fill-opacity:1;fill-rule:nonzero;stroke:none"
             d="M 0,0 4.416,1.667 3.595,-1.617 0.413,-1.309 Z" />
        </g>
        <g
           id="g362">
          <g
             id="g364" />
          <g
             id="g376">
            <g
               style="opacity:0.32000703"
               id="g374"
               clip-path="url(#clipPath368)">
              <g
                 id="g372"
                 transform="translate(103.3066,415.5796)">
                <path
                   id="path370"
                   style="fill:#f1f1f2;fill-opacity:1;fill-rule:nonzero;stroke:none"
                   d="m 0,0 -4.875,-21.669 c -1.312,0.494 -3.104,0.653 -4.966,0.636 l 5.234,18.559 -13.99,-1.782 12.069,2.88 -9.052,7.955 -0.412,7.955 -10.452,3.483 0.081,0.04 11.013,-0.905 z" />
              </g>
            </g>
          </g>
        </g>
        <g
           transform="translate(120.7578,359.6499)"
           id="g378">
          <path
             id="path380"
             style="fill:#c2886c;fill-opacity:1;fill-rule:nonzero;stroke:none"
             d="m 0,0 c -0.341,-0.66 -0.713,-1.224 -1.089,-1.565 l -14.761,0.967 -9.275,9.274 c 0,0 1.197,0.136 2.899,0.58 l 7.478,-7.254 3.432,0.092 -0.743,-1.297 c 0,0 5.572,0.582 12.059,-0.797" />
        </g>
        <g
           transform="translate(75.5376,446.5347)"
           id="g382">
          <path
             id="path384"
             style="fill:#7d4921;fill-opacity:1;fill-rule:nonzero;stroke:none"
             d="M 0,0 0.458,-0.755 4.874,0.913 Z" />
        </g>
        <g
           transform="translate(74.2104,446.4365)"
           id="g386">
          <path
             id="path388"
             style="fill:#7d4921;fill-opacity:1;fill-rule:nonzero;stroke:none"
             d="M 0,0 0.492,-1.082 -3.737,0.589 Z" />
        </g>
        <g
           transform="translate(81.7607,448.2798)"
           id="g390">
          <path
             id="path392"
             style="fill:#7d4921;fill-opacity:1;fill-rule:nonzero;stroke:none"
             d="m 0,0 c 0,0 0.49,-2.243 2.523,-2.664 l 0.911,0.947 -0.848,1.05 z" />
        </g>
        <g
           transform="translate(60.0269,375.1787)"
           id="g394">
          <path
             id="path396"
             style="fill:#c2886c;fill-opacity:1;fill-rule:nonzero;stroke:none"
             d="m 0,0 0.731,-4.28 -6.471,-10.438 -2.069,0.596 5.913,10.643 -0.997,3.991 4.899,3.4 C 2.576,2.803 3.058,1.731 3.339,0.834 Z" />
        </g>
        <g
           id="g398">
          <g
             id="g400" />
          <g
             id="g412">
            <g
               style="opacity:0.32000703"
               id="g410"
               clip-path="url(#clipPath404)">
              <g
                 id="g408"
                 transform="translate(107.6401,374.8154)">
                <path
                   id="path406"
                   style="fill:#f1f1f2;fill-opacity:1;fill-rule:nonzero;stroke:none"
                   d="m 0,0 c 0,0 -0.954,-1.3 -3.025,-2.689 l -3.126,4.081 -6.574,4.033 5.569,-1.021 -2.259,5.9 -7.028,0.251 4.393,4.519 -1.552,3.823 c 1.39,-0.024 2.827,-0.126 4.257,-0.343 l 1.896,-2.709 C -7.449,15.845 -6.094,5.417 0,0" />
              </g>
            </g>
          </g>
        </g>
      </g>
      <g
         id="g414">
        <g
           id="g416"
           clip-path="url(#clipPath420)">
          <g
             id="g422">
            <g
               id="g424">
              <path
                 d="m 136.169,363.7 c 0.567,-1.547 1.783,-4.301 3.882,-6.658 v 0 c -0.171,0.136 -2.964,2.234 -4.6,6.622 v 0 c -0.909,-0.119 -1.839,-0.56 -3.179,-1.779 v 0 c 0,0 2.339,-4.545 0.4,-7.086 v 0 l 4.514,-3.201 2.238,-5.756 c 0,0 1.082,-0.721 2.245,-1.145 v 0 l 0.877,-0.247 c 0.821,-0.152 1.556,-0.018 1.825,0.788 v 0 c 0.736,2.208 -0.802,9.561 -0.802,9.561 v 0 c 0,0 -5.883,7.354 -6.084,8.692 v 0 c 0,0 -0.449,0.21 -1.207,0.21 v 0 c -0.036,0 -0.072,0 -0.109,-0.001"
                 style="fill:url(#linearGradient432);stroke:none"
                 id="path434" />
            </g>
          </g>
        </g>
      </g>
      <g
         id="g436">
        <g
           id="g438"
           clip-path="url(#clipPath442)">
          <g
             id="g444"
             transform="translate(68.3579,393.0146)">
            <path
               d="M 0,0 C 1.446,0.587 2.96,1.054 4.477,1.302 L 1.499,3.876 8.947,5.365 10.347,4.114 4.613,3.605 10.39,-0.91 Z"
               style="fill:#0c4d7f;fill-opacity:1;fill-rule:nonzero;stroke:none"
               id="path446" />
          </g>
          <g
             id="g448"
             transform="translate(132.583,357.021)">
            <path
               d="m 0,0 c -0.259,-1.071 -0.748,-1.661 -0.748,-1.661 l -11.548,2.39 c 0.538,0.492 0.996,1.229 1.378,2.05 C -8.117,2.513 -3.893,1.815 0,0"
               style="fill:#d0d2d3;fill-opacity:1;fill-rule:nonzero;stroke:none"
               id="path450" />
          </g>
          <g
             id="g452"
             transform="translate(59.0215,440.6333)">
            <path
               d="M 0,0 -0.609,-2.37 -2.44,-3.012 c -2.855,1.409 -5.721,-0.219 -7.081,-1.219 l -1.922,3.283 0.008,0.065 0.398,2.982 7.652,2.709 1.828,-1.355 -0.813,-0.542 0.006,-0.029 0.672,-3.424 z"
               style="fill:#deb18a;fill-opacity:1;fill-rule:nonzero;stroke:none"
               id="path454" />
          </g>
        </g>
      </g>
      <g
         id="g456">
        <g
           id="g458"
           clip-path="url(#clipPath462)">
          <g
             id="g464">
            <g
               id="g466">
              <path
                 d="m 49.669,435.275 0.111,-0.189 3.076,-6.423 c 1.2,0.842 3.858,2.902 7.61,2.77 v 0 l -3.297,5.126 -0.56,0.306 c -0.507,0.123 -1.228,0.234 -2.047,0.234 v 0 c -1.534,0 -3.416,-0.39 -4.893,-1.824"
                 style="fill:url(#linearGradient474);stroke:none"
                 id="path476" />
            </g>
          </g>
        </g>
      </g>
      <g
         id="g478">
        <g
           id="g480"
           clip-path="url(#clipPath484)">
          <g
             id="g486">
            <g
               id="g488">
              <path
                 d="m 53.516,428.163 3.883,-8.111 0.878,-1.832 10.292,1.219 -2.505,7.449 -0.265,-0.063 -3.256,-0.751 -0.903,2.396 -1.099,2.312 c -1.698,-0.198 -4.965,-0.799 -7.025,-2.619"
                 style="fill:url(#linearGradient496);stroke:none"
                 id="path498" />
            </g>
          </g>
        </g>
      </g>
      <g
         id="g500">
        <g
           id="g502"
           clip-path="url(#clipPath506)">
          <g
             id="g508"
             transform="translate(68.5693,419.4385)">
            <path
               d="m 0,0 -10.292,-1.219 -0.878,1.832 8.529,1.127 -0.13,5.646 0.266,0.063 z"
               style="fill:#c2886c;fill-opacity:1;fill-rule:nonzero;stroke:none"
               id="path510" />
          </g>
          <g
             id="g512"
             transform="translate(56.6519,443.5444)">
            <path
               d="m 0,0 0.005,-0.029 -1.508,0.339 -1.642,-1.003 -1.893,0.03 -0.471,-0.975 -1.392,0.167 -1.222,-1.836 -0.942,-0.487 0.398,2.982 7.651,2.709 1.828,-1.355 z"
               style="fill:#c2886c;fill-opacity:1;fill-rule:nonzero;stroke:none"
               id="path514" />
          </g>
          <g
             id="g516"
             transform="translate(57.4854,440.3545)">
            <path
               d="M 0,0 -0.552,3.197 0.229,3.864 5.611,5.934 6.876,2.599 Z"
               style="fill:#ec1c24;fill-opacity:1;fill-rule:nonzero;stroke:none"
               id="path518" />
          </g>
          <g
             id="g520"
             transform="translate(64.2129,434.9907)">
            <path
               d="M 0,0 C 0,0 2.889,0.27 5.688,2.347 L 8.938,-2.348 3.25,-5.146 Z"
               style="fill:#d58019;fill-opacity:1;fill-rule:nonzero;stroke:none"
               id="path522" />
          </g>
          <g
             id="g524"
             transform="translate(54.6587,359.8647)">
            <path
               d="m 0,0 -1.926,-7.392 c 0,0 -1.092,0.03 -2.489,0.423 -1.409,0.392 -3.126,1.157 -4.342,2.622 l 2.235,6.519 4.2,-1.4 z"
               style="fill:#e6e7e8;fill-opacity:1;fill-rule:nonzero;stroke:none"
               id="path526" />
          </g>
        </g>
      </g>
      <g
         id="g528">
        <g
           id="g530"
           clip-path="url(#clipPath534)">
          <g
             id="g536">
            <g
               id="g538">
              <path
                 d="m 31.254,356.175 c 1.124,-5.972 18.797,-11.993 18.797,-11.993 v 0 c 0.203,0.409 0.477,1.07 0.772,1.842 v 0 c -2.554,0.725 -6.541,2.727 -8.179,3.575 v 0 c 2.198,-1.045 6.302,-2.294 8.431,-2.911 v 0 c 0.923,2.48 1.961,5.62 1.961,5.62 v 0 c -5.287,-1.03 -7.931,3.426 -7.931,3.426 v 0 c -8.418,-1.958 -10.915,0.636 -12.481,1.615 v 0 c -0.291,0.182 -0.521,0.256 -0.702,0.256 v 0 c -0.799,-0.001 -0.668,-1.43 -0.668,-1.43"
                 style="fill:url(#linearGradient546);stroke:none"
                 id="path548" />
            </g>
          </g>
        </g>
      </g>
      <g
         id="g550">
        <g
           id="g552"
           clip-path="url(#clipPath556)">
          <g
             id="g558">
            <g
               id="g560">
              <path
                 d="m 42.602,349.62 c -0.338,0.177 -0.571,0.298 -0.66,0.348 v 0 c 0.19,-0.115 0.415,-0.231 0.66,-0.348"
                 style="fill:url(#linearGradient568);stroke:none"
                 id="path570" />
            </g>
          </g>
        </g>
      </g>
      <g
         id="g580"
         transform="translate(54.6587,359.8647)">
        <path
           d="m 0,0 -1.926,-7.392 c 0,0 -1.092,0.03 -2.489,0.423 l 2.093,7.741 z"
           style="fill:#d0d2d3;fill-opacity:1;fill-rule:nonzero;stroke:none"
           id="path582" />
      </g>
      <g
         id="g584"
         transform="translate(67.6592,437.5742)">
        <path
           d="m 0,0 -2.07,1.941 c 0,0 -0.777,5.952 1.812,6.599 L 0.906,8.022 c 0,0 -1.359,-2.264 0.582,-5.046 C 1.488,2.976 1.1,0.647 0,0"
           style="fill:#deb18a;fill-opacity:1;fill-rule:nonzero;stroke:none"
           id="path586" />
      </g>
      <g
         id="g588"
         transform="translate(43.3975,401.2646)">
        <path
           d="m 0,0 c -0.423,-1.939 -2.443,-3.148 -4.517,-2.7 -0.923,0.201 -1.704,0.7 -2.244,1.361 -0.266,0.325 -0.474,0.69 -0.614,1.078 -0.215,0.594 -0.272,1.241 -0.132,1.891 0.358,1.645 1.866,2.763 3.577,2.793 h 0.009 C -3.616,4.428 -3.304,4.397 -2.993,4.33 -2.871,4.304 -2.75,4.271 -2.633,4.234 -0.767,3.652 0.395,1.828 0,0"
           style="fill:#d6de26;fill-opacity:1;fill-rule:nonzero;stroke:none"
           id="path590" />
      </g>
      <g
         id="g592"
         transform="translate(41.6348,400.6714)">
        <path
           d="m 0,0 c -0.096,-0.69 -0.545,-1.241 -1.234,-1.515 -0.316,-0.124 -0.662,-0.187 -1.029,-0.187 -0.846,0 -1.798,0.33 -2.735,0.956 -0.267,0.325 -0.475,0.69 -0.615,1.078 0.098,-0.094 0.203,-0.185 0.316,-0.276 1.388,-1.127 2.842,-1.55 3.892,-1.136 0.526,0.21 0.869,0.627 0.939,1.142 0.117,0.845 -0.462,1.817 -1.584,2.671 -0.806,0.612 -1.12,1.136 -0.959,1.601 0.108,0.309 0.426,0.528 0.842,0.683 h 0.009 L -0.87,4.827 C -1.721,4.72 -2.452,4.511 -2.567,4.18 -2.649,3.944 -2.358,3.553 -1.768,3.104 -0.505,2.148 0.138,1.017 0,0"
           style="fill:#edefa8;fill-opacity:1;fill-rule:nonzero;stroke:none"
           id="path594" />
      </g>
    </g>
  </g>
</svg>
