<?xml version="1.0" encoding="UTF-8" standalone="no"?>
<!-- Created with Inkscape (http://www.inkscape.org/) -->

<svg
   width="64pt"
   height="64pt"
   viewBox="0 0 22.577778 22.577778"
   version="1.1"
   id="svg831"
   inkscape:version="1.1.2 (b8e25be833, 2022-02-05)"
   sodipodi:docname="Export - Unblash - 64px.svg"
   inkscape:export-filename="E:\Icon Design\TR Icon Design Project\Carlos - Icon Design Project\2023\Januari 2023\Done\Filedline\20 - Newton.png"
   inkscape:export-xdpi="576"
   inkscape:export-ydpi="576"
   xmlns:inkscape="http://www.inkscape.org/namespaces/inkscape"
   xmlns:sodipodi="http://sodipodi.sourceforge.net/DTD/sodipodi-0.dtd"
   xmlns="http://www.w3.org/2000/svg"
   xmlns:svg="http://www.w3.org/2000/svg"
   xmlns:rdf="http://www.w3.org/1999/02/22-rdf-syntax-ns#"
   xmlns:cc="http://creativecommons.org/ns#"
   xmlns:dc="http://purl.org/dc/elements/1.1/">
  <defs
     id="defs825">
    <pattern
       id="EMFhbasepattern"
       patternUnits="userSpaceOnUse"
       width="6"
       height="6"
       x="0"
       y="0" />
    <pattern
       id="EMFhbasepattern-9"
       patternUnits="userSpaceOnUse"
       width="6"
       height="6"
       x="0"
       y="0" />
    <pattern
       id="EMFhbasepattern-0"
       patternUnits="userSpaceOnUse"
       width="6"
       height="6"
       x="0"
       y="0" />
    <pattern
       id="EMFhbasepattern-7"
       patternUnits="userSpaceOnUse"
       width="6"
       height="6"
       x="0"
       y="0" />
    <pattern
       id="EMFhbasepattern-2"
       patternUnits="userSpaceOnUse"
       width="6"
       height="6"
       x="0"
       y="0" />
    <pattern
       id="EMFhbasepattern-98"
       patternUnits="userSpaceOnUse"
       width="6"
       height="6"
       x="0"
       y="0" />
    <pattern
       id="EMFhbasepattern-6"
       patternUnits="userSpaceOnUse"
       width="6"
       height="6"
       x="0"
       y="0" />
    <pattern
       id="EMFhbasepattern-01"
       patternUnits="userSpaceOnUse"
       width="6"
       height="6"
       x="0"
       y="0" />
    <pattern
       id="EMFhbasepattern-07"
       patternUnits="userSpaceOnUse"
       width="6"
       height="6"
       x="0"
       y="0" />
    <pattern
       id="EMFhbasepattern-8"
       patternUnits="userSpaceOnUse"
       width="6"
       height="6"
       x="0"
       y="0" />
    <pattern
       id="EMFhbasepattern-4"
       patternUnits="userSpaceOnUse"
       width="6"
       height="6"
       x="0"
       y="0" />
    <pattern
       id="EMFhbasepattern-40"
       patternUnits="userSpaceOnUse"
       width="6"
       height="6"
       x="0"
       y="0" />
    <pattern
       id="EMFhbasepattern-08"
       patternUnits="userSpaceOnUse"
       width="6"
       height="6"
       x="0"
       y="0" />
    <pattern
       id="EMFhbasepattern-04"
       patternUnits="userSpaceOnUse"
       width="6"
       height="6"
       x="0"
       y="0" />
    <pattern
       id="EMFhbasepattern-014"
       patternUnits="userSpaceOnUse"
       width="6"
       height="6"
       x="0"
       y="0" />
    <pattern
       id="EMFhbasepattern-27"
       patternUnits="userSpaceOnUse"
       width="6"
       height="6"
       x="0"
       y="0" />
    <pattern
       id="EMFhbasepattern-09"
       patternUnits="userSpaceOnUse"
       width="6"
       height="6"
       x="0"
       y="0" />
    <pattern
       id="EMFhbasepattern-5"
       patternUnits="userSpaceOnUse"
       width="6"
       height="6"
       x="0"
       y="0" />
    <pattern
       id="EMFhbasepattern-018"
       patternUnits="userSpaceOnUse"
       width="6"
       height="6"
       x="0"
       y="0" />
  </defs>
  <sodipodi:namedview
     id="base"
     pagecolor="#ffffff"
     bordercolor="#666666"
     borderopacity="1.0"
     inkscape:pageopacity="0.0"
     inkscape:pageshadow="2"
     inkscape:zoom="3.7537427"
     inkscape:cx="38.494913"
     inkscape:cy="54.612161"
     inkscape:document-units="pt"
     inkscape:current-layer="layer1"
     showgrid="false"
     units="pt"
     inkscape:window-width="958"
     inkscape:window-height="1041"
     inkscape:window-x="-7"
     inkscape:window-y="0"
     inkscape:window-maximized="0"
     inkscape:pagecheckerboard="true"
     inkscape:showpageshadow="false"
     inkscape:object-paths="true"
     inkscape:snap-intersection-paths="true"
     inkscape:snap-smooth-nodes="true"
     inkscape:snap-midpoints="true"
     showguides="true"
     inkscape:snap-bbox="true"
     inkscape:bbox-nodes="true"
     inkscape:snap-nodes="false"
     inkscape:snap-global="true"
     inkscape:snap-others="false">
    <inkscape:grid
       type="xygrid"
       id="grid1378" />
    <sodipodi:guide
       position="0.97013831,21.607643"
       orientation="78.000048,0"
       id="guide1380"
       inkscape:locked="false" />
    <sodipodi:guide
       position="0.97013831,0.97013129"
       orientation="0,78.000005"
       id="guide1382"
       inkscape:locked="false" />
    <sodipodi:guide
       position="21.607639,0.97013129"
       orientation="-78.000048,0"
       id="guide1384"
       inkscape:locked="false" />
    <sodipodi:guide
       position="21.607639,21.607643"
       orientation="0,-78.000005"
       id="guide1386"
       inkscape:locked="false" />
  </sodipodi:namedview>
  <metadata
     id="metadata828">
    <rdf:RDF>
      <cc:Work
         rdf:about="">
        <dc:format>image/svg+xml</dc:format>
        <dc:type
           rdf:resource="http://purl.org/dc/dcmitype/StillImage" />
      </cc:Work>
    </rdf:RDF>
  </metadata>
  <g
     inkscape:label="Icon"
     inkscape:groupmode="layer"
     id="layer1"
     transform="translate(0,-274.42223)">
    <g
       id="g3487"
       style="display:inline;stroke-width:0.798474"
       transform="matrix(1.2523893,0,0,1.2523893,77.083579,-37.443233)">
      <path
         style="color:#000000;fill:#3a4d5c;stroke-width:0.798474;stroke-linecap:round;stroke-linejoin:round;-inkscape-stroke:none"
         d="m -45.246094,249.79102 c -0.601513,0 -1.03361,0.48227 -1.353515,1.01171 -0.319906,0.52945 -0.548387,1.15297 -0.701172,1.61133 a 0.2645835,0.2645835 0 0 0 0.167969,0.33399 0.2645835,0.2645835 0 0 0 0.333984,-0.16602 c 0.147876,-0.44363 0.370924,-1.04011 0.652344,-1.50586 0.28142,-0.46575 0.599915,-0.75586 0.90039,-0.75586 a 0.2645835,0.2645835 0 0 0 0.265625,-0.26367 0.2645835,0.2645835 0 0 0 -0.265625,-0.26562 z"
         id="path15518" />
      <path
         style="color:#000000;fill:#3a4d5c;stroke-width:0.798474;stroke-linecap:round;stroke-linejoin:round;-inkscape-stroke:none"
         d="m -48.853516,249.79102 a 0.2645835,0.2645835 0 0 0 -0.265625,0.26562 0.2645835,0.2645835 0 0 0 0.265625,0.26367 c 0.300476,0 0.618971,0.29011 0.900391,0.75586 0.28142,0.46575 0.504467,1.06223 0.652344,1.50586 a 0.2645835,0.2645835 0 0 0 0.333984,0.16602 0.2645835,0.2645835 0 0 0 0.167969,-0.33399 c -0.152786,-0.45835 -0.381266,-1.08188 -0.701172,-1.61133 -0.319906,-0.52944 -0.752002,-1.01171 -1.353516,-1.01171 z"
         id="path15831" />
      <path
         style="color:#000000;fill:#4f697d;stroke-width:0.798474;stroke-linecap:round;stroke-linejoin:round;-inkscape-stroke:none"
         d="m -47.349609,252.23242 c -0.309042,0 -0.566403,0.25737 -0.566407,0.56641 v 1.28711 a 0.26460996,0.26460996 0 0 0 0.265625,0.26367 h 1.201172 a 0.26460996,0.26460996 0 0 0 0.265625,-0.26367 v -1.28711 c -3e-6,-0.30904 -0.255412,-0.56641 -0.564453,-0.56641 z"
         id="path1848948" />
      <path
         id="path1968600"
         style="color:#000000;fill:#3a4d5c;fill-opacity:1;stroke-width:3.01786;stroke-linecap:round;stroke-linejoin:round;-inkscape-stroke:none"
         d="m -178.68555,-103.20117 c 1.16803,0 2.1328,0.97455 2.13282,2.14258 v 3.859371 h 0.99609 c 0.55226,0.0021 1.0017,-0.443829 1.00391,-0.996093 v -4.863278 c -2e-5,-1.16803 -0.96479,-2.14258 -2.13282,-2.14258 h -2.27343 c -1.12241,0 -2.06483,0.89926 -2.13672,2.00586 z"
         transform="matrix(0.26458334,0,0,0.26458334,0,280.06666)"
         sodipodi:nodetypes="ccccccsscc" />
      <path
         id="path15310"
         style="color:#000000;fill:#3a4d5c;stroke-width:3.01786;stroke-linecap:round;stroke-linejoin:round;-inkscape-stroke:none"
         d="m -169.24414,-100.80078 -2.25977,3.011718 h -1.77929 c -0.54924,0.0021 -0.99396,0.446853 -0.9961,0.996093 -0.002,0.552289 0.44381,1.001757 0.9961,1.003907 h 2.27343 c 0.31613,0.0018 0.61451,-0.145908 0.80469,-0.398438 l 2.5625,-3.410156 c 0.33314,-0.442024 0.24385,-1.070584 -0.19922,-1.402344 -0.17785,-0.13132 -0.3942,-0.2 -0.68066,-0.18945 -0.32602,0.0422 -0.56181,0.1797 -0.72168,0.38867 z m -4.17774,7.558592 c -0.55304,-0.0022 -1.00282,0.444999 -1.0039,0.998047 -0.002,0.555338 0.44856,1.006077 1.0039,1.003907 h 1.89649 l 2.11914,2.980468 c 0.31732,0.453052 0.94216,0.562443 1.39453,0.244141 0.45042,-0.319783 0.55624,-0.9442 0.23633,-1.394531 l -2.41406,-3.410156 c -0.18839,-0.265862 -0.49448,-0.423281 -0.82032,-0.421876 z"
         transform="matrix(0.26458334,0,0,0.26458334,0,280.06666)"
         sodipodi:nodetypes="cccsccccccccccccccccc" />
      <path
         id="path1967266"
         style="color:#000000;fill:#2f3f4b;fill-opacity:1;stroke-width:3.01786;stroke-linecap:round;stroke-linejoin:round;-inkscape-stroke:none"
         d="m -170.30469,-99.388672 -1.19922,1.59961 h -1.77929 c -0.54924,0.0021 -0.99396,0.446853 -0.9961,0.996093 -0.002,0.552289 0.44381,1.001757 0.9961,1.003907 h 2.27343 c 0.27826,-0.0024 0.54296,-0.120558 0.73047,-0.326172 z m -3.11719,6.146484 c -0.55304,-0.0022 -1.00282,0.444999 -1.0039,0.998047 -0.002,0.555338 0.44856,1.006077 1.0039,1.003907 h 1.89649 l 0.47656,0.669922 c 0.41574,-0.703269 0.68224,-1.504904 0.75195,-2.359376 -0.18568,-0.19616 -0.44281,-0.308875 -0.71289,-0.3125 z"
         transform="matrix(0.26458334,0,0,0.26458334,0,280.06666)"
         sodipodi:nodetypes="cccscccccccccccc" />
      <path
         id="path14496"
         style="color:#000000;fill:#3a4d5c;stroke-width:3.01786;stroke-linecap:round;stroke-linejoin:round;-inkscape-stroke:none"
         d="m -187.80273,-101 c -0.44307,0.33176 -0.53236,0.96032 -0.19922,1.402344 l 2.56054,3.410156 c 0.18894,0.250876 0.48476,0.398423 0.79883,0.398438 h 2.27344 c 0.55229,-0.0022 0.99825,-0.451622 0.99609,-1.003907 -0.002,-0.549236 -0.44685,-0.993949 -0.99609,-0.996093 h -1.77148 l -2.26758,-3.011718 c -0.15952,-0.2097 -0.39535,-0.34798 -0.7207,-0.38965 -0.28349,-0.008 -0.49758,0.0603 -0.67383,0.19043 z m 3.16015,7.757812 c -0.32583,-0.0014 -0.63192,0.156017 -0.82031,0.421876 l -2.41406,3.410156 c -0.31991,0.450331 -0.21409,1.074748 0.23633,1.394531 0.45273,0.319637 1.07906,0.210139 1.39648,-0.244141 l 2.11719,-2.982422 h 1.89843 c 0.55534,0.0022 1.00608,-0.448565 1.00391,-1.003906 -0.002,-0.552288 -0.45162,-0.998257 -1.00391,-0.996094 z"
         transform="matrix(0.26458334,0,0,0.26458334,0,280.06666)"
         sodipodi:nodetypes="cccccsccccccccccccscc" />
      <path
         id="path1962830"
         style="color:#000000;fill:#2f3f4b;fill-opacity:1;stroke-width:3.01786;stroke-linecap:round;stroke-linejoin:round;-inkscape-stroke:none"
         d="m -185.3731,-96.121094 c 0.18647,0.207785 0.45131,0.328165 0.73047,0.332032 h 2.27344 c 0.55229,-0.0022 0.99825,-0.451622 0.99609,-1.003907 -0.002,-0.549236 -0.44685,-0.993949 -0.99609,-0.996093 h -1.77148 l -1.20503,-1.601563 z m 0.73052,2.878906 c -0.27008,0.0036 -0.52721,0.11634 -0.71289,0.3125 0.0698,0.853545 0.33605,1.654697 0.75195,2.357422 l 0.47657,-0.669922 h 1.89843 c 0.55534,0.0022 1.00608,-0.448565 1.00391,-1.003906 -0.002,-0.552288 -0.45162,-0.998257 -1.00391,-0.996094 z"
         transform="matrix(0.26458334,0,0,0.26458334,0,280.06666)"
         sodipodi:nodetypes="cccscccccccccscc" />
      <path
         style="color:#000000;fill:#4f697d;stroke-width:0.798474;stroke-linecap:round;stroke-linejoin:round;-inkscape-stroke:none"
         d="m -50.720703,251.98242 c -0.584288,0 -1.056546,0.19148 -1.414063,0.50195 -0.357516,0.31048 -0.604177,0.72474 -0.810546,1.17188 -0.41274,0.89427 -0.678388,1.93848 -1.169922,2.67578 -0.08146,0.12135 -0.0491,0.28576 0.07227,0.36719 0.121356,0.0815 0.285771,0.0491 0.367188,-0.0723 0.566798,-0.85019 0.829928,-1.92252 1.210937,-2.74804 0.190505,-0.41276 0.406866,-0.75892 0.677735,-0.99414 0.270868,-0.23523 0.592362,-0.37305 1.066406,-0.37305 z"
         id="path8486"
         sodipodi:nodetypes="csscccsscc" />
      <path
         style="color:#000000;fill:#4f697d;stroke-width:0.798474;stroke-linecap:round;stroke-linejoin:round;-inkscape-stroke:none"
         d="m -57.599609,252.51172 c 0.474044,0 0.795537,0.13782 1.066406,0.37305 0.270868,0.23522 0.487229,0.58138 0.677734,0.99414 0.38101,0.82552 0.64414,1.89785 1.210938,2.74804 0.08142,0.12138 0.245831,0.15376 0.367187,0.0723 0.121374,-0.0814 0.153733,-0.24584 0.07227,-0.36719 -0.491534,-0.7373 -0.757182,-1.78151 -1.169922,-2.67578 -0.20637,-0.44714 -0.45303,-0.8614 -0.810547,-1.17188 -0.357516,-0.31047 -0.829775,-0.50195 -1.414062,-0.50195 z"
         id="path7414"
         sodipodi:nodetypes="csscccsscc" />
      <path
         style="color:#000000;fill:#3a4d5c;stroke-width:0.798474;stroke-linecap:round;stroke-linejoin:round;-inkscape-stroke:none"
         d="m -54.689453,256.21484 c -0.435247,0 -0.792969,0.35968 -0.792969,0.79493 v 1.05664 a 0.26460996,0.26460996 0 0 0 0.263672,0.26562 h 2.117188 a 0.26460996,0.26460996 0 0 0 0.263671,-0.26562 v -1.05664 c 0,-0.43525 -0.357727,-0.79491 -0.792968,-0.79493 z"
         id="path1848382" />
      <path
         id="path1943146"
         style="color:#000000;fill:#2f3f4b;fill-opacity:1;stroke-width:3.01786;stroke-linecap:round;stroke-linejoin:round;-inkscape-stroke:none"
         d="m -209.56641,-88.017578 c 0.27462,-0.08427 0.56458,-0.13086 0.86524,-0.13086 h 4.00195 c 1.64501,7.6e-5 2.9961,1.358867 2.9961,3.003907 v 2.998047 h 1.0039 c 0.55227,-0.0022 0.99821,-0.451641 0.9961,-1.003907 v -3.99414 c 0,-1.64504 -1.35109,-3.003831 -2.9961,-3.003907 h -4.04004 c -1.34696,0.03379 -2.45743,0.927751 -2.82715,2.13086 z"
         transform="matrix(0.26458334,0,0,0.26458334,0,280.06666)"
         sodipodi:nodetypes="cscscccsccc" />
      <path
         id="path6604"
         style="color:#000000;fill:#3a4d5c;fill-opacity:1;stroke-width:3.01786;stroke-linecap:round;stroke-linejoin:round;-inkscape-stroke:none"
         d="m -216.31055,-85.0625 c -3.06604,1.139641 -5.66382,2.541652 -8.00976,4.509766 -0.41761,0.355657 -0.47076,0.981334 -0.11914,1.402343 0.35338,0.420021 0.97927,0.476682 1.40234,0.126953 1.97686,-1.658456 4.23038,-2.805398 6.82813,-3.832031 l 2.74023,3.34375 c 0.34937,0.424285 0.97568,0.48709 1.40234,0.140625 0.42934,-0.349981 0.49239,-0.982279 0.14063,-1.410156 l -3.26367,-3.978516 c -0.38643,-0.438553 -0.80218,-0.418951 -1.1211,-0.302734 z m 22.09961,0.302734 -3.26172,3.978516 c -0.35176,0.427877 -0.28871,1.060175 0.14063,1.410156 0.42787,0.35176 1.06017,0.288705 1.41015,-0.140625 l 2.73047,-3.335937 c 2.59614,1.026368 4.85218,2.166556 6.82813,3.824218 0.42307,0.349729 1.04896,0.293068 1.40234,-0.126953 0.3521,-0.420492 0.29982,-1.046117 -0.11718,-1.402343 -2.34595,-1.968114 -4.94373,-3.370125 -8.00977,-4.509766 -0.49666,-0.177809 -0.89593,0.01798 -1.12305,0.302734 z m 5.60352,8.615235 c -0.17817,0.01591 -0.34881,0.07931 -0.49414,0.183593 l -4.17774,2.998047 c -0.44846,0.321618 -0.5516,0.945727 -0.23047,1.394532 0.31989,0.451655 0.9458,0.557578 1.39649,0.236328 l 3.50586,-2.525391 c 2.24538,1.66492 4.11458,3.355869 5.5957,5.470703 0.31732,0.453052 0.94216,0.562443 1.39453,0.244141 0.44938,-0.317011 0.55845,-0.937398 0.24414,-1.388672 -1.75663,-2.50817 -3.8959,-4.535313 -6.5625,-6.429688 -0.19472,-0.139725 -0.43315,-0.204877 -0.67187,-0.183593 z m -32.84961,0.183587 c -2.66659,1.894375 -4.81368,3.921518 -6.57031,6.429688 -0.31431,0.451274 -0.20524,1.071661 0.24414,1.388672 0.45237,0.318302 1.07721,0.208911 1.39453,-0.244141 1.48113,-2.114834 3.35032,-3.805783 5.5957,-5.470703 l 3.50781,2.525391 c 0.45033,0.319917 1.07476,0.214098 1.39454,-0.236328 0.32154,-0.448298 0.21928,-1.072306 -0.22852,-1.394532 l -4.17774,-2.998047 c -0.40929,-0.298772 -0.88173,-0.213394 -1.16015,0 z m 0.6875,9.8125 c -0.17466,0.01228 -0.34303,0.0702 -0.48828,0.167969 -3.12801,2.085317 -6.24455,5.203903 -8.33399,9.382813 -0.24897,0.493472 -0.0504,1.095332 0.44336,1.34375 0.49347,0.248968 1.09533,0.05039 1.34375,-0.44336 1.80308,-3.606198 4.52626,-6.217687 7.23438,-8.126953 l 3.46875,2.486328 c 0.4483,0.32154 1.0723,0.219287 1.39453,-0.228515 0.32154,-0.448298 0.21928,-1.072306 -0.22852,-1.394532 l -4.17773,-2.998046 c -0.18974,-0.13821 -0.42204,-0.205276 -0.65625,-0.189454 z m 32.14258,0.0039 c -0.23266,-0.01546 -0.46341,0.05086 -0.65235,0.1875 l -4.18554,2.996093 c -0.44904,0.322336 -0.55139,0.947834 -0.22852,1.396485 0.32223,0.447802 0.94623,0.550055 1.39453,0.228515 l 3.47071,-2.488281 c 2.70812,1.909266 5.4313,4.520755 7.23437,8.126953 0.24839,0.492618 0.84881,0.69101 1.3418,0.44336 0.49375,-0.248418 0.69233,-0.850278 0.44336,-1.34375 -2.08944,-4.17891 -5.20598,-7.297496 -8.33399,-9.382813 -0.14451,-0.09574 -0.31142,-0.152277 -0.48437,-0.164062 z"
         transform="matrix(0.26458334,0,0,0.26458334,0,280.06666)"
         sodipodi:nodetypes="ccccccccccccccccccccscccccscccsccccccccccccccccccccccccsccccccc" />
      <path
         id="path1952400"
         style="color:#000000;fill:#2f3f4b;fill-opacity:1;stroke-width:3.01786;stroke-linecap:round;stroke-linejoin:round;-inkscape-stroke:none"
         d="m -194.70898,-84.150391 -2.76368,3.369141 a 1.0000006,1.0000006 0 0 0 0.14063,1.410156 1.0000006,1.0000006 0 0 0 1.41015,-0.140625 l 2.12696,-2.599609 c -0.14825,-0.753381 -0.46687,-1.446805 -0.91406,-2.039063 z"
         transform="matrix(0.26458334,0,0,0.26458334,0,280.06666)" />
      <path
         id="path1950911"
         style="color:#000000;fill:#2f3f4b;fill-opacity:1;stroke-width:3.01786;stroke-linecap:round;stroke-linejoin:round;-inkscape-stroke:none"
         d="m -214.68945,-84.150391 c -0.44677,0.591451 -0.76543,1.282883 -0.91407,2.035157 l 2.13477,2.603515 a 1.0000006,1.0000006 0 0 0 1.40234,0.140625 1.0000006,1.0000006 0 0 0 0.14063,-1.410156 z"
         transform="matrix(0.26458334,0,0,0.26458334,0,280.06666)" />
      <path
         id="path1949344"
         style="color:#000000;fill:#2f3f4b;fill-opacity:1;stroke-width:3.01786;stroke-linecap:round;stroke-linejoin:round;-inkscape-stroke:none"
         d="m -189.90039,-75.386719 -3.37891,2.423828 c -0.44846,0.321618 -0.5516,0.945727 -0.23047,1.394532 0.31989,0.451655 0.9458,0.557578 1.39649,0.236328 l 2.41211,-1.738281 v -1.074219 c 0,-0.432939 -0.07,-0.850597 -0.19922,-1.242188 z m 0.19922,9.732422 -3.76367,2.693359 c -0.44904,0.322336 -0.55139,0.947834 -0.22852,1.396485 0.32223,0.447802 0.94623,0.550055 1.39453,0.228515 l 2.55664,-1.833984 c 0.0619,-0.838178 0.041,-1.611445 0.041,-2.484375 z m -25.88281,3.166016 c 0.0172,0.123927 0.0356,0.246439 0.0566,0.36914 0.004,-0.125512 -0.0147,-0.250742 -0.0566,-0.36914 z"
         transform="matrix(0.26458334,0,0,0.26458334,0,280.06666)"
         sodipodi:nodetypes="cccccscccscccccc" />
      <path
         id="path1945778"
         style="color:#000000;fill:#2f3f4b;fill-opacity:1;stroke-width:3.01786;stroke-linecap:round;stroke-linejoin:round;-inkscape-stroke:none"
         d="m -219.49805,-75.388672 c -0.12967,0.392154 -0.20117,0.810485 -0.20117,1.244141 v 1.074219 l 2.41406,1.738281 c 0.45033,0.319917 1.07476,0.214098 1.39454,-0.236328 0.32154,-0.448298 0.21928,-1.072306 -0.22852,-1.394532 z m -0.20117,9.726563 c -0.0178,0.819366 0.004,1.730972 0.041,2.490234 l 2.55664,1.833984 c 0.4483,0.32154 1.0723,0.219287 1.39453,-0.228515 0.32154,-0.448298 0.21928,-1.072306 -0.22852,-1.394532 z"
         transform="matrix(0.26458334,0,0,0.26458334,0,280.06666)"
         sodipodi:nodetypes="csccccccccccc" />
      <path
         style="color:#000000;fill:#4f697d;fill-opacity:1;stroke-width:0.798474;stroke-linecap:round;stroke-linejoin:round;-inkscape-stroke:none"
         d="m -51.779297,260.18359 v -1.58789 c 0,-0.72749 -0.594774,-1.32226 -1.322265,-1.32226 h -2.117188 c -0.727491,0 -1.322266,0.59477 -1.322266,1.32226 v 1.58789 z"
         id="path38608"
         sodipodi:nodetypes="csssscc" />
      <path
         id="path1938959"
         style="color:#000000;fill:#3a4d5c;fill-opacity:1;stroke-width:3.01786;stroke-linecap:round;stroke-linejoin:round;-inkscape-stroke:none"
         d="m -208.70117,-86.148438 c -1.88631,0 -3.53644,1.059205 -4.38672,2.611329 0.71033,-0.389128 1.52345,-0.611329 2.38672,-0.611329 h 8.00195 c 2.74957,0 4.99805,2.248479 4.99805,4.998047 v 4.001953 h 2 v -6.001953 c 0,-2.749568 -2.24848,-4.998047 -4.99805,-4.998047 z"
         transform="matrix(0.26458334,0,0,0.26458334,0,280.06666)" />
      <path
         style="color:#000000;fill:#c71a45;stroke-width:0.798474;stroke-linecap:round;stroke-linejoin:round;-inkscape-stroke:none"
         d="m -56.541016,259.39062 c -0.581365,0 -1.058593,0.47723 -1.058593,1.0586 v 2.64453 c 0,1.75037 1.425413,3.17578 3.175781,3.17578 h 0.527344 c 1.75037,0 3.175783,-1.42541 3.175781,-3.17578 v -2.64453 c 0,-0.58137 -0.477229,-1.05859 -1.058594,-1.0586 z"
         id="path1848190" />
      <path
         style="color:#000000;fill:#3a4d5c;stroke-width:0.798474;stroke-linecap:round;stroke-linejoin:round;-inkscape-stroke:none"
         d="m -57.599609,251.98242 c -0.435244,0 -0.792972,0.35773 -0.792969,0.79297 -3e-6,0.43524 0.357725,0.79297 0.792969,0.79297 0.435243,0 0.792971,-0.35773 0.792968,-0.79297 3e-6,-0.43524 -0.357725,-0.79297 -0.792968,-0.79297 z"
         id="path1848574" />
      <path
         style="color:#000000;fill:#3a4d5c;stroke-width:0.798474;stroke-linecap:round;stroke-linejoin:round;-inkscape-stroke:none"
         d="m -50.720703,251.98242 c -0.435244,0 -0.792972,0.35773 -0.792969,0.79297 -3e-6,0.43524 0.357725,0.79297 0.792969,0.79297 0.435244,0 0.792971,-0.35773 0.792969,-0.79297 2e-6,-0.43524 -0.357725,-0.79297 -0.792969,-0.79297 z"
         id="path1848580" />
      <path
         style="color:#000000;fill:#a21538;stroke-width:0.798474;stroke-linecap:round;stroke-linejoin:round;-inkscape-stroke:none"
         d="m -56.277344,261.77148 a 0.2645835,0.2645835 0 0 0 -0.263672,0.26368 v 1.05859 c 0,0.58293 0.236399,1.11531 0.619141,1.49805 a 0.2645835,0.2645835 0 0 0 0.375,0 0.2645835,0.2645835 0 0 0 0,-0.375 c -0.287579,-0.28758 -0.464844,-0.68311 -0.464844,-1.12305 v -1.05859 a 0.2645835,0.2645835 0 0 0 -0.265625,-0.26368 z"
         id="path12364" />
      <path
         style="color:#000000;fill:#a21538;stroke-width:0.798474;stroke-linecap:round;stroke-linejoin:round;-inkscape-stroke:none"
         d="m -56.277344,260.44922 a 0.2645835,0.2645835 0 0 0 -0.263672,0.26367 v 0.26563 a 0.2645835,0.2645835 0 0 0 0.263672,0.26367 0.2645835,0.2645835 0 0 0 0.265625,-0.26367 v -0.26563 a 0.2645835,0.2645835 0 0 0 -0.265625,-0.26367 z"
         id="path8676" />
      <path
         style="color:#000000;fill:#e2f0fa;stroke-width:0.798474;stroke-linecap:round;stroke-linejoin:round;-inkscape-stroke:none"
         d="m -54.160156,260.44922 a 0.2645835,0.2645835 0 0 0 -0.263672,0.26367 v 3.17578 a 0.2645835,0.2645835 0 0 0 0.263672,0.26367 0.2645835,0.2645835 0 0 0 0.263672,-0.26367 v -3.17578 a 0.2645835,0.2645835 0 0 0 -0.263672,-0.26367 z"
         id="path12109" />
      <path
         style="color:#000000;fill:#a21538;stroke-width:0.798474;stroke-linecap:round;stroke-linejoin:round;-inkscape-stroke:none"
         d="m -52.042969,261.77148 a 0.2645835,0.2645835 0 0 0 -0.265625,0.26368 v 1.05859 c 0,0.43994 -0.177265,0.83547 -0.464843,1.12305 a 0.2645835,0.2645835 0 0 0 0,0.375 0.2645835,0.2645835 0 0 0 0.375,0 c 0.382741,-0.38274 0.61914,-0.91512 0.61914,-1.49805 v -1.05859 a 0.2645835,0.2645835 0 0 0 -0.263672,-0.26368 z"
         id="path12559" />
      <path
         style="color:#000000;fill:#a21538;stroke-width:0.798474;stroke-linecap:round;stroke-linejoin:round;-inkscape-stroke:none"
         d="m -52.042969,260.44922 a 0.2645835,0.2645835 0 0 0 -0.265625,0.26367 v 0.26563 a 0.2645835,0.2645835 0 0 0 0.265625,0.26367 0.2645835,0.2645835 0 0 0 0.263672,-0.26367 v -0.26563 a 0.2645835,0.2645835 0 0 0 -0.263672,-0.26367 z"
         id="path12561" />
      <path
         id="path12858"
         style="color:#000000;fill:#3a4d5c;fill-opacity:1;stroke-width:3.01786;stroke-linecap:round;stroke-linejoin:round;-inkscape-stroke:none"
         d="m -208.70117,-86.148438 c -0.34094,0 -0.67391,0.03577 -0.9961,0.101563 v 2.896484 a 1.0000006,1.0000006 0 0 0 0.9961,1.003907 1.0000006,1.0000006 0 0 0 1.0039,-1.003907 v -2.998047 z m 3.0039,0 v 4.001954 a 1.0000006,1.0000006 0 0 0 0.99805,0.996093 1.0000006,1.0000006 0 0 0 0.9961,-0.996093 v -4.001954 z m 3.99415,0 v 2.998047 a 1.0000006,1.0000006 0 0 0 1.0039,1.003907 1.0000006,1.0000006 0 0 0 0.9961,-1.003907 v -2.896484 c -0.32215,-0.06578 -0.6552,-0.101563 -0.9961,-0.101563 z"
         transform="matrix(0.26458334,0,0,0.26458334,0,280.06666)" />
      <path
         style="color:#000000;fill:#d7825b;stroke-width:0.798474;stroke-linecap:round;stroke-linejoin:round;-inkscape-stroke:none"
         d="m -47.951172,253.29102 c -0.30903,0 -0.566393,0.25737 -0.566406,0.5664 v 1.50195 c 0,0.8072 0.661553,1.46875 1.46875,1.46875 0.807194,0 1.466798,-0.66154 1.466797,-1.46875 v -1.50195 c -1.3e-5,-0.30903 -0.257376,-0.5664 -0.566406,-0.5664 z"
         id="path1848970" />
      <path
         style="color:#000000;fill:#d06a3b;stroke-width:0.798474;stroke-linecap:round;stroke-linejoin:round;-inkscape-stroke:none"
         d="m -47.048828,254.34961 a 0.2645835,0.2645835 0 0 0 -0.265625,0.26562 v 0.79297 a 0.2645835,0.2645835 0 0 0 0.265625,0.26367 0.2645835,0.2645835 0 0 0 0.263672,-0.26367 v -0.79297 a 0.2645835,0.2645835 0 0 0 -0.263672,-0.26562 z"
         id="path16111" />
      <path
         style="color:#000000;fill:#c71a45;fill-opacity:1;stroke-width:0.798474;stroke-linecap:round;stroke-linejoin:round;-inkscape-stroke:none"
         d="m -46.566406,258.63477 a 0.2645835,0.2645835 0 0 0 -0.265625,0.26562 0.2645835,0.2645835 0 0 0 0.265625,0.26367 0.2645835,0.2645835 0 0 0 0.263672,-0.26367 0.2645835,0.2645835 0 0 0 -0.263672,-0.26562 z"
         id="path1661" />
      <path
         style="color:#000000;fill:#3a4d5c;fill-opacity:1;stroke-width:0.798474;stroke-linecap:round;stroke-linejoin:round;-inkscape-stroke:none"
         d="m -45.772006,260.75104 a 0.2645835,0.2645835 0 0 0 -0.265625,0.26562 0.2645835,0.2645835 0 0 0 0.265625,0.26367 0.2645835,0.2645835 0 0 0 0.263672,-0.26367 0.2645835,0.2645835 0 0 0 -0.263672,-0.26562 z"
         id="path1846" />
      <path
         style="color:#000000;fill:#c71a45;fill-opacity:1;stroke-width:0.798474;stroke-linecap:round;stroke-linejoin:round;-inkscape-stroke:none"
         d="m -58.208334,255.46029 a 0.2645835,0.2645835 0 0 0 -0.265625,0.26562 0.2645835,0.2645835 0 0 0 0.265625,0.26367 0.2645835,0.2645835 0 0 0 0.263672,-0.26367 0.2645835,0.2645835 0 0 0 -0.263672,-0.26562 z"
         id="path1848" />
      <path
         style="color:#000000;fill:#3a4d5c;fill-opacity:1;stroke-width:0.798474;stroke-linecap:round;stroke-linejoin:round;-inkscape-stroke:none"
         d="m -59.265624,253.87291 a 0.2645835,0.2645835 0 0 0 -0.265625,0.26562 0.2645835,0.2645835 0 0 0 0.265625,0.26367 0.2645835,0.2645835 0 0 0 0.263672,-0.26367 0.2645835,0.2645835 0 0 0 -0.263672,-0.26562 z"
         id="path1850" />
      <path
         style="color:#000000;fill:#3a4d5c;fill-opacity:1;stroke-width:0.798474;stroke-linecap:round;stroke-linejoin:round;-inkscape-stroke:none"
         d="m -59.530209,256.78229 a 0.2645835,0.2645835 0 0 0 -0.265625,0.26562 0.2645835,0.2645835 0 0 0 0.265625,0.26367 0.2645835,0.2645835 0 0 0 0.263672,-0.26367 0.2645835,0.2645835 0 0 0 -0.263672,-0.26562 z"
         id="path1852" />
      <path
         style="color:#000000;fill:#3a4d5c;fill-opacity:1;stroke-width:0.798474;stroke-linecap:round;stroke-linejoin:round;-inkscape-stroke:none"
         d="m -53.180341,251.22708 a 0.2645835,0.2645835 0 0 0 -0.265625,0.26562 0.2645835,0.2645835 0 0 0 0.265625,0.26367 0.2645835,0.2645835 0 0 0 0.263672,-0.26367 0.2645835,0.2645835 0 0 0 -0.263672,-0.26562 z"
         id="path1854" />
      <path
         style="color:#000000;fill:#c71a45;fill-opacity:1;stroke-width:0.798474;stroke-linecap:round;stroke-linejoin:round;-inkscape-stroke:none"
         d="m -46.565624,262.86875 a 0.2645835,0.2645835 0 0 0 -0.265625,0.26562 0.2645835,0.2645835 0 0 0 0.265625,0.26367 0.2645835,0.2645835 0 0 0 0.263672,-0.26367 0.2645835,0.2645835 0 0 0 -0.263672,-0.26562 z"
         id="path1856" />
      <path
         id="path1936807"
         style="color:#000000;fill:#a21538;fill-opacity:1;stroke-width:3.01786;stroke-linecap:round;stroke-linejoin:round;-inkscape-stroke:none"
         d="m -213.69922,-78.146484 c -1.61285,0 -3.01152,0.973417 -3.64258,2.359375 0.50251,-0.228999 1.05771,-0.359375 1.64258,-0.359375 h 17.99805 c 2.19728,3.7e-5 4,1.804649 4,4.001953 v 9.99414 c 0,2.797386 -0.96214,5.3762 -2.57422,7.419922 2.7839,-2.200595 4.57422,-5.60621 4.57422,-9.419922 v -9.99414 c 0,-2.197304 -1.80272,-4.001916 -4,-4.001953 z"
         transform="matrix(0.26458334,0,0,0.26458334,0,280.06666)" />
      <path
         id="path1954799"
         style="color:#000000;fill:#2f3f4b;fill-opacity:1;stroke-width:3.01786;stroke-linecap:round;stroke-linejoin:round;-inkscape-stroke:none"
         d="m -194.56836,-104.01562 c 0.27515,-0.0842 0.56588,-0.12891 0.86719,-0.12891 1.64501,0 2.99805,1.35109 2.99805,2.99609 0,0.30079 -0.045,0.59246 -0.12891,0.86719 1.22701,-0.37555 2.12891,-1.5235 2.12891,-2.86719 0,-1.645 -1.35304,-2.99609 -3.03613,-2.99609 -1.3486,0.0337 -2.46079,0.9253 -2.82911,2.12891 z"
         transform="matrix(0.26458334,0,0,0.26458334,0,280.06666)"
         sodipodi:nodetypes="csscscc" />
      <path
         id="path1956834"
         style="color:#000000;fill:#2f3f4b;fill-opacity:1;stroke-width:3.01786;stroke-linecap:round;stroke-linejoin:round;-inkscape-stroke:none"
         d="m -220.56641,-104.01562 c 0.27515,-0.0842 0.56588,-0.12891 0.86719,-0.12891 1.64501,0 2.99611,1.35109 2.9961,2.99609 0,0.30085 -0.045,0.59242 -0.12891,0.86719 1.22701,-0.37555 2.12891,-1.5235 2.12891,-2.86719 1e-5,-1.645 -1.35109,-2.99609 -3.03418,-2.99609 -1.34855,0.0336 -2.46074,0.92537 -2.82911,2.12891 z"
         transform="matrix(0.26458334,0,0,0.26458334,0,280.06666)"
         sodipodi:nodetypes="csscscc" />
      <path
         id="path1959430"
         style="color:#000000;fill:#d06a3b;fill-opacity:1;stroke-width:3.01786;stroke-linecap:round;stroke-linejoin:round;-inkscape-stroke:none"
         d="m -181.23242,-101.19922 c -1.12222,0 -2.06457,0.89755 -2.13672,2.003908 2.30338,-0.0092 4.63599,-0.0039 6.94922,-0.0039 1.16799,0 2.14057,0.972638 2.14062,2.140625 v 5.675782 c 0,1.015725 -0.27657,1.971245 -0.75781,2.792968 1.64632,-0.965891 2.75782,-2.756271 2.75781,-4.792968 v -5.675782 c -5e-5,-1.167983 -0.97263,-2.140623 -2.14062,-2.140623 z"
         transform="matrix(0.26458334,0,0,0.26458334,0,280.06666)"
         sodipodi:nodetypes="scccscscss" />
    </g>
  </g>
</svg>
