<?xml version="1.0" ?><svg style="enable-background:new 0 0 512 512;" version="1.1" viewBox="0 0 512 512" xml:space="preserve" xmlns="http://www.w3.org/2000/svg" xmlns:xlink="http://www.w3.org/1999/xlink"><g id="_x32_4_x2C__Medicine_x2C__pill_x2C__tablet_x2C__care"><g id="XMLID_4175_"><g id="XMLID_4176_"><path d="M126,423.499c13.81,0,25,11.19,25,25s-11.19,25-25,25s-25-11.19-25-25     S112.19,423.499,126,423.499z" id="XMLID_661_" style="fill:#D94556;"/><circle cx="431" cy="158.499" id="XMLID_660_" r="35" style="fill:#D94556;"/><path d="M428.06,296.789l-158.77,158.77c-6.96-4.42-13.54-9.67-19.61-15.739     c-4.82-4.82-9.13-9.971-12.91-15.37l160.18-160.18c5.4,3.78,10.55,8.09,15.37,12.91C418.39,283.249,423.64,289.83,428.06,296.789     z" id="XMLID_659_" style="fill:#19AB5C;"/><path d="M428.06,296.789c28.35,44.479,23.1,104.19-15.74,143.03     c-38.84,38.84-98.55,44.09-143.03,15.739L428.06,296.789z" id="XMLID_658_" style="fill:#07CC66;"/><path d="M396.95,264.269L236.77,424.45c-31.48-44.86-27.18-107.181,12.91-147.271     C289.77,237.089,352.09,232.789,396.95,264.269z" id="XMLID_657_" style="fill:#07CC66;"/><rect height="45" id="XMLID_656_" style="fill:#CD2738;" transform="matrix(-0.7071 -0.7071 0.7071 -0.7071 213.3398 494.473)" width="159.997" x="129.087" y="180.549"/><path d="M345.2,66.93c15.62,15.62,23.44,36.09,23.44,56.57s-7.82,40.95-23.44,56.57     l-63.64,63.64l-113.13-113.14l63.64-63.64C263.31,35.689,313.96,35.689,345.2,66.93z" id="XMLID_655_" style="fill:#D94556;"/><path d="M136.61,162.39l113.13,113.14l-67.17,67.17c-31.24,31.25-81.9,31.25-113.14,0     c-31.24-31.24-31.24-81.89,0-113.13L136.61,162.39z" id="XMLID_654_" style="fill:#D94556;"/><circle cx="458.5" cy="245.999" id="XMLID_653_" r="7.5" style="fill:#FFD400;"/><circle cx="448.5" cy="460.999" id="XMLID_652_" r="7.5" style="fill:#FFD400;"/><circle cx="423.5" cy="65.999" id="XMLID_651_" r="7.5" style="fill:#FFD400;"/><circle cx="198.5" cy="445.999" id="XMLID_650_" r="7.5" style="fill:#FFD400;"/><circle cx="148.5" cy="45.999" id="XMLID_649_" r="7.5" style="fill:#FFD400;"/><circle cx="73.5" cy="135.999" id="XMLID_648_" r="7.5" style="fill:#FFD400;"/><circle cx="63.5" cy="405.999" id="XMLID_647_" r="7.5" style="fill:#FFD400;"/></g></g></g><g id="Layer_1"/></svg>