<?xml version="1.0" encoding="iso-8859-1"?>
<!-- Generator: Adobe Illustrator 19.2.1, SVG Export Plug-In . SVG Version: 6.00 Build 0)  -->
<svg version="1.1" xmlns="http://www.w3.org/2000/svg" xmlns:xlink="http://www.w3.org/1999/xlink" x="0px" y="0px"
	 viewBox="0 0 32.03 32.085" style="enable-background:new 0 0 32.03 32.085;" xml:space="preserve">
<g id="Layer_26">
	<path style="fill:#FF9999;" d="M28.44,2.185l1.42,1.4c1.56,1.56,1.56,4.1,0,5.66l-0.5,0.54l-7.06-7.06l0.48-0.54
		C24.34,0.605,26.88,0.605,28.44,2.185z"/>
	<polygon style="fill:#FFD580;" points="25.46,13.685 10.9,28.265 3.82,21.185 18.4,6.625 	"/>
	<path style="fill:#664848;" d="M1.693,28.972l1.42,1.42c0.391,0.391,1.024,0.391,1.414,0c0.391-0.391,0.391-1.024,0-1.414
		l-1.42-1.42c-0.391-0.391-1.024-0.391-1.414,0C1.303,27.948,1.303,28.582,1.693,28.972"/>
	<path style="fill:#664848;" d="M32.03,6.415c0.001-1.277-0.489-2.563-1.463-3.537l-0.005-0.005l-1.42-1.4l-0.001,0.001
		C28.17,0.495,26.886-0.001,25.61,0c-1.28-0.001-2.57,0.497-3.542,1.482l-0.036,0.038l-0.461,0.518l-3.879,3.879l-14.58,14.56
		c-0.013,0.013-0.018,0.031-0.03,0.045c-0.042,0.047-0.072,0.102-0.105,0.157c-0.036,0.06-0.071,0.117-0.094,0.182
		c-0.006,0.018-0.02,0.031-0.026,0.05l-2.82,9.9c-0.1,0.35-0.003,0.724,0.255,0.981c0.257,0.257,0.631,0.354,0.981,0.255l9.9-2.82
		c0.019-0.005,0.032-0.019,0.05-0.026c0.065-0.023,0.122-0.058,0.182-0.094c0.055-0.033,0.11-0.063,0.157-0.106
		c0.014-0.012,0.032-0.017,0.045-0.03l14.56-14.58l3.9-3.9c0.005-0.005,0.006-0.011,0.011-0.016
		c0.005-0.005,0.011-0.006,0.016-0.011l0.5-0.54l-0.002-0.002C31.547,8.952,32.031,7.68,32.03,6.415z M2.454,29.631l1.862-6.536
		l4.674,4.674L2.454,29.631z M10.9,26.85l-5.665-5.665L18.4,8.039l5.647,5.647L10.9,26.85z M25.46,12.271l-5.646-5.646L22.3,4.139
		l5.646,5.646L25.46,12.271z M29.321,8.332l-5.619-5.619C24.257,2.245,24.927,2.001,25.61,2c0.77,0.001,1.531,0.293,2.118,0.888
		l0.01,0.01l1.415,1.395c0.586,0.586,0.876,1.349,0.877,2.123C30.029,7.104,29.785,7.777,29.321,8.332z"/>
</g>
<g id="Layer_1">
</g>
</svg>
