<?xml version="1.0" encoding="UTF-8" standalone="no"?>
<svg
   xmlns:dc="http://purl.org/dc/elements/1.1/"
   xmlns:cc="http://creativecommons.org/ns#"
   xmlns:rdf="http://www.w3.org/1999/02/22-rdf-syntax-ns#"
   xmlns:svg="http://www.w3.org/2000/svg"
   xmlns="http://www.w3.org/2000/svg"
   id="svg6131"
   version="1.1"
   viewBox="0 0 44.471172 41.228642"
   height="41.228642mm"
   width="44.471172mm">
  <defs
     id="defs6125">
    <clipPath
       id="clipPath68"
       clipPathUnits="userSpaceOnUse">
      <path
         id="path66"
         d="m 76.863,433.597 -10.934,-5.377 3.399,-8.258 0.392,-0.951 10.294,0.902 -6.141,-1.985 1.273,-3.353 2.159,-5.677 0.424,-0.407 8.784,-8.44 -6.14,3.971 -2.527,-4.695 6.682,-5.776 c 0,0 0.04,0.007 0.119,0.024 v 0 c 0.756,0.152 4.937,0.945 8.819,0.972 v 0 c 1.861,0.017 3.654,-0.143 4.965,-0.637 v 0 l 4.876,21.669 -15.35,17.153 -11.013,0.905 z" />
    </clipPath>
    <linearGradient
       id="linearGradient80"
       spreadMethod="pad"
       gradientTransform="matrix(36.5816,7.6799507,7.6799507,-36.5816,104.64152,379.7527)"
       gradientUnits="userSpaceOnUse"
       y2="0"
       x2="1"
       y1="0"
       x1="0">
      <stop
         id="stop74"
         offset="0"
         style="stop-opacity:1;stop-color:#f68e3d" />
      <stop
         id="stop76"
         offset="0.6461618"
         style="stop-opacity:1;stop-color:#faaf40" />
      <stop
         id="stop78"
         offset="1"
         style="stop-opacity:1;stop-color:#faaf40" />
    </linearGradient>
    <clipPath
       id="clipPath90"
       clipPathUnits="userSpaceOnUse">
      <path
         id="path88"
         d="m 69.856,396.891 2.979,-2.574 c -1.516,-0.248 -3.031,-0.715 -4.477,-1.302 v 0 c -5.647,-2.294 -10.284,-6.417 -10.284,-6.417 v 0 c 1.536,-1.024 3.987,-5.33 5.587,-8.376 v 0 c 0.943,-1.784 1.591,-3.136 1.591,-3.136 v 0 l 15.931,6.275 -1.929,6.066 4.535,-6.108 10.174,-12.463 c 1.569,0.066 2.991,0.272 4.27,0.564 v 0 c 2.766,0.634 4.87,1.693 6.382,2.706 v 0 c 2.072,1.389 3.025,2.69 3.025,2.69 v 0 c -6.094,5.417 -7.448,15.844 -7.448,15.844 v 0 l -1.897,2.709 c -1.43,0.217 -2.867,0.32 -4.257,0.343 v 0 c -5.59,0.109 -10.046,-1.484 -10.046,-1.484 v 0 l -5.287,4.901 -1.4,1.251 z" />
    </clipPath>
    <linearGradient
       id="linearGradient102"
       spreadMethod="pad"
       gradientTransform="matrix(1.1693712,-50.679634,-50.679634,-1.1693712,113.33586,382.93386)"
       gradientUnits="userSpaceOnUse"
       y2="0"
       x2="1"
       y1="0"
       x1="0">
      <stop
         id="stop96"
         offset="0"
         style="stop-opacity:1;stop-color:#1b75bb" />
      <stop
         id="stop98"
         offset="0.18826557"
         style="stop-opacity:1;stop-color:#1b75bb" />
      <stop
         id="stop100"
         offset="1"
         style="stop-opacity:1;stop-color:#0f5184" />
    </linearGradient>
    <clipPath
       id="clipPath112"
       clipPathUnits="userSpaceOnUse">
      <path
         id="path110"
         d="m 74.667,455.585 c -1.541,-0.072 -3.157,-0.38 -4.758,-1.049 v 0 c 0,0 -0.678,-1.581 -0.754,-3.803 v 0 c 0.693,0.559 1.734,1.238 3.19,1.834 v 0 c 0.783,0.317 1.684,0.612 2.717,0.848 v 0 c 2.126,0.49 4.81,0.739 8.149,0.463 v 0 c -1.438,0.631 -3.859,1.494 -6.673,1.685 v 0 c -0.368,0.026 -0.742,0.04 -1.122,0.04 v 0 c -0.248,0 -0.498,-0.006 -0.749,-0.018" />
    </clipPath>
    <linearGradient
       id="linearGradient124"
       spreadMethod="pad"
       gradientTransform="matrix(14.056641,0,0,-14.056641,100.4008,422.14626)"
       gradientUnits="userSpaceOnUse"
       y2="0"
       x2="1"
       y1="0"
       x1="0">
      <stop
         id="stop118"
         offset="0"
         style="stop-opacity:1;stop-color:#0f5184" />
      <stop
         id="stop120"
         offset="0.81173443"
         style="stop-opacity:1;stop-color:#1b75bb" />
      <stop
         id="stop122"
         offset="1"
         style="stop-opacity:1;stop-color:#1b75bb" />
    </linearGradient>
    <clipPath
       id="clipPath134"
       clipPathUnits="userSpaceOnUse">
      <path
         id="path132"
         d="m 74.271,452.497 c -1.135,-0.345 -2.297,-0.78 -3.456,-1.328 v 0 c -0.556,-0.263 -1.114,-0.55 -1.666,-0.867 v 0 c 0,-0.154 0.006,-0.308 0.012,-0.468 v 0 c 0.018,-0.439 0.064,-0.899 0.145,-1.368 v 0 c 0.003,-0.013 0.006,-0.027 0.008,-0.04 v 0 c 0,0 9.735,2.974 15.033,-0.813 v 0 l 0.271,5.571 c 0,0 -0.38,0.222 -1.055,0.534 v 0 c -0.25,0.007 -0.514,0.011 -0.791,0.011 v 0 c -2.203,-10e-4 -5.246,-0.245 -8.501,-1.232" />
    </clipPath>
    <linearGradient
       id="linearGradient146"
       spreadMethod="pad"
       gradientTransform="matrix(15.46875,0,0,-15.46875,100.39494,419.64919)"
       gradientUnits="userSpaceOnUse"
       y2="0"
       x2="1"
       y1="0"
       x1="0">
      <stop
         id="stop140"
         offset="0"
         style="stop-opacity:1;stop-color:#0f5184" />
      <stop
         id="stop142"
         offset="0.81173443"
         style="stop-opacity:1;stop-color:#1b75bb" />
      <stop
         id="stop144"
         offset="1"
         style="stop-opacity:1;stop-color:#1b75bb" />
    </linearGradient>
    <clipPath
       id="clipPath156"
       clipPathUnits="userSpaceOnUse">
      <path
         id="path154"
         d="M 0,500 H 500 V 0 H 0 Z" />
    </clipPath>
    <clipPath
       id="clipPath168"
       clipPathUnits="userSpaceOnUse">
      <path
         id="path166"
         d="m 98.532,368.905 c -1.702,-0.443 -2.899,-0.579 -2.899,-0.579 v 0 l 9.275,-9.275 14.761,-0.966 c 0.376,0.341 0.747,0.904 1.089,1.565 v 0 c 1.124,2.16 1.974,5.371 1.974,5.371 v 0 l -6.421,3.706 -7.934,-2.335 -1.453,6.855 c -2.472,-2.424 -5.953,-3.699 -8.392,-4.342" />
    </clipPath>
    <linearGradient
       id="linearGradient180"
       spreadMethod="pad"
       gradientTransform="matrix(19.249741,19.074026,19.074026,-19.249741,127.47209,320.85915)"
       gradientUnits="userSpaceOnUse"
       y2="0"
       x2="1"
       y1="0"
       x1="0">
      <stop
         id="stop174"
         offset="0"
         style="stop-opacity:1;stop-color:#c2886c" />
      <stop
         id="stop176"
         offset="0.47806175"
         style="stop-opacity:1;stop-color:#deb18a" />
      <stop
         id="stop178"
         offset="1"
         style="stop-opacity:1;stop-color:#deb18a" />
    </linearGradient>
    <clipPath
       id="clipPath190"
       clipPathUnits="userSpaceOnUse">
      <path
         id="path188"
         d="M 0,500 H 500 V 0 H 0 Z" />
    </clipPath>
    <clipPath
       id="clipPath202"
       clipPathUnits="userSpaceOnUse">
      <path
         id="path200"
         d="m 84.715,448.828 1.126,0.45 v 1.426 l -1.05,1.05 z" />
    </clipPath>
    <linearGradient
       id="linearGradient214"
       spreadMethod="pad"
       gradientTransform="matrix(0.1143286,-4.9549112,-4.9549112,-0.1143286,116.44377,422.25368)"
       gradientUnits="userSpaceOnUse"
       y2="0"
       x2="1"
       y1="0"
       x1="0">
      <stop
         id="stop208"
         offset="0"
         style="stop-opacity:1;stop-color:#1b75bb" />
      <stop
         id="stop210"
         offset="0.18826557"
         style="stop-opacity:1;stop-color:#1b75bb" />
      <stop
         id="stop212"
         offset="1"
         style="stop-opacity:1;stop-color:#0f5184" />
    </linearGradient>
    <clipPath
       id="clipPath224"
       clipPathUnits="userSpaceOnUse">
      <path
         id="path222"
         d="m 85.467,451.83 0.9,-0.826 3.827,1.652 0.826,2.926 c 0,0 -3.302,-1.276 -5.553,-3.752" />
    </clipPath>
    <linearGradient
       id="linearGradient236"
       spreadMethod="pad"
       gradientTransform="matrix(0.1747679,-7.5743027,-7.5743027,-0.1747679,119.39396,426.80495)"
       gradientUnits="userSpaceOnUse"
       y2="0"
       x2="1"
       y1="0"
       x1="0">
      <stop
         id="stop230"
         offset="0"
         style="stop-opacity:1;stop-color:#1b75bb" />
      <stop
         id="stop232"
         offset="0.18826557"
         style="stop-opacity:1;stop-color:#1b75bb" />
      <stop
         id="stop234"
         offset="1"
         style="stop-opacity:1;stop-color:#0f5184" />
    </linearGradient>
    <clipPath
       id="clipPath246"
       clipPathUnits="userSpaceOnUse">
      <path
         id="path244"
         d="m 86.142,449.354 c 2.401,-2.102 5.327,-2.627 5.327,-2.627 v 0 c -1.35,2.927 -5.253,3.752 -5.253,3.752 v 0 z" />
    </clipPath>
    <linearGradient
       id="linearGradient258"
       spreadMethod="pad"
       gradientTransform="matrix(0.1514515,-6.5637889,-6.5637889,-0.1514515,119.94767,421.51735)"
       gradientUnits="userSpaceOnUse"
       y2="0"
       x2="1"
       y1="0"
       x1="0">
      <stop
         id="stop252"
         offset="0"
         style="stop-opacity:1;stop-color:#1b75bb" />
      <stop
         id="stop254"
         offset="0.18826557"
         style="stop-opacity:1;stop-color:#1b75bb" />
      <stop
         id="stop256"
         offset="1"
         style="stop-opacity:1;stop-color:#0f5184" />
    </linearGradient>
    <clipPath
       id="clipPath268"
       clipPathUnits="userSpaceOnUse">
      <path
         id="path266"
         d="M 0,500 H 500 V 0 H 0 Z" />
    </clipPath>
    <clipPath
       id="clipPath292"
       clipPathUnits="userSpaceOnUse">
      <path
         id="path290"
         d="m 53.555,383.737 -4.696,-21.711 3.359,-0.969 2.069,-0.596 6.471,10.438 -0.731,4.279 3.339,0.835 c -0.281,0.897 -0.764,1.968 -1.333,3.077 v 0 c -1.747,3.407 -4.303,7.15 -4.303,7.15 v 0 z" />
    </clipPath>
    <linearGradient
       id="linearGradient304"
       spreadMethod="pad"
       gradientTransform="matrix(14.506836,0,0,-14.506836,80.105388,342.32888)"
       gradientUnits="userSpaceOnUse"
       y2="0"
       x2="1"
       y1="0"
       x1="0">
      <stop
         id="stop298"
         offset="0"
         style="stop-opacity:1;stop-color:#c2886c" />
      <stop
         id="stop300"
         offset="0.47806175"
         style="stop-opacity:1;stop-color:#deb18a" />
      <stop
         id="stop302"
         offset="1"
         style="stop-opacity:1;stop-color:#deb18a" />
    </linearGradient>
    <clipPath
       id="clipPath314"
       clipPathUnits="userSpaceOnUse">
      <path
         id="path312"
         d="M 0,500 H 500 V 0 H 0 Z" />
    </clipPath>
    <clipPath
       id="clipPath330"
       clipPathUnits="userSpaceOnUse">
      <path
         id="path328"
         d="m 69.582,448.233 0.252,-1.094 0.447,-1.931 1.571,-1.108 -0.699,-1.98 0.992,-3.957 3.063,-4.686 0.021,-0.033 c 7.162,0.933 9.258,8.27 9.258,8.27 v 0 c 0,0 1.748,1.281 2.214,2.562 v 0 c 0.466,1.281 -0.466,3.145 -0.466,3.145 v 0 l -1.921,-1.281 -0.06,0.988 c -1.887,1.351 -4.935,1.731 -7.765,1.731 v 0 c -3.633,0 -6.907,-0.626 -6.907,-0.626" />
    </clipPath>
    <linearGradient
       id="linearGradient342"
       spreadMethod="pad"
       gradientTransform="matrix(17.249023,0,0,-17.249023,100.82804,410.12966)"
       gradientUnits="userSpaceOnUse"
       y2="0"
       x2="1"
       y1="0"
       x1="0">
      <stop
         id="stop336"
         offset="0"
         style="stop-opacity:1;stop-color:#c2886c" />
      <stop
         id="stop338"
         offset="0.47806175"
         style="stop-opacity:1;stop-color:#deb18a" />
      <stop
         id="stop340"
         offset="1"
         style="stop-opacity:1;stop-color:#deb18a" />
    </linearGradient>
    <clipPath
       id="clipPath352"
       clipPathUnits="userSpaceOnUse">
      <path
         id="path350"
         d="M 0,500 H 500 V 0 H 0 Z" />
    </clipPath>
    <clipPath
       id="clipPath368"
       clipPathUnits="userSpaceOnUse">
      <path
         id="path366"
         d="M 76.8628,433.637 H 103.307 V 393.911 H 76.8628 Z" />
    </clipPath>
    <clipPath
       id="clipPath404"
       clipPathUnits="userSpaceOnUse">
      <path
         id="path402"
         d="M 91.1968,393.712 H 107.64 V 372.126 H 91.1968 Z" />
    </clipPath>
    <clipPath
       id="clipPath420"
       clipPathUnits="userSpaceOnUse">
      <path
         id="path418"
         d="m 136.169,363.7 c 0.567,-1.547 1.783,-4.301 3.882,-6.658 v 0 c -0.171,0.136 -2.964,2.234 -4.6,6.622 v 0 c -0.909,-0.119 -1.839,-0.56 -3.179,-1.779 v 0 c 0,0 2.339,-4.545 0.4,-7.086 v 0 l 4.514,-3.201 2.238,-5.756 c 0,0 1.082,-0.721 2.245,-1.145 v 0 l 0.877,-0.247 c 0.821,-0.152 1.556,-0.018 1.825,0.788 v 0 c 0.736,2.208 -0.802,9.561 -0.802,9.561 v 0 c 0,0 -5.883,7.354 -6.084,8.692 v 0 c 0,0 -0.449,0.21 -1.207,0.21 v 0 c -0.036,0 -0.072,0 -0.109,-0.001" />
    </clipPath>
    <linearGradient
       id="linearGradient432"
       spreadMethod="pad"
       gradientTransform="matrix(12.29834,0,0,-12.29834,163.51798,323.02663)"
       gradientUnits="userSpaceOnUse"
       y2="0"
       x2="1"
       y1="0"
       x1="0">
      <stop
         id="stop426"
         offset="0"
         style="stop-opacity:1;stop-color:#0f5184" />
      <stop
         id="stop428"
         offset="0.81173443"
         style="stop-opacity:1;stop-color:#1b75bb" />
      <stop
         id="stop430"
         offset="1"
         style="stop-opacity:1;stop-color:#1b75bb" />
    </linearGradient>
    <clipPath
       id="clipPath442"
       clipPathUnits="userSpaceOnUse">
      <path
         id="path440"
         d="M 0,500 H 500 V 0 H 0 Z" />
    </clipPath>
    <clipPath
       id="clipPath462"
       clipPathUnits="userSpaceOnUse">
      <path
         id="path460"
         d="m 49.669,435.275 0.111,-0.189 3.076,-6.423 c 1.2,0.842 3.858,2.902 7.61,2.77 v 0 l -3.297,5.126 -0.56,0.306 c -0.507,0.123 -1.228,0.234 -2.047,0.234 v 0 c -1.534,0 -3.416,-0.39 -4.893,-1.824" />
    </clipPath>
    <linearGradient
       id="linearGradient474"
       spreadMethod="pad"
       gradientTransform="matrix(10.795898,0,0,-10.795898,80.915447,401.85964)"
       gradientUnits="userSpaceOnUse"
       y2="0"
       x2="1"
       y1="0"
       x1="0">
      <stop
         id="stop468"
         offset="0"
         style="stop-opacity:1;stop-color:#f68e3d" />
      <stop
         id="stop470"
         offset="0.6461618"
         style="stop-opacity:1;stop-color:#faaf40" />
      <stop
         id="stop472"
         offset="1"
         style="stop-opacity:1;stop-color:#faaf40" />
    </linearGradient>
    <clipPath
       id="clipPath484"
       clipPathUnits="userSpaceOnUse">
      <path
         id="path482"
         d="m 53.516,428.163 3.883,-8.111 0.878,-1.832 10.292,1.219 -2.505,7.449 -0.265,-0.063 -3.256,-0.751 -0.903,2.396 -1.099,2.312 c -1.698,-0.198 -4.965,-0.799 -7.025,-2.619" />
    </clipPath>
    <linearGradient
       id="linearGradient496"
       spreadMethod="pad"
       gradientTransform="matrix(15.053711,0,0,-15.053711,84.761638,393.47927)"
       gradientUnits="userSpaceOnUse"
       y2="0"
       x2="1"
       y1="0"
       x1="0">
      <stop
         id="stop490"
         offset="0"
         style="stop-opacity:1;stop-color:#c2886c" />
      <stop
         id="stop492"
         offset="0.47806175"
         style="stop-opacity:1;stop-color:#deb18a" />
      <stop
         id="stop494"
         offset="1"
         style="stop-opacity:1;stop-color:#deb18a" />
    </linearGradient>
    <clipPath
       id="clipPath506"
       clipPathUnits="userSpaceOnUse">
      <path
         id="path504"
         d="M 0,500 H 500 V 0 H 0 Z" />
    </clipPath>
    <clipPath
       id="clipPath534"
       clipPathUnits="userSpaceOnUse">
      <path
         id="path532"
         d="m 31.254,356.175 c 1.124,-5.972 18.797,-11.993 18.797,-11.993 v 0 c 0.203,0.409 0.477,1.07 0.772,1.842 v 0 c -2.554,0.725 -6.541,2.727 -8.179,3.575 v 0 c 2.198,-1.045 6.302,-2.294 8.431,-2.911 v 0 c 0.923,2.48 1.961,5.62 1.961,5.62 v 0 c -5.287,-1.03 -7.931,3.426 -7.931,3.426 v 0 c -8.418,-1.958 -10.915,0.636 -12.481,1.615 v 0 c -0.291,0.182 -0.521,0.256 -0.702,0.256 v 0 c -0.799,-0.001 -0.668,-1.43 -0.668,-1.43" />
    </clipPath>
    <linearGradient
       id="linearGradient546"
       spreadMethod="pad"
       gradientTransform="matrix(21.790039,0,0,-21.790039,62.492108,319.87136)"
       gradientUnits="userSpaceOnUse"
       y2="0"
       x2="1"
       y1="0"
       x1="0">
      <stop
         id="stop540"
         offset="0"
         style="stop-opacity:1;stop-color:#0f5184" />
      <stop
         id="stop542"
         offset="0.81173443"
         style="stop-opacity:1;stop-color:#1b75bb" />
      <stop
         id="stop544"
         offset="1"
         style="stop-opacity:1;stop-color:#1b75bb" />
    </linearGradient>
    <clipPath
       id="clipPath556"
       clipPathUnits="userSpaceOnUse">
      <path
         id="path554"
         d="m 42.602,349.62 c -0.338,0.177 -0.571,0.298 -0.66,0.348 v 0 c 0.19,-0.115 0.415,-0.231 0.66,-0.348" />
    </clipPath>
    <linearGradient
       id="linearGradient568"
       spreadMethod="pad"
       gradientTransform="matrix(0.6606445,0,0,-0.6606445,73.187907,318.77224)"
       gradientUnits="userSpaceOnUse"
       y2="0"
       x2="1"
       y1="0"
       x1="0">
      <stop
         id="stop562"
         offset="0"
         style="stop-opacity:1;stop-color:#0f5184" />
      <stop
         id="stop564"
         offset="0.81173443"
         style="stop-opacity:1;stop-color:#1b75bb" />
      <stop
         id="stop566"
         offset="1"
         style="stop-opacity:1;stop-color:#1b75bb" />
    </linearGradient>
    <clipPath
       id="clipPath1420"
       clipPathUnits="userSpaceOnUse">
      <path
         id="path1418"
         d="m 109.618,316.98 c -0.005,0 -0.008,0 -0.014,-0.003 v 0 c -0.222,-0.019 -0.34,-0.035 -0.34,-0.035 v 0 c 0,0 -2.153,-6.124 -1.215,-8.717 v 0 c 0.939,-2.594 6.534,-4.175 6.534,-4.175 v 0 l -0.356,-3.272 c 1.329,-0.762 3.694,-1.659 6.031,-1.965 v 0 c 1.751,-0.228 3.183,-0.299 3.183,-0.299 v 0 l -0.11,3.422 0.44,0.496 -0.273,0.553 0.716,0.662 -0.716,0.773 1.764,0.991 -1.931,3.422 0.606,0.549 0.496,5.849 c -3.857,1.568 -8.228,1.906 -11.284,1.906 v 0 c -1.668,0 -2.944,-0.1 -3.531,-0.157" />
    </clipPath>
    <linearGradient
       id="linearGradient1430"
       spreadMethod="pad"
       gradientTransform="matrix(-10.643936,-1.0904051,-1.0904051,10.643936,153.34012,128.49849)"
       gradientUnits="userSpaceOnUse"
       y2="0"
       x2="1"
       y1="0"
       x1="0">
      <stop
         id="stop1426"
         offset="0"
         style="stop-opacity:1;stop-color:#8b5a24" />
      <stop
         id="stop1428"
         offset="1"
         style="stop-opacity:1;stop-color:#8b5624" />
    </linearGradient>
    <clipPath
       id="clipPath1440"
       clipPathUnits="userSpaceOnUse">
      <path
         id="path1438"
         d="M 0,500 H 500 V 0 H 0 Z" />
    </clipPath>
    <clipPath
       id="clipPath1484"
       clipPathUnits="userSpaceOnUse">
      <path
         id="path1482"
         d="m 115.249,293.658 c -0.453,-2.155 -0.391,-5.717 3.384,-8.993 v 0 c 0,0 -3.815,-4.095 0.475,-11.815 v 0 c 0,0 0.369,-4.699 2.239,-7.372 v 0 l 15.389,2.106 c 0,0 0.142,-0.639 0.378,-1.445 v 0 l 8.819,-1.504 c 0.349,0.439 0.618,1.085 0.402,1.974 v 0 c 0,0 0.634,1.171 -0.185,2.142 v 0 c 0,0 0.968,0.959 -0.075,2.477 v 0 c -0.023,0.037 -0.05,0.075 -0.081,0.112 v 0 c 0,0 1.062,0.966 -0.595,1.652 v 0 0.003 c -0.216,-0.03 -0.342,-0.046 -0.342,-0.046 v 0 l -3.878,-0.455 c 1.549,1.002 2.097,2.784 1.824,3.33 v 0 c -0.275,0.547 -1.323,0.73 -1.323,0.73 v 0 c -0.044,-2.055 -3.967,-3.285 -3.967,-3.285 v 0 c -1.508,-0.639 -1.725,-3.012 -1.725,-3.012 v 0 l -11.774,2.253 c 0,0 1.257,3.757 1.048,6.331 v 0 c -0.21,2.577 -2.062,4.936 -2.062,4.936 v 0 l 1.014,5.58 c -2.29,3.884 -6.426,4.332 -8.206,4.332 v 0 c -0.363,0 -0.628,-0.019 -0.759,-0.031" />
    </clipPath>
    <linearGradient
       id="linearGradient1494"
       spreadMethod="pad"
       gradientTransform="matrix(31.513672,0,0,-31.513672,144.25271,99.133749)"
       gradientUnits="userSpaceOnUse"
       y2="0"
       x2="1"
       y1="0"
       x1="0">
      <stop
         id="stop1490"
         offset="0"
         style="stop-opacity:1;stop-color:#8b5a24" />
      <stop
         id="stop1492"
         offset="1"
         style="stop-opacity:1;stop-color:#8b5624" />
    </linearGradient>
    <clipPath
       id="clipPath1504"
       clipPathUnits="userSpaceOnUse">
      <path
         id="path1502"
         d="M 0,500 H 500 V 0 H 0 Z" />
    </clipPath>
    <clipPath
       id="clipPath1520"
       clipPathUnits="userSpaceOnUse">
      <path
         id="path1518"
         d="m 58.85,243.365 c -2.912,0 -9.112,-2.255 -9.112,-2.255 v 0 l -9.299,-14.279 c -0.266,-1.397 -0.24,-2.502 -0.089,-3.342 v 0 c 0.268,-1.534 0.933,-2.201 0.933,-2.201 v 0 l 16.816,12.4 3.946,0.658 1.597,2.819 c 3.286,1.221 7.797,4.917 7.797,4.917 v 0 c -0.984,1.731 -2.453,3.554 -3.883,5.142 v 0 c -2.25,2.498 -4.399,4.407 -4.399,4.407 v 0 c -1.806,-2.112 -4.307,-8.266 -4.307,-8.266" />
    </clipPath>
    <linearGradient
       id="linearGradient1530"
       spreadMethod="pad"
       gradientTransform="matrix(31.20166,0,0,-31.20166,69.434846,56.431599)"
       gradientUnits="userSpaceOnUse"
       y2="0"
       x2="1"
       y1="0"
       x1="0">
      <stop
         id="stop1526"
         offset="0"
         style="stop-opacity:1;stop-color:#8b5a24" />
      <stop
         id="stop1528"
         offset="1"
         style="stop-opacity:1;stop-color:#8b5624" />
    </linearGradient>
    <clipPath
       id="clipPath1540"
       clipPathUnits="userSpaceOnUse">
      <path
         id="path1538"
         d="M 0,500 H 500 V 0 H 0 Z" />
    </clipPath>
    <clipPath
       id="clipPath1568"
       clipPathUnits="userSpaceOnUse">
      <path
         id="path1566"
         d="m 77.674,300.461 c -1.189,-2.488 -5.09,-17.681 -5.09,-17.681 v 0 l 0.595,-0.78 7.051,16.26 c 3.625,0.427 11.546,-0.448 14.637,-0.824 v 0 c 0.289,1.279 0.467,2.165 0.467,2.165 v 0 c -3.78,0.876 -8.11,1.099 -11.536,1.099 v 0 c -3.546,0 -6.124,-0.239 -6.124,-0.239" />
    </clipPath>
    <linearGradient
       id="linearGradient1578"
       spreadMethod="pad"
       gradientTransform="matrix(22.75,0,0,-22.75,101.78103,111.32173)"
       gradientUnits="userSpaceOnUse"
       y2="0"
       x2="1"
       y1="0"
       x1="0">
      <stop
         id="stop1574"
         offset="0"
         style="stop-opacity:1;stop-color:#8b5a24" />
      <stop
         id="stop1576"
         offset="1"
         style="stop-opacity:1;stop-color:#8b5624" />
    </linearGradient>
    <clipPath
       id="clipPath1588"
       clipPathUnits="userSpaceOnUse">
      <path
         id="path1586"
         d="M 0,500 H 500 V 0 H 0 Z" />
    </clipPath>
    <clipPath
       id="clipPath1604"
       clipPathUnits="userSpaceOnUse">
      <path
         id="path1602"
         d="m 101.337,250.383 c 2.848,-1.83 6.661,-4.574 8.612,-7.227 v 0 l -7.963,-10.469 c 5.894,4.824 12.059,9.395 12.059,9.395 v 0 c -2.344,3.935 -8.787,10.512 -8.787,10.512 v 0 c -1.366,-0.455 -2.698,-1.265 -3.921,-2.211" />
    </clipPath>
    <linearGradient
       id="linearGradient1614"
       spreadMethod="pad"
       gradientTransform="matrix(12.70752,0,0,-12.70752,130.53445,62.612259)"
       gradientUnits="userSpaceOnUse"
       y2="0"
       x2="1"
       y1="0"
       x1="0">
      <stop
         id="stop1610"
         offset="0"
         style="stop-opacity:1;stop-color:#8b5a24" />
      <stop
         id="stop1612"
         offset="1"
         style="stop-opacity:1;stop-color:#8b5624" />
    </linearGradient>
    <clipPath
       id="clipPath1636"
       clipPathUnits="userSpaceOnUse">
      <path
         id="path1634"
         d="M 83.1333,300.85 H 114.804 V 269.576 H 83.1333 Z" />
    </clipPath>
  </defs>
  <metadata
     id="metadata6128">
    <rdf:RDF>
      <cc:Work
         rdf:about="">
        <dc:format>image/svg+xml</dc:format>
        <dc:type
           rdf:resource="http://purl.org/dc/dcmitype/StillImage" />
        <dc:title></dc:title>
      </cc:Work>
    </rdf:RDF>
  </metadata>
  <g
     transform="translate(-57.732035,-88.344376)"
     id="layer1">
    <g
       id="g8350"
       transform="matrix(0.35277777,0,0,-0.35277777,47.431963,201.22326)">
      <g
         id="g1414">
        <g
           id="g1416"
           clip-path="url(#clipPath1420)">
          <g
             id="g1422">
            <g
               id="g1424">
              <path
                 d="m 109.618,316.98 c -0.005,0 -0.008,0 -0.014,-0.003 v 0 c -0.222,-0.019 -0.34,-0.035 -0.34,-0.035 v 0 c 0,0 -2.153,-6.124 -1.215,-8.717 v 0 c 0.939,-2.594 6.534,-4.175 6.534,-4.175 v 0 l -0.356,-3.272 c 1.329,-0.762 3.694,-1.659 6.031,-1.965 v 0 c 1.751,-0.228 3.183,-0.299 3.183,-0.299 v 0 l -0.11,3.422 0.44,0.496 -0.273,0.553 0.716,0.662 -0.716,0.773 1.764,0.991 -1.931,3.422 0.606,0.549 0.496,5.849 c -3.857,1.568 -8.228,1.906 -11.284,1.906 v 0 c -1.668,0 -2.944,-0.1 -3.531,-0.157"
                 style="fill:url(#linearGradient1430);stroke:none"
                 id="path1432" />
            </g>
          </g>
        </g>
      </g>
      <g
         id="g1434">
        <g
           id="g1436"
           clip-path="url(#clipPath1440)">
          <g
             id="g1442"
             transform="translate(123.1929,309.6592)">
            <path
               d="m 0,0 c 0,0 -0.28,-0.671 -0.56,-0.504 -0.28,0.168 -3.525,1.455 -3.525,1.455 0,0 -1.064,-3.077 0,-3.19 1.063,-0.112 3.581,0.895 3.581,0.895 z"
               style="fill:#7a4e1c;fill-opacity:1;fill-rule:nonzero;stroke:none"
               id="path1444" />
          </g>
          <g
             id="g1446"
             transform="translate(122.9683,307.4121)">
            <path
               d="m 0,0 v -2.846 l 1.679,0.951 z"
               style="fill:#7a4e1c;fill-opacity:1;fill-rule:nonzero;stroke:none"
               id="path1448" />
          </g>
          <g
             id="g1450"
             transform="translate(121.3457,303.2793)">
            <path
               d="M 0,0 2.312,0.964 2.868,0.368 2.15,-0.295 Z"
               style="fill:#7a4e1c;fill-opacity:1;fill-rule:nonzero;stroke:none"
               id="path1452" />
          </g>
          <g
             id="g1454"
             transform="translate(120.2578,298.8125)">
            <path
               d="m 0,0 c -2.337,0.306 -4.77,1.214 -6.03,1.965 l 0.355,3.272 c 0,0 -5.595,1.581 -6.534,4.175 -0.938,2.593 1.215,8.717 1.215,8.717 0,0 0.118,0.017 0.34,0.036 0.007,0.002 0.009,0.002 0.014,0.002 2.4,0.046 5.857,-0.177 7.417,-1.668 l -0.498,-4.701 c 0,0 -1.011,-2.799 -0.228,-3.861 0.782,-1.064 3.247,-2.183 3.247,-2.183 0,0 -0.628,-3.69 0.702,-5.754"
               style="fill:#834b20;fill-opacity:1;fill-rule:nonzero;stroke:none"
               id="path1456" />
          </g>
          <g
             id="g1458"
             transform="translate(119.1074,310.6104)">
            <path
               d="m 0,0 c 0,0 3.814,-0.896 4.085,-0.737 0,0 0.095,-0.85 -0.413,-0.863 z"
               style="fill:#3e2300;fill-opacity:1;fill-rule:nonzero;stroke:none"
               id="path1460" />
          </g>
          <g
             id="g1462"
             transform="translate(107.8125,306.9355)">
            <path
               d="m 0,0 c 0,0 1.965,-2.523 6.047,-3.321 l -0.068,-3.59 2.517,-0.997 c 0,0 -2.518,-2.606 -1.689,-4.261 0,0 -8.516,4.186 -9.783,6.084 z"
               style="fill:#834b20;fill-opacity:1;fill-rule:nonzero;stroke:none"
               id="path1464" />
          </g>
          <g
             id="g1466"
             transform="translate(115.1558,309.0107)">
            <path
               d="m 0,0 c 0,0 -0.795,1.037 -1.742,1.306 -0.948,0.268 -2.903,-3.454 -0.265,-4.327 1.377,-0.458 1.783,0.646 1.783,0.646 z"
               style="fill:#8b5a24;fill-opacity:1;fill-rule:nonzero;stroke:none"
               id="path1468" />
          </g>
          <g
             id="g1470"
             transform="translate(114.8037,294.1973)">
            <path
               d="m 0,0 c 0,0 -0.793,-0.493 -1.826,-1.4 -2.448,-2.144 -6.239,-6.604 -3.952,-12.284 0.544,-1.356 1.469,-2.774 2.885,-4.242 0,0 -7.594,-11.53 -15.236,-14.882 0,0 -0.301,0.207 -0.845,0.579 -1.82,1.242 -6.377,4.323 -11.461,7.608 -0.407,0.266 -0.82,0.531 -1.235,0.796 0,0 10.993,13.274 12.736,29.899 l 7.509,0.579 c 0,0 6.346,-5.294 11.425,-6.653"
               style="fill:#faaf40;fill-opacity:1;fill-rule:nonzero;stroke:none"
               id="path1472" />
          </g>
          <g
             id="g1474"
             transform="translate(152.3589,269.1177)">
            <path
               d="m 0,0 -6.208,-0.367 6.022,-0.684 c 0,0 0.083,-0.547 -0.026,-1.139 l -5.811,-0.319 4.743,-1.28 c 0,0 0.228,-0.456 0,-0.911 0,0 -2.397,0.101 -5.146,0.217 -3.606,0.152 -7.811,0.33 -7.993,0.33 -0.32,0 -0.775,1.187 -0.775,1.187 0,0 -0.016,-0.005 -0.051,-0.013 -0.984,-0.241 -16.009,-3.917 -17.242,-4.049 0,0 -6.937,11.133 -7.438,21.307 l -2.145,3.239 1.689,-3.649 c 0,0 -0.703,-3.331 0.638,-5.521 l -0.638,-0.502 c 0,0 -5.161,4.446 -1.473,11.286 2.076,3.848 4.651,5.401 4.651,5.401 0,0 0.031,0.005 0.093,0.008 0.775,0.07 6.208,0.375 8.964,-4.301 l -1.013,-5.58 c 0,0 1.853,-2.36 2.062,-4.937 0.209,-2.574 -1.049,-6.33 -1.049,-6.33 L -16.371,1.14 c 0,0 0.217,2.372 1.725,3.011 0,0 3.922,1.231 3.967,3.285 0,0 1.048,-0.183 1.323,-0.73 0.273,-0.546 -0.275,-2.327 -1.824,-3.33 l 3.878,0.456 c 0,0 0.126,0.016 0.343,0.045 1.171,0.148 4.998,0.609 5.999,0.456 V 3.649 L -6.364,2.223 -6.664,2.142 -6.284,2.11 -0.231,1.595 C -0.231,1.595 0.228,0.547 0,0"
               style="fill:#834b20;fill-opacity:1;fill-rule:nonzero;stroke:none"
               id="path1476" />
          </g>
        </g>
      </g>
      <g
         id="g1478">
        <g
           id="g1480"
           clip-path="url(#clipPath1484)">
          <g
             id="g1486">
            <g
               id="g1488">
              <path
                 d="m 115.249,293.658 c -0.453,-2.155 -0.391,-5.717 3.384,-8.993 v 0 c 0,0 -3.815,-4.095 0.475,-11.815 v 0 c 0,0 0.369,-4.699 2.239,-7.372 v 0 l 15.389,2.106 c 0,0 0.142,-0.639 0.378,-1.445 v 0 l 8.819,-1.504 c 0.349,0.439 0.618,1.085 0.402,1.974 v 0 c 0,0 0.634,1.171 -0.185,2.142 v 0 c 0,0 0.968,0.959 -0.075,2.477 v 0 c -0.023,0.037 -0.05,0.075 -0.081,0.112 v 0 c 0,0 1.062,0.966 -0.595,1.652 v 0 0.003 c -0.216,-0.03 -0.342,-0.046 -0.342,-0.046 v 0 l -3.878,-0.455 c 1.549,1.002 2.097,2.784 1.824,3.33 v 0 c -0.275,0.547 -1.323,0.73 -1.323,0.73 v 0 c -0.044,-2.055 -3.967,-3.285 -3.967,-3.285 v 0 c -1.508,-0.639 -1.725,-3.012 -1.725,-3.012 v 0 l -11.774,2.253 c 0,0 1.257,3.757 1.048,6.331 v 0 c -0.21,2.577 -2.062,4.936 -2.062,4.936 v 0 l 1.014,5.58 c -2.29,3.884 -6.426,4.332 -8.206,4.332 v 0 c -0.363,0 -0.628,-0.019 -0.759,-0.031"
                 style="fill:url(#linearGradient1494);stroke:none"
                 id="path1496" />
            </g>
          </g>
        </g>
      </g>
      <g
         id="g1498">
        <g
           id="g1500"
           clip-path="url(#clipPath1504)">
          <g
             id="g1506"
             transform="translate(95.334,260.4507)">
            <path
               d="m 0,0 c 0,0 -17.43,-12.737 -23.061,-18.369 0,0 -1.791,2.798 -4.363,5.684 -1.405,1.581 -3.046,3.187 -4.754,4.373 0,0 2.816,3.083 8.983,5.899 0,0 0.268,7.776 2.816,8.849 2.547,1.073 8.178,2.279 8.178,2.279 0,0 2.443,-1.807 5.191,-3.802 C -4.261,2.92 -1.207,0.738 0,0"
               style="fill:#004538;fill-opacity:1;fill-rule:nonzero;stroke:none"
               id="path1508" />
          </g>
          <g
             id="g1510"
             transform="translate(104.4507,253.3906)">
            <path
               d="m 0,0 c 0,0 -1.502,-0.837 -3.374,-2.263 -0.163,-0.124 -0.326,-0.252 -0.495,-0.383 -2.11,-1.674 -4.548,-4.026 -5.83,-6.739 0,0 -5.333,2.332 -10.592,6.524 0,0 2.271,2.041 4.947,4.21 1.237,1.003 2.559,2.032 3.784,2.899 1.113,0.788 2.146,1.442 2.955,1.823 0,0 4.763,-2.944 8.605,-6.071"
               style="fill:#00271c;fill-opacity:1;fill-rule:nonzero;stroke:none"
               id="path1512" />
          </g>
        </g>
      </g>
      <g
         id="g1514">
        <g
           id="g1516"
           clip-path="url(#clipPath1520)">
          <g
             id="g1522">
            <g
               id="g1524">
              <path
                 d="m 58.85,243.365 c -2.912,0 -9.112,-2.255 -9.112,-2.255 v 0 l -9.299,-14.279 c -0.266,-1.397 -0.24,-2.502 -0.089,-3.342 v 0 c 0.268,-1.534 0.933,-2.201 0.933,-2.201 v 0 l 16.816,12.4 3.946,0.658 1.597,2.819 c 3.286,1.221 7.797,4.917 7.797,4.917 v 0 c -0.984,1.731 -2.453,3.554 -3.883,5.142 v 0 c -2.25,2.498 -4.399,4.407 -4.399,4.407 v 0 c -1.806,-2.112 -4.307,-8.266 -4.307,-8.266"
                 style="fill:url(#linearGradient1530);stroke:none"
                 id="path1532" />
            </g>
          </g>
        </g>
      </g>
      <g
         id="g1534">
        <g
           id="g1536"
           clip-path="url(#clipPath1540)">
          <g
             id="g1542"
             transform="translate(114.0449,242.082)">
            <path
               d="m 0,0 c 0,0 -6.165,-4.571 -12.059,-9.396 -4.96,-4.059 -9.728,-8.298 -10.455,-10.135 0,0 -4.183,0.92 -4.266,3.01 0,0 7.615,13.728 10.378,14.565 l 5.773,0.836 c 0,0 -6.205,0.31 -8.082,3.044 0,0 2.571,3.723 6.003,6.376 1.223,0.947 2.556,1.757 3.921,2.212 0,0 6.443,-6.577 8.787,-10.512"
               style="fill:#834b20;fill-opacity:1;fill-rule:nonzero;stroke:none"
               id="path1544" />
          </g>
          <g
             id="g1546"
             transform="translate(87.9189,222.5752)">
            <path
               d="m 0,0 c 1.159,-5.39 0.679,-7.511 0.137,-8.346 -3.228,2.833 -6.573,4.927 -6.573,4.927 0,0 1.143,3.045 4.344,5.895 0,0 0.035,-1.629 2.092,-2.476"
               style="fill:#d0d2d3;fill-opacity:1;fill-rule:nonzero;stroke:none"
               id="path1548" />
          </g>
          <g
             id="g1550"
             transform="translate(92.832,211.2334)">
            <path
               d="m 0,0 c 0.275,4.083 -2.095,9.124 -3.006,10.895 0.498,-0.049 1.056,-0.065 1.687,-0.039 L 2.365,2.475 c 0,0 2.443,-1.218 3.808,-2.82 C 7.125,-1.465 3.467,-1.296 0,0"
               style="fill:#d0d2d3;fill-opacity:1;fill-rule:nonzero;stroke:none"
               id="path1552" />
          </g>
          <g
             id="g1554"
             transform="translate(74.7393,272.6738)">
            <path
               d="m 0,0 0.035,-0.183 c 0,0 -0.42,0.599 -0.035,0.183"
               style="fill:#7a4e1c;fill-opacity:1;fill-rule:nonzero;stroke:none"
               id="path1556" />
          </g>
          <g
             id="g1558"
             transform="translate(95.334,299.6006)">
            <path
               d="m 0,0 c 0,0 -0.178,-0.885 -0.467,-2.164 -0.632,-2.789 -1.799,-7.449 -2.839,-8.919 h -5.007 l -3.888,6.249 1.474,-4.908 -8.76,-9.744 1.084,-0.863 c 0,0 -1.524,-5.053 -0.448,-6.911 0,0 -1.26,-0.185 -1.709,0.298 -0.01,0.013 -0.023,0.024 -0.035,0.035 l -0.632,3.456 -2.005,1.153 -0.223,1.818 v -2.376 l 1.708,-1.078 -1.561,-3.698 -6.65,-2.783 c 0,0 -0.333,0.762 0,1.207 0.335,0.445 4.942,2.972 4.942,2.972 l -0.297,0.409 -6.018,-2.861 c 0,0 -0.817,0.965 0,1.858 0.818,0.891 4.532,2.561 4.532,2.561 l -5.907,-0.815 c 0,0 -0.038,1.113 1.115,1.373 1.151,0.26 4.309,0.931 4.309,0.931 l -5.201,1.074 c 0,0 0.036,0.744 1.002,0.781 0.968,0.038 3.79,-0.52 3.79,-0.52 l 3.64,4.644 1.896,-0.78 -0.595,0.78 c 0,0 3.901,15.193 5.089,17.682 0,0 9.97,0.923 17.661,-0.861"
               style="fill:#834b20;fill-opacity:1;fill-rule:nonzero;stroke:none"
               id="path1560" />
          </g>
        </g>
      </g>
      <g
         id="g1562">
        <g
           id="g1564"
           clip-path="url(#clipPath1568)">
          <g
             id="g1570">
            <g
               id="g1572">
              <path
                 d="m 77.674,300.461 c -1.189,-2.488 -5.09,-17.681 -5.09,-17.681 v 0 l 0.595,-0.78 7.051,16.26 c 3.625,0.427 11.546,-0.448 14.637,-0.824 v 0 c 0.289,1.279 0.467,2.165 0.467,2.165 v 0 c -3.78,0.876 -8.11,1.099 -11.536,1.099 v 0 c -3.546,0 -6.124,-0.239 -6.124,-0.239"
                 style="fill:url(#linearGradient1578);stroke:none"
                 id="path1580" />
            </g>
          </g>
        </g>
      </g>
      <g
         id="g1582">
        <g
           id="g1584"
           clip-path="url(#clipPath1588)">
          <g
             id="g1590"
             transform="translate(111.9106,276.2715)">
            <path
               d="m 0,0 c 0,0 -7.594,-11.53 -15.236,-14.882 0,0 -0.301,0.207 -0.845,0.579 l -1.949,8.206 3.453,-6.293 -1.973,8.266 3.333,-7.65 -0.99,8.393 3.087,-7.406 -0.863,7.776 2.713,-5.924 -1.85,8.267 3.33,-6.663 -1.233,7.404 2.593,-5.06 -1.607,9.996 2.1,-4.936 L -6.8,7.353 -4.704,2.54 C -3.958,2.69 -3.36,3.368 -2.885,4.242 -2.341,2.886 -1.416,1.467 0,0"
               style="fill:#db8e37;fill-opacity:1;fill-rule:nonzero;stroke:none"
               id="path1592" />
          </g>
          <g
             id="g1594"
             transform="translate(92.3169,212.0166)">
            <path
               d="M 0,0 C -1.279,0.544 -2.341,1.191 -3.098,1.889 -3.261,2.04 -3.425,2.188 -3.589,2.336 -2.967,3.742 -3,6.236 -3.688,9.77 -3.419,9.705 -3.135,9.652 -2.839,9.612 -2.021,7.983 -0.041,3.667 0,0"
               style="fill:#231f20;fill-opacity:1;fill-rule:nonzero;stroke:none"
               id="path1596" />
          </g>
        </g>
      </g>
      <g
         id="g1598">
        <g
           id="g1600"
           clip-path="url(#clipPath1604)">
          <g
             id="g1606">
            <g
               id="g1608">
              <path
                 d="m 101.337,250.383 c 2.848,-1.83 6.661,-4.574 8.612,-7.227 v 0 l -7.963,-10.469 c 5.894,4.824 12.059,9.395 12.059,9.395 v 0 c -2.344,3.935 -8.787,10.512 -8.787,10.512 v 0 c -1.366,-0.455 -2.698,-1.265 -3.921,-2.211"
                 style="fill:url(#linearGradient1614);stroke:none"
                 id="path1616" />
            </g>
          </g>
        </g>
      </g>
      <g
         id="g1626"
         transform="translate(71.4395,242.082)">
        <path
           d="m 0,0 c 0,0 -4.511,-3.696 -7.798,-4.917 l -1.596,-2.818 -3.947,-0.66 -16.816,-12.399 c 0,0 -0.664,0.667 -0.933,2.201 l 18.159,13.722 3.395,2.145 c 1.437,2.96 3.728,5.787 5.653,7.868 C -2.454,3.554 -0.985,1.73 0,0"
           style="fill:#834b20;fill-opacity:1;fill-rule:nonzero;stroke:none"
           id="path1628" />
      </g>
      <g
         id="g1630">
        <g
           id="g1632" />
        <g
           id="g1644">
          <g
             clip-path="url(#clipPath1636)"
             id="g1642"
             style="opacity:0.5">
            <g
               transform="translate(112.9775,292.7974)"
               id="g1640">
              <path
                 d="m 0,0 c -3.381,1.025 -7.964,2.819 -11.565,5.73 l 1.787,-12.422 -3.576,10.458 1.521,-11.622 -3.485,10.994 0.804,-14.389 -2.774,11.707 c 0,0 -2.059,-17.386 -11.32,-23.677 -0.408,0.266 -0.821,0.531 -1.236,0.796 0,0 10.993,13.274 12.737,29.899 l 7.508,0.579 c 0,0 6.346,-5.294 11.425,-6.653 C 1.826,1.4 1.033,0.907 0,0"
                 style="fill:#ffffff;fill-opacity:1;fill-rule:nonzero;stroke:none"
                 id="path1638" />
            </g>
          </g>
        </g>
      </g>
      <g
         id="g1646"
         transform="translate(104.4507,253.3906)">
        <path
           d="m 0,0 c 0,0 -1.502,-0.837 -3.374,-2.263 -0.163,-0.124 -0.326,-0.252 -0.495,-0.383 -1.038,0.739 -2.854,1.968 -4.703,2.925 l 2.568,1.009 -5.781,-1.467 4.039,2.292 -7.069,-1.652 5.784,2.572 -6.313,-1.684 c 1.237,1.003 2.559,2.032 3.784,2.899 1.113,0.788 2.146,1.442 2.955,1.823 0,0 4.763,-2.944 8.605,-6.071"
           style="fill:#004538;fill-opacity:1;fill-rule:nonzero;stroke:none"
           id="path1648" />
      </g>
      <g
         id="g1650"
         transform="translate(95.334,260.4507)">
        <path
           d="m 0,0 c 0,0 -17.43,-12.737 -23.061,-18.369 0,0 -1.791,2.798 -4.363,5.684 3.73,5.019 10.083,8.575 10.083,8.575 l -0.357,6.167 1.161,-5.81 -0.177,5.362 0.893,-5.183 c 3.36,2 7.35,6.69 8.811,8.487 C -4.261,2.92 -1.207,0.738 0,0"
           style="fill:#00271c;fill-opacity:1;fill-rule:nonzero;stroke:none"
           id="path1652" />
      </g>
      <g
         id="g1654"
         transform="translate(81.4155,218.6436)">
        <path
           d="m 0,0 c 1.55,-0.673 3.021,-1.534 4.376,-2.572 1.326,-1.073 2.576,-2.14 3.966,-3.044 0.684,-0.463 1.395,-0.885 2.126,-1.263 0.726,-0.387 1.485,-0.709 2.258,-0.993 1.549,-0.556 3.19,-0.867 4.88,-0.899 -1.666,-0.304 -3.419,-0.167 -5.07,0.3 -0.83,0.225 -1.63,0.548 -2.408,0.911 -0.773,0.372 -1.515,0.806 -2.23,1.274 -0.709,0.48 -1.392,0.993 -2.044,1.539 C 5.208,-4.198 4.58,-3.611 3.978,-3.054 2.736,-1.957 1.384,-0.963 0,0"
           style="fill:#231f20;fill-opacity:1;fill-rule:nonzero;stroke:none"
           id="path1656" />
      </g>
      <g
         id="g1658"
         transform="translate(39.4536,222.792)">
        <path
           d="m 0,0 c -2.877,-4.702 -4.688,-5.908 -5.655,-6.138 -0.386,4.277 -1.364,8.099 -1.364,8.099 0,0 2.928,1.419 7.21,1.273 C 0.191,3.234 -0.906,2.031 0,0"
           style="fill:#d0d2d3;fill-opacity:1;fill-rule:nonzero;stroke:none"
           id="path1660" />
      </g>
      <g
         id="g1662"
         transform="translate(35.1904,211.1904)">
        <path
           d="M 0,0 C 3.016,2.766 4.775,8.052 5.335,9.963 5.663,9.584 6.056,9.188 6.531,8.771 L 3.419,0.16 c 0,0 0.93,-2.565 0.815,-4.666 C 4.151,-5.975 1.619,-3.329 0,0"
           style="fill:#d0d2d3;fill-opacity:1;fill-rule:nonzero;stroke:none"
           id="path1664" />
      </g>
      <g
         id="g1666"
         transform="translate(35.3574,212.1113)">
        <path
           d="M 0,0 C -0.551,1.278 -0.874,2.479 -0.94,3.506 -0.956,3.728 -0.971,3.948 -0.988,4.168 0.432,4.758 2.127,6.587 4.065,9.62 4.216,9.388 4.385,9.153 4.572,8.92 4.042,7.177 2.5,2.686 0,0"
           style="fill:#231f20;fill-opacity:1;fill-rule:nonzero;stroke:none"
           id="path1668" />
      </g>
      <g
         id="g1670"
         transform="translate(32.0317,224.4297)">
        <path
           d="m 0,0 c 0.659,-1.557 1.13,-3.194 1.396,-4.882 0.221,-1.689 0.391,-3.324 0.774,-4.939 0.177,-0.807 0.399,-1.602 0.669,-2.378 0.26,-0.782 0.587,-1.538 0.95,-2.277 0.739,-1.472 1.713,-2.829 2.915,-4.016 -1.415,0.928 -2.592,2.237 -3.465,3.714 -0.447,0.734 -0.803,1.52 -1.116,2.319 -0.304,0.802 -0.541,1.628 -0.737,2.46 -0.182,0.836 -0.323,1.68 -0.418,2.523 C 0.877,-6.632 0.827,-5.774 0.774,-4.955 0.632,-3.305 0.339,-1.652 0,0"
           style="fill:#231f20;fill-opacity:1;fill-rule:nonzero;stroke:none"
           id="path1672" />
      </g>
    </g>
  </g>
</svg>
