<?xml version="1.0" encoding="UTF-8" standalone="no"?>
<!-- Created with Inkscape (http://www.inkscape.org/) -->

<svg
   xmlns:dc="http://purl.org/dc/elements/1.1/"
   xmlns:cc="http://creativecommons.org/ns#"
   xmlns:rdf="http://www.w3.org/1999/02/22-rdf-syntax-ns#"
   xmlns:svg="http://www.w3.org/2000/svg"
   xmlns="http://www.w3.org/2000/svg"
   xmlns:sodipodi="http://sodipodi.sourceforge.net/DTD/sodipodi-0.dtd"
   xmlns:inkscape="http://www.inkscape.org/namespaces/inkscape"
   width="48pt"
   height="48pt"
   viewBox="0 0 16.933334 16.933333"
   version="1.1"
   id="svg979"
   inkscape:version="0.92.4 (5da689c313, 2019-01-14)"
   sodipodi:docname="28 - Weigh Scale.svg"
   inkscape:export-filename="E:\TR Design Studio Creative\Project Design\TR Creative Design\Icon Design\Project Hiring\Icon Icons\Project - 001\002 - Beauty And Fashion\Send\3 - Flat\28 - Weigh Scale.png"
   inkscape:export-xdpi="768"
   inkscape:export-ydpi="768">
  <defs
     id="defs973" />
  <sodipodi:namedview
     id="base"
     pagecolor="#ffffff"
     bordercolor="#666666"
     borderopacity="1.0"
     inkscape:pageopacity="0.0"
     inkscape:pageshadow="2"
     inkscape:zoom="6.0435533"
     inkscape:cx="32"
     inkscape:cy="32"
     inkscape:document-units="pt"
     inkscape:current-layer="layer1"
     showgrid="false"
     units="pt"
     inkscape:window-width="1366"
     inkscape:window-height="716"
     inkscape:window-x="-8"
     inkscape:window-y="-8"
     inkscape:window-maximized="1"
     inkscape:snap-bbox="true"
     inkscape:bbox-nodes="true"
     inkscape:snap-nodes="false"
     showguides="false">
    <inkscape:grid
       type="xygrid"
       id="grid1526" />
    <sodipodi:guide
       position="0.97013909,15.963209"
       orientation="56.666615,0"
       id="guide1528"
       inkscape:locked="false" />
    <sodipodi:guide
       position="0.97013909,0.97016731"
       orientation="0,56.666667"
       id="guide1530"
       inkscape:locked="false" />
    <sodipodi:guide
       position="15.963195,0.97016731"
       orientation="-56.666615,0"
       id="guide1532"
       inkscape:locked="false" />
    <sodipodi:guide
       position="15.963195,15.963209"
       orientation="0,-56.666667"
       id="guide1534"
       inkscape:locked="false" />
  </sodipodi:namedview>
  <metadata
     id="metadata976">
    <rdf:RDF>
      <cc:Work
         rdf:about="">
        <dc:format>image/svg+xml</dc:format>
        <dc:type
           rdf:resource="http://purl.org/dc/dcmitype/StillImage" />
        <dc:title></dc:title>
      </cc:Work>
    </rdf:RDF>
  </metadata>
  <g
     inkscape:label="Layer 1"
     inkscape:groupmode="layer"
     id="layer1"
     transform="translate(0,-280.06668)">
    <g
       style="display:inline;stroke-width:0.77647221"
       transform="matrix(1.2878761,0,0,1.2878761,-28.06179,-170.83919)"
       id="g1063">
      <path
         id="path1054"
         d="m 24.394565,350.86917 h 7.937532 c 1.026046,0 1.852068,0.82602 1.852068,1.85207 v 7.93753 c 0,1.02605 -0.826022,1.85207 -1.852068,1.85207 h -7.937532 c -1.026045,0 -1.852067,-0.82602 -1.852067,-1.85207 v -7.93753 c 0,-1.02605 0.826022,-1.85207 1.852067,-1.85207 z"
         style="color:#000000;font-style:normal;font-variant:normal;font-weight:normal;font-stretch:normal;font-size:medium;line-height:normal;font-family:sans-serif;font-variant-ligatures:normal;font-variant-position:normal;font-variant-caps:normal;font-variant-numeric:normal;font-variant-alternates:normal;font-feature-settings:normal;text-indent:0;text-align:start;text-decoration:none;text-decoration-line:none;text-decoration-style:solid;text-decoration-color:#000000;letter-spacing:normal;word-spacing:normal;text-transform:none;writing-mode:lr-tb;direction:ltr;text-orientation:mixed;dominant-baseline:auto;baseline-shift:baseline;text-anchor:start;white-space:normal;shape-padding:0;clip-rule:nonzero;display:inline;overflow:visible;visibility:visible;isolation:auto;mix-blend-mode:normal;color-interpolation:sRGB;color-interpolation-filters:linearRGB;solid-color:#000000;solid-opacity:1;vector-effect:none;fill:#dbdbdb;fill-opacity:1;fill-rule:nonzero;stroke:none;stroke-width:0.41088346;stroke-linecap:round;stroke-linejoin:round;stroke-miterlimit:4;stroke-dasharray:none;stroke-dashoffset:0;stroke-opacity:1;color-rendering:auto;image-rendering:auto;shape-rendering:auto;text-rendering:auto;enable-background:accumulate"
         inkscape:connector-curvature="0" />
      <path
         style="color:#000000;font-style:normal;font-variant:normal;font-weight:normal;font-stretch:normal;font-size:medium;line-height:normal;font-family:sans-serif;font-variant-ligatures:normal;font-variant-position:normal;font-variant-caps:normal;font-variant-numeric:normal;font-variant-alternates:normal;font-feature-settings:normal;text-indent:0;text-align:start;text-decoration:none;text-decoration-line:none;text-decoration-style:solid;text-decoration-color:#000000;letter-spacing:normal;word-spacing:normal;text-transform:none;writing-mode:lr-tb;direction:ltr;text-orientation:mixed;dominant-baseline:auto;baseline-shift:baseline;text-anchor:start;white-space:normal;shape-padding:0;clip-rule:nonzero;display:inline;overflow:visible;visibility:visible;opacity:1;isolation:auto;mix-blend-mode:normal;color-interpolation:sRGB;color-interpolation-filters:linearRGB;solid-color:#000000;solid-opacity:1;vector-effect:none;fill:#f5f5f5;fill-opacity:1;fill-rule:nonzero;stroke:none;stroke-width:0.41088319;stroke-linecap:round;stroke-linejoin:round;stroke-miterlimit:4;stroke-dasharray:none;stroke-dashoffset:0;stroke-opacity:1;color-rendering:auto;image-rendering:auto;shape-rendering:auto;text-rendering:auto;enable-background:accumulate"
         d="m 24.696683,351.66281 c -0.602587,0 -1.096057,0.49347 -1.096057,1.09606 v 1.51257 c 0,0.60259 0.493667,1.09554 1.096057,1.09554 h 7.333402 c 0.60239,0 1.095542,-0.49315 1.095542,-1.09554 v -1.51257 c 0,-0.60239 -0.492954,-1.09606 -1.095542,-1.09606 z"
         id="path1074"
         inkscape:connector-curvature="0"
         sodipodi:nodetypes="sssssssss" />
      <path
         inkscape:connector-curvature="0"
         id="path1365-4"
         transform="matrix(0.26458333,0,0,0.26458333,0,284.3)"
         d="m 94.201172,254.59961 v 3.00195 c 0,1.33365 2,1.33365 2,0 v -3.00195 z m 4.996094,0 v 4.25 c 0,1.33364 2.001954,1.33364 2.001954,0 v -4.25 z m 5.005854,0 v 3.00195 c 0,1.33365 2.00001,1.33365 2,0 v -3.00195 z m 3.99415,0 v 3.00195 c 0,1.33365 2,1.33365 2,0 v -3.00195 z m 5.0039,0 v 4.25 c 0,1.33364 2,1.33364 2,0 v -4.25 z m 4.99805,0 v 3.00195 c 0,1.33365 2,1.33365 2,0 v -3.00195 z"
         style="color:#000000;font-style:normal;font-variant:normal;font-weight:normal;font-stretch:normal;font-size:medium;line-height:normal;font-family:sans-serif;font-variant-ligatures:normal;font-variant-position:normal;font-variant-caps:normal;font-variant-numeric:normal;font-variant-alternates:normal;font-feature-settings:normal;text-indent:0;text-align:start;text-decoration:none;text-decoration-line:none;text-decoration-style:solid;text-decoration-color:#000000;letter-spacing:normal;word-spacing:normal;text-transform:none;writing-mode:lr-tb;direction:ltr;text-orientation:mixed;dominant-baseline:auto;baseline-shift:baseline;text-anchor:start;white-space:normal;shape-padding:0;clip-rule:nonzero;display:inline;overflow:visible;visibility:visible;opacity:1;isolation:auto;mix-blend-mode:normal;color-interpolation:sRGB;color-interpolation-filters:linearRGB;solid-color:#000000;solid-opacity:1;vector-effect:none;fill:#bebebe;fill-opacity:1;fill-rule:nonzero;stroke:none;stroke-width:1.55294538;stroke-linecap:round;stroke-linejoin:round;stroke-miterlimit:4;stroke-dasharray:none;stroke-dashoffset:0;stroke-opacity:1;color-rendering:auto;image-rendering:auto;shape-rendering:auto;text-rendering:auto;enable-background:accumulate" />
      <path
         inkscape:connector-curvature="0"
         id="path1042"
         d="m 32.490523,351.76823 c 0.06626,0.14093 0.105937,0.29624 0.105937,0.46147 v 1.51257 c 0,0.60239 -0.493152,1.09554 -1.095541,1.09554 h -7.333402 c -0.165229,0 -0.320545,-0.0397 -0.461471,-0.10593 0.175288,0.37331 0.55305,0.6351 0.990638,0.6351 h 7.333401 c 0.60239,0 1.095542,-0.49315 1.095542,-1.09554 v -1.51257 c 0,-0.43759 -0.26179,-0.81535 -0.635104,-0.99064 z"
         style="color:#000000;font-style:normal;font-variant:normal;font-weight:normal;font-stretch:normal;font-size:medium;line-height:normal;font-family:sans-serif;font-variant-ligatures:normal;font-variant-position:normal;font-variant-caps:normal;font-variant-numeric:normal;font-variant-alternates:normal;font-feature-settings:normal;text-indent:0;text-align:start;text-decoration:none;text-decoration-line:none;text-decoration-style:solid;text-decoration-color:#000000;letter-spacing:normal;word-spacing:normal;text-transform:none;writing-mode:lr-tb;direction:ltr;text-orientation:mixed;dominant-baseline:auto;baseline-shift:baseline;text-anchor:start;white-space:normal;shape-padding:0;clip-rule:nonzero;display:inline;overflow:visible;visibility:visible;opacity:1;isolation:auto;mix-blend-mode:normal;color-interpolation:sRGB;color-interpolation-filters:linearRGB;solid-color:#000000;solid-opacity:1;vector-effect:none;fill:#bebebe;fill-opacity:1;fill-rule:nonzero;stroke:none;stroke-width:0.41088319;stroke-linecap:round;stroke-linejoin:round;stroke-miterlimit:4;stroke-dasharray:none;stroke-dashoffset:0;stroke-opacity:1;color-rendering:auto;image-rendering:auto;shape-rendering:auto;text-rendering:auto;enable-background:accumulate" />
      <path
         inkscape:connector-curvature="0"
         id="path1020"
         transform="matrix(0.26458333,0,0,0.26458333,0,284.3)"
         d="m 107.23047,259.59961 a 1.0001006,1.0001006 0 0 0 -0.0977,0.002 1.0001006,1.0001006 0 0 0 -0.78906,0.48828 l -3.00391,4.9961 a 1.0001006,1.0001006 0 0 0 -0.0371,0.96094 l 1.27539,2.55273 h 5.24219 l 1.27735,-2.55273 a 1.0001006,1.0001006 0 0 0 -0.0371,-0.96094 l -3.00391,-4.9961 a 1.0001006,1.0001006 0 0 0 -0.82617,-0.49023 z"
         style="color:#000000;font-style:normal;font-variant:normal;font-weight:normal;font-stretch:normal;font-size:medium;line-height:normal;font-family:sans-serif;font-variant-ligatures:normal;font-variant-position:normal;font-variant-caps:normal;font-variant-numeric:normal;font-variant-alternates:normal;font-feature-settings:normal;text-indent:0;text-align:start;text-decoration:none;text-decoration-line:none;text-decoration-style:solid;text-decoration-color:#000000;letter-spacing:normal;word-spacing:normal;text-transform:none;writing-mode:lr-tb;direction:ltr;text-orientation:mixed;dominant-baseline:auto;baseline-shift:baseline;text-anchor:start;white-space:normal;shape-padding:0;clip-rule:nonzero;display:inline;overflow:visible;visibility:visible;opacity:1;isolation:auto;mix-blend-mode:normal;color-interpolation:sRGB;color-interpolation-filters:linearRGB;solid-color:#000000;solid-opacity:1;vector-effect:none;fill:#ff5252;fill-opacity:1;fill-rule:nonzero;stroke:none;stroke-width:1.55294538;stroke-linecap:round;stroke-linejoin:round;stroke-miterlimit:4;stroke-dasharray:none;stroke-dashoffset:0;stroke-opacity:1;color-rendering:auto;image-rendering:auto;shape-rendering:auto;text-rendering:auto;enable-background:accumulate" />
      <path
         inkscape:connector-curvature="0"
         id="path989"
         d="m 25.396484,355.87695 c -0.318357,0.0454 -0.618897,0.16175 -0.855468,0.35157 -0.236572,0.18981 -0.410157,0.47019 -0.410157,0.79687 a 0.26460996,0.26460996 0 0 0 0,0.006 c 0.02367,1.3067 0.324446,1.64853 0.470703,1.95703 a 0.26460996,0.26460996 0 0 0 0.002,0.004 c 0.05735,0.1162 0.100819,0.40216 0.125,0.72461 0.02418,0.32245 0.03946,0.68598 0.105468,1.01953 0.06601,0.33355 0.182517,0.66839 0.490235,0.84961 0.307717,0.18122 0.716604,0.13121 1.203125,-0.11524 0.29096,-0.14739 0.441982,-0.43518 0.472656,-0.71093 0.03067,-0.27576 -0.0219,-0.55452 -0.08594,-0.82618 -0.06404,-0.27165 -0.143099,-0.53741 -0.183593,-0.75781 -0.04049,-0.2204 -0.02979,-0.38495 0,-0.44531 0.156957,-0.31804 0.346465,-0.54418 0.46875,-0.85547 0.122284,-0.31129 0.131569,-0.69616 -0.06445,-1.18164 a 0.26460996,0.26460996 0 0 0 -0.0098,-0.0176 c -0.33743,-0.67742 -1.091801,-0.88972 -1.728516,-0.79883 z"
         style="color:#000000;font-style:normal;font-variant:normal;font-weight:normal;font-stretch:normal;font-size:medium;line-height:normal;font-family:sans-serif;font-variant-ligatures:normal;font-variant-position:normal;font-variant-caps:normal;font-variant-numeric:normal;font-variant-alternates:normal;font-feature-settings:normal;text-indent:0;text-align:start;text-decoration:none;text-decoration-line:none;text-decoration-style:solid;text-decoration-color:#000000;letter-spacing:normal;word-spacing:normal;text-transform:none;writing-mode:lr-tb;direction:ltr;text-orientation:mixed;dominant-baseline:auto;baseline-shift:baseline;text-anchor:start;white-space:normal;shape-padding:0;clip-rule:nonzero;display:inline;overflow:visible;visibility:visible;opacity:1;isolation:auto;mix-blend-mode:normal;color-interpolation:sRGB;color-interpolation-filters:linearRGB;solid-color:#000000;solid-opacity:1;vector-effect:none;fill:#f5f5f5;fill-opacity:1;fill-rule:nonzero;stroke:none;stroke-width:0.41088346;stroke-linecap:round;stroke-linejoin:round;stroke-miterlimit:4;stroke-dasharray:none;stroke-dashoffset:0;stroke-opacity:1;color-rendering:auto;image-rendering:auto;shape-rendering:auto;text-rendering:auto;enable-background:accumulate" />
      <path
         inkscape:connector-curvature="0"
         id="path995"
         d="m 31.330078,355.87695 c -0.636716,-0.0909 -1.391085,0.12141 -1.728516,0.79883 a 0.26460996,0.26460996 0 0 0 -0.0098,0.0176 c -0.196023,0.48548 -0.186738,0.87035 -0.06445,1.18164 0.122284,0.31129 0.311793,0.53743 0.46875,0.85547 0.02979,0.0604 0.04049,0.22491 0,0.44531 -0.04049,0.2204 -0.119553,0.48616 -0.183594,0.75781 -0.06404,0.27166 -0.116612,0.55042 -0.08594,0.82618 0.03067,0.27575 0.181696,0.56354 0.472657,0.71093 0.48652,0.24645 0.895407,0.29646 1.203125,0.11524 0.307717,-0.18122 0.424228,-0.51606 0.490234,-0.84961 0.06601,-0.33355 0.08129,-0.69708 0.105469,-1.01953 0.02418,-0.32245 0.06765,-0.60841 0.125,-0.72461 a 0.26460996,0.26460996 0 0 0 0.002,-0.004 c 0.146258,-0.3085 0.447033,-0.65033 0.470703,-1.95703 a 0.26460996,0.26460996 0 0 0 0,-0.006 c 0,-0.32668 -0.173584,-0.60706 -0.410156,-0.79687 -0.236572,-0.18982 -0.537111,-0.30612 -0.855469,-0.35157 z"
         style="color:#000000;font-style:normal;font-variant:normal;font-weight:normal;font-stretch:normal;font-size:medium;line-height:normal;font-family:sans-serif;font-variant-ligatures:normal;font-variant-position:normal;font-variant-caps:normal;font-variant-numeric:normal;font-variant-alternates:normal;font-feature-settings:normal;text-indent:0;text-align:start;text-decoration:none;text-decoration-line:none;text-decoration-style:solid;text-decoration-color:#000000;letter-spacing:normal;word-spacing:normal;text-transform:none;writing-mode:lr-tb;direction:ltr;text-orientation:mixed;dominant-baseline:auto;baseline-shift:baseline;text-anchor:start;white-space:normal;shape-padding:0;clip-rule:nonzero;display:inline;overflow:visible;visibility:visible;opacity:1;isolation:auto;mix-blend-mode:normal;color-interpolation:sRGB;color-interpolation-filters:linearRGB;solid-color:#000000;solid-opacity:1;vector-effect:none;fill:#f5f5f5;fill-opacity:1;fill-rule:nonzero;stroke:none;stroke-width:0.41088346;stroke-linecap:round;stroke-linejoin:round;stroke-miterlimit:4;stroke-dasharray:none;stroke-dashoffset:0;stroke-opacity:1;color-rendering:auto;image-rendering:auto;shape-rendering:auto;text-rendering:auto;enable-background:accumulate" />
      <path
         inkscape:connector-curvature="0"
         id="path975-1"
         d="m 33.35114,351.17407 c 0.191913,0.29191 0.303858,0.6411 0.303858,1.01803 v 7.9375 c 0,1.02605 -0.826037,1.85208 -1.852083,1.85208 h -7.9375 c -0.376926,0 -0.726123,-0.11194 -1.018027,-0.30386 0.330562,0.50235 0.898348,0.83303 1.547193,0.83303 h 7.9375 c 1.026046,0 1.852084,-0.82604 1.852084,-1.85208 v -7.9375 c 0,-0.64885 -0.330682,-1.21664 -0.833025,-1.5472 z"
         style="color:#000000;font-style:normal;font-variant:normal;font-weight:normal;font-stretch:normal;font-size:medium;line-height:normal;font-family:sans-serif;font-variant-ligatures:normal;font-variant-position:normal;font-variant-caps:normal;font-variant-numeric:normal;font-variant-alternates:normal;font-feature-settings:normal;text-indent:0;text-align:start;text-decoration:none;text-decoration-line:none;text-decoration-style:solid;text-decoration-color:#000000;letter-spacing:normal;word-spacing:normal;text-transform:none;writing-mode:lr-tb;direction:ltr;text-orientation:mixed;dominant-baseline:auto;baseline-shift:baseline;text-anchor:start;white-space:normal;shape-padding:0;clip-rule:nonzero;display:inline;overflow:visible;visibility:visible;isolation:auto;mix-blend-mode:normal;color-interpolation:sRGB;color-interpolation-filters:linearRGB;solid-color:#000000;solid-opacity:1;vector-effect:none;fill:#c4c4c4;fill-opacity:1;fill-rule:nonzero;stroke:none;stroke-width:0.41088346;stroke-linecap:round;stroke-linejoin:round;stroke-miterlimit:4;stroke-dasharray:none;stroke-dashoffset:0;stroke-opacity:1;color-rendering:auto;image-rendering:auto;shape-rendering:auto;text-rendering:auto;enable-background:accumulate" />
      <path
         inkscape:connector-curvature="0"
         id="path999"
         d="m 31.086715,355.85739 c -0.09775,-0.002 -0.196318,0.006 -0.294555,0.0191 0.0027,2.6e-4 0.0056,1.3e-4 0.0083,5.3e-4 v -5.3e-4 c 0.318357,0.0454 0.619189,0.16209 0.85576,0.35191 0.236572,0.18981 0.410314,0.47017 0.410314,0.79685 a 0.26460995,0.26460995 0 0 1 0,0.006 c -0.02368,1.3067 -0.324517,1.64901 -0.470773,1.95751 a 0.26460995,0.26460995 0 0 1 -0.0021,0.004 c -0.05735,0.1162 -0.100878,0.40205 -0.125058,0.7245 -0.02418,0.32246 -0.03941,0.68603 -0.105421,1.01958 -0.066,0.33355 -0.182692,0.66834 -0.490407,0.84956 -0.05526,0.0325 -0.114576,0.0556 -0.176218,0.0734 0.271949,0.0632 0.509415,0.042 0.705384,-0.0734 0.307716,-0.18122 0.424402,-0.51601 0.490408,-0.84956 0.06601,-0.33355 0.08124,-0.69712 0.105421,-1.01958 0.02418,-0.32245 0.06771,-0.6083 0.125058,-0.7245 a 0.26460995,0.26460995 0 0 0 0.0021,-0.004 c 0.146257,-0.3085 0.447101,-0.65081 0.470773,-1.95751 a 0.26460995,0.26460995 0 0 0 0,-0.006 c 0,-0.32668 -0.173741,-0.60704 -0.410313,-0.79685 -0.236572,-0.18982 -0.537403,-0.30646 -0.85576,-0.35191 v 5.3e-4 c -0.07959,-0.0113 -0.160658,-0.0181 -0.24288,-0.0196 z"
         style="color:#000000;font-style:normal;font-variant:normal;font-weight:normal;font-stretch:normal;font-size:medium;line-height:normal;font-family:sans-serif;font-variant-ligatures:normal;font-variant-position:normal;font-variant-caps:normal;font-variant-numeric:normal;font-variant-alternates:normal;font-feature-settings:normal;text-indent:0;text-align:start;text-decoration:none;text-decoration-line:none;text-decoration-style:solid;text-decoration-color:#000000;letter-spacing:normal;word-spacing:normal;text-transform:none;writing-mode:lr-tb;direction:ltr;text-orientation:mixed;dominant-baseline:auto;baseline-shift:baseline;text-anchor:start;white-space:normal;shape-padding:0;clip-rule:nonzero;display:inline;overflow:visible;visibility:visible;opacity:1;isolation:auto;mix-blend-mode:normal;color-interpolation:sRGB;color-interpolation-filters:linearRGB;solid-color:#000000;solid-opacity:1;vector-effect:none;fill:#bebebe;fill-opacity:1;fill-rule:nonzero;stroke:none;stroke-width:0.41088346;stroke-linecap:round;stroke-linejoin:round;stroke-miterlimit:4;stroke-dasharray:none;stroke-dashoffset:0;stroke-opacity:1;color-rendering:auto;image-rendering:auto;shape-rendering:auto;text-rendering:auto;enable-background:accumulate" />
      <path
         inkscape:connector-curvature="0"
         id="path1006"
         d="m 25.639617,355.85739 c -0.07926,0.002 -0.157763,0.008 -0.234611,0.0191 0.480207,0.0633 0.945515,0.30735 1.190625,0.79943 a 0.26460995,0.26460995 0 0 1 0.0098,0.0176 c 0.196019,0.48548 0.18688,0.87055 0.0646,1.18184 -0.122285,0.31129 -0.311749,0.53721 -0.468705,0.85525 -0.02979,0.0604 -0.04049,0.22505 0,0.44545 0.04049,0.2204 0.119411,0.48592 0.183451,0.75757 0.06404,0.27166 0.116453,0.55055 0.08578,0.82631 -0.03067,0.27575 -0.181363,0.56368 -0.472323,0.71107 -0.176684,0.0895 -0.343081,0.15208 -0.498161,0.1881 0.281748,0.0817 0.627906,0.0142 1.027328,-0.1881 0.29096,-0.14739 0.441648,-0.43532 0.472322,-0.71107 0.03067,-0.27576 -0.02174,-0.55465 -0.08578,-0.82631 -0.06404,-0.27165 -0.142957,-0.53717 -0.183451,-0.75757 -0.04049,-0.2204 -0.02979,-0.38509 0,-0.44545 0.156957,-0.31804 0.34642,-0.54396 0.468705,-0.85525 0.122284,-0.31129 0.131424,-0.69636 -0.06459,-1.18184 a 0.26460995,0.26460995 0 0 0 -0.0098,-0.0176 c -0.295251,-0.59274 -0.909626,-0.82955 -1.48518,-0.81855 z"
         style="color:#000000;font-style:normal;font-variant:normal;font-weight:normal;font-stretch:normal;font-size:medium;line-height:normal;font-family:sans-serif;font-variant-ligatures:normal;font-variant-position:normal;font-variant-caps:normal;font-variant-numeric:normal;font-variant-alternates:normal;font-feature-settings:normal;text-indent:0;text-align:start;text-decoration:none;text-decoration-line:none;text-decoration-style:solid;text-decoration-color:#000000;letter-spacing:normal;word-spacing:normal;text-transform:none;writing-mode:lr-tb;direction:ltr;text-orientation:mixed;dominant-baseline:auto;baseline-shift:baseline;text-anchor:start;white-space:normal;shape-padding:0;clip-rule:nonzero;display:inline;overflow:visible;visibility:visible;opacity:1;isolation:auto;mix-blend-mode:normal;color-interpolation:sRGB;color-interpolation-filters:linearRGB;solid-color:#000000;solid-opacity:1;vector-effect:none;fill:#bebebe;fill-opacity:1;fill-rule:nonzero;stroke:none;stroke-width:0.41088346;stroke-linecap:round;stroke-linejoin:round;stroke-miterlimit:4;stroke-dasharray:none;stroke-dashoffset:0;stroke-opacity:1;color-rendering:auto;image-rendering:auto;shape-rendering:auto;text-rendering:auto;enable-background:accumulate" />
      <path
         inkscape:connector-curvature="0"
         id="path1047"
         d="m 28.371388,352.98573 a 0.26460995,0.26460995 0 0 0 -0.02584,5.3e-4 0.26460995,0.26460995 0 0 0 -0.208773,0.12919 l -0.03824,0.063 0.75706,1.25884 a 0.26460995,0.26460995 0 0 1 0.0098,0.25425 l -0.337964,0.67541 h 0.529167 l 0.337964,-0.67541 a 0.26460995,0.26460995 0 0 0 -0.0098,-0.25425 l -0.794783,-1.32188 a 0.26460995,0.26460995 0 0 0 -0.218592,-0.12971 z"
         style="color:#000000;font-style:normal;font-variant:normal;font-weight:normal;font-stretch:normal;font-size:medium;line-height:normal;font-family:sans-serif;font-variant-ligatures:normal;font-variant-position:normal;font-variant-caps:normal;font-variant-numeric:normal;font-variant-alternates:normal;font-feature-settings:normal;text-indent:0;text-align:start;text-decoration:none;text-decoration-line:none;text-decoration-style:solid;text-decoration-color:#000000;letter-spacing:normal;word-spacing:normal;text-transform:none;writing-mode:lr-tb;direction:ltr;text-orientation:mixed;dominant-baseline:auto;baseline-shift:baseline;text-anchor:start;white-space:normal;shape-padding:0;clip-rule:nonzero;display:inline;overflow:visible;visibility:visible;opacity:1;isolation:auto;mix-blend-mode:normal;color-interpolation:sRGB;color-interpolation-filters:linearRGB;solid-color:#000000;solid-opacity:1;vector-effect:none;fill:#f13535;fill-opacity:1;fill-rule:nonzero;stroke:none;stroke-width:0.41088346;stroke-linecap:round;stroke-linejoin:round;stroke-miterlimit:4;stroke-dasharray:none;stroke-dashoffset:0;stroke-opacity:1;color-rendering:auto;image-rendering:auto;shape-rendering:auto;text-rendering:auto;enable-background:accumulate" />
    </g>
  </g>
</svg>
